<svg version="1.1" xmlns="http://www.w3.org/2000/svg" height="520" width="650"><g transform="translate(0,10)"><g><path style="stroke-width: 45; fill: none; stroke: rgb(254, 99, 113); stroke-opacity: 0.4;" d="M0,177.5C108.33333333333333,177.5 108.33333333333333,81.07142857142846 216.66666666666666,81.07142857142846" class="link"></path><path style="stroke-width: 32.1429; fill: none; stroke: rgb(191, 164, 105); stroke-opacity: 0.4;" d="M216.66666666666666,100.35714285714273C325,100.35714285714273 325,271.78571428571433 433.3333333333333,271.78571428571433" class="link"></path><path style="stroke-width: 27.8571; fill: none; stroke: rgb(188, 105, 191); stroke-opacity: 0.4;" d="M433.3333333333333,282.50000000000006C541.6666666666666,282.50000000000006 541.6666666666666,231.07142857142856 650,231.07142857142856" class="link"></path><path style="stroke-width: 23.5714; fill: none; stroke: rgb(254, 99, 113); stroke-opacity: 0.4;" d="M0,136.78571428571428C108.33333333333333,136.78571428571428 108.33333333333333,11.785714285714171 216.66666666666666,11.785714285714171" class="link"></path><path style="stroke-width: 23.5714; fill: none; stroke: rgb(188, 105, 191); stroke-opacity: 0.4;" d="M433.3333333333333,308.2142857142857C541.6666666666666,308.2142857142857 541.6666666666666,305.35714285714283 650,305.35714285714283" class="link"></path><path style="stroke-width: 19.2857; fill: none; stroke: rgb(188, 105, 191); stroke-opacity: 0.4;" d="M433.3333333333333,258.92857142857144C541.6666666666666,258.92857142857144 541.6666666666666,158.92857142857142 650,158.92857142857142" class="link"></path><path style="stroke-width: 17.1429; fill: none; stroke: rgb(254, 99, 113); stroke-opacity: 0.4;" d="M0,230.00000000000003C108.33333333333333,230.00000000000003 108.33333333333333,232.85714285714275 216.66666666666666,232.85714285714275" class="link"></path><path style="stroke-width: 17.1429; fill: none; stroke: rgb(191, 105, 178); stroke-opacity: 0.4;" d="M433.3333333333333,364.2857142857143C541.6666666666666,364.2857142857143 541.6666666666666,325.71428571428567 650,325.71428571428567" class="link"></path><path style="stroke-width: 17.1429; fill: none; stroke: rgb(191, 105, 149); stroke-opacity: 0.4;" d="M433.3333333333333,215.71428571428575C541.6666666666666,215.71428571428575 541.6666666666666,284.99999999999994 650,284.99999999999994" class="link"></path><path style="stroke-width: 15; fill: none; stroke: rgb(16, 69, 132); stroke-opacity: 0.4;" d="M0,320.35714285714283C108.33333333333333,320.35714285714283 108.33333333333333,111.07142857142846 216.66666666666666,111.07142857142846" class="link"></path><path style="stroke-width: 15; fill: none; stroke: rgb(191, 164, 105); stroke-opacity: 0.4;" d="M216.66666666666666,76.78571428571416C325,76.78571428571416 325,203.92857142857144 433.3333333333333,203.92857142857144" class="link"></path><path style="stroke-width: 12.8571; fill: none; stroke: rgb(254, 99, 113); stroke-opacity: 0.4;" d="M0,272.8571428571429C108.33333333333333,272.8571428571429 108.33333333333333,434.28571428571433 216.66666666666666,434.28571428571433" class="link"></path><path style="stroke-width: 12.8571; fill: none; stroke: rgb(16, 69, 132); stroke-opacity: 0.4;" d="M0,338.57142857142856C108.33333333333333,338.57142857142856 108.33333333333333,247.85714285714272 216.66666666666666,247.85714285714272" class="link"></path><path style="stroke-width: 12.8571; fill: none; stroke: rgb(191, 105, 149); stroke-opacity: 0.4;" d="M433.3333333333333,230.7142857142857C541.6666666666666,230.7142857142857 541.6666666666666,357.14285714285717 650,357.14285714285717" class="link"></path><path style="stroke-width: 12.8571; fill: none; stroke: rgb(188, 191, 105); stroke-opacity: 0.4;" d="M433.3333333333333,110.71428571428572C541.6666666666666,110.71428571428572 541.6666666666666,191.42857142857142 650,191.42857142857142" class="link"></path><path style="stroke-width: 10.7143; fill: none; stroke: rgb(254, 99, 113); stroke-opacity: 0.4;" d="M0,261.07142857142856C108.33333333333333,261.07142857142856 108.33333333333333,406.07142857142856 216.66666666666666,406.07142857142856" class="link"></path><path style="stroke-width: 10.7143; fill: none; stroke: rgb(188, 191, 105); stroke-opacity: 0.4;" d="M216.66666666666666,5.357142857142743C325,5.357142857142743 325,105.35714285714286 433.3333333333333,105.35714285714286" class="link"></path><path style="stroke-width: 10.7143; fill: none; stroke: rgb(105, 191, 110); stroke-opacity: 0.4;" d="M216.66666666666666,244.64285714285703C325,244.64285714285703 325,301.7857142857143 433.3333333333333,301.7857142857143" class="link"></path><path style="stroke-width: 10.7143; fill: none; stroke: rgb(191, 105, 178); stroke-opacity: 0.4;" d="M433.3333333333333,378.2142857142857C541.6666666666666,378.2142857142857 541.6666666666666,375.35714285714283 650,375.35714285714283" class="link"></path><path style="stroke-width: 10.7143; fill: none; stroke: rgb(191, 105, 164); stroke-opacity: 0.4;" d="M433.3333333333333,168.21428571428572C541.6666666666666,168.21428571428572 541.6666666666666,203.21428571428572 650,203.21428571428572" class="link"></path><path style="stroke-width: 10.7143; fill: none; stroke: rgb(188, 191, 105); stroke-opacity: 0.4;" d="M433.3333333333333,122.5C541.6666666666666,122.5 541.6666666666666,268.9285714285714 650,268.9285714285714" class="link"></path><path style="stroke-width: 8.57143; fill: none; stroke: rgb(16, 69, 132); stroke-opacity: 0.4;" d="M0,308.57142857142856C108.33333333333333,308.57142857142856 108.33333333333333,27.85714285714274 216.66666666666666,27.85714285714274" class="link"></path><path style="stroke-width: 8.57143; fill: none; stroke: rgb(191, 149, 105); stroke-opacity: 0.4;" d="M216.66666666666666,438.5714285714286C325,438.5714285714286 325,372.85714285714283 433.3333333333333,372.85714285714283" class="link"></path><path style="stroke-width: 8.57143; fill: none; stroke: rgb(188, 191, 105); stroke-opacity: 0.4;" d="M216.66666666666666,19.28571428571417C325,19.28571428571417 325,190 433.3333333333333,190" class="link"></path><path style="stroke-width: 8.57143; fill: none; stroke: rgb(191, 105, 178); stroke-opacity: 0.4;" d="M433.3333333333333,351.42857142857144C541.6666666666666,351.42857142857144 541.6666666666666,249.28571428571428 650,249.28571428571428" class="link"></path><path style="stroke-width: 8.57143; fill: none; stroke: rgb(191, 105, 149); stroke-opacity: 0.4;" d="M433.3333333333333,194.28571428571428C541.6666666666666,194.28571428571428 541.6666666666666,145 650,145" class="link"></path><path style="stroke-width: 8.57143; fill: none; stroke: rgb(191, 105, 149); stroke-opacity: 0.4;" d="M433.3333333333333,202.85714285714286C541.6666666666666,202.85714285714286 541.6666666666666,212.85714285714283 650,212.85714285714283" class="link"></path><path style="stroke-width: 6.42857; fill: none; stroke: rgb(254, 99, 113); stroke-opacity: 0.4;" d="M0,282.5C108.33333333333333,282.5 108.33333333333333,458.2142857142858 216.66666666666666,458.2142857142858" class="link"></path><path style="stroke-width: 6.42857; fill: none; stroke: rgb(254, 99, 113); stroke-opacity: 0.4;" d="M0,207.5C108.33333333333333,207.5 108.33333333333333,156.07142857142844 216.66666666666666,156.07142857142844" class="link"></path><path style="stroke-width: 6.42857; fill: none; stroke: rgb(254, 99, 113); stroke-opacity: 0.4;" d="M0,151.78571428571428C108.33333333333333,151.78571428571428 108.33333333333333,45.35714285714274 216.66666666666666,45.35714285714274" class="link"></path><path style="stroke-width: 6.42857; fill: none; stroke: rgb(16, 69, 132); stroke-opacity: 0.4;" d="M0,367.5C108.33333333333333,367.5 108.33333333333333,414.64285714285717 216.66666666666666,414.64285714285717" class="link"></path><path style="stroke-width: 6.42857; fill: none; stroke: rgb(191, 164, 105); stroke-opacity: 0.4;" d="M216.66666666666666,66.07142857142846C325,66.07142857142846 325,161.7857142857143 433.3333333333333,161.7857142857143" class="link"></path><path style="stroke-width: 6.42857; fill: none; stroke: rgb(188, 191, 105); stroke-opacity: 0.4;" d="M216.66666666666666,26.78571428571417C325,26.78571428571417 325,250.3571428571429 433.3333333333333,250.3571428571429" class="link"></path><path style="stroke-width: 6.42857; fill: none; stroke: rgb(105, 191, 110); stroke-opacity: 0.4;" d="M216.66666666666666,236.07142857142847C325,236.07142857142847 325,223.21428571428572 433.3333333333333,223.21428571428572" class="link"></path><path style="stroke-width: 6.42857; fill: none; stroke: rgb(188, 105, 191); stroke-opacity: 0.4;" d="M433.3333333333333,323.2142857142857C541.6666666666666,323.2142857142857 541.6666666666666,366.7857142857143 650,366.7857142857143" class="link"></path><path style="stroke-width: 6.42857; fill: none; stroke: rgb(191, 105, 178); stroke-opacity: 0.4;" d="M433.3333333333333,343.92857142857144C541.6666666666666,343.92857142857144 541.6666666666666,171.7857142857143 650,171.7857142857143" class="link"></path><path style="stroke-width: 6.42857; fill: none; stroke: rgb(191, 105, 164); stroke-opacity: 0.4;" d="M433.3333333333333,159.64285714285717C541.6666666666666,159.64285714285717 541.6666666666666,137.5 650,137.5" class="link"></path><path style="stroke-width: 6.42857; fill: none; stroke: rgb(191, 105, 134); stroke-opacity: 0.4;" d="M433.3333333333333,143.21428571428572C541.6666666666666,143.21428571428572 541.6666666666666,347.5 650,347.5" class="link"></path><path style="stroke-width: 4.28571; fill: none; stroke: rgb(254, 99, 113); stroke-opacity: 0.4;" d="M0,292.14285714285717C108.33333333333333,292.14285714285717 108.33333333333333,497.857142857143 216.66666666666666,497.857142857143" class="link"></path><path style="stroke-width: 4.28571; fill: none; stroke: rgb(254, 99, 113); stroke-opacity: 0.4;" d="M0,253.57142857142856C108.33333333333333,253.57142857142856 108.33333333333333,360 216.66666666666666,360" class="link"></path><path style="stroke-width: 4.28571; fill: none; stroke: rgb(254, 99, 113); stroke-opacity: 0.4;" d="M0,217.14285714285714C108.33333333333333,217.14285714285714 108.33333333333333,187.85714285714275 216.66666666666666,187.85714285714275" class="link"></path><path style="stroke-width: 4.28571; fill: none; stroke: rgb(254, 99, 113); stroke-opacity: 0.4;" d="M0,244.99999999999997C108.33333333333333,244.99999999999997 108.33333333333333,304.99999999999994 216.66666666666666,304.99999999999994" class="link"></path><path style="stroke-width: 4.28571; fill: none; stroke: rgb(254, 99, 113); stroke-opacity: 0.4;" d="M0,212.85714285714286C108.33333333333333,212.85714285714286 108.33333333333333,171.4285714285713 216.66666666666666,171.4285714285713" class="link"></path><path style="stroke-width: 4.28571; fill: none; stroke: rgb(16, 69, 132); stroke-opacity: 0.4;" d="M0,357.8571428571429C108.33333333333333,357.8571428571429 108.33333333333333,364.2857142857143 216.66666666666666,364.2857142857143" class="link"></path><path style="stroke-width: 4.28571; fill: none; stroke: rgb(16, 69, 132); stroke-opacity: 0.4;" d="M0,372.8571428571429C108.33333333333333,372.8571428571429 108.33333333333333,442.8571428571429 216.66666666666666,442.8571428571429" class="link"></path><path style="stroke-width: 4.28571; fill: none; stroke: rgb(16, 69, 132); stroke-opacity: 0.4;" d="M0,351.42857142857144C108.33333333333333,351.42857142857144 108.33333333333333,309.2857142857142 216.66666666666666,309.2857142857142" class="link"></path><path style="stroke-width: 4.28571; fill: none; stroke: rgb(191, 149, 105); stroke-opacity: 0.4;" d="M216.66666666666666,432.1428571428572C325,432.1428571428572 325,320.00000000000006 433.3333333333333,320.00000000000006" class="link"></path><path style="stroke-width: 4.28571; fill: none; stroke: rgb(191, 164, 105); stroke-opacity: 0.4;" d="M216.66666666666666,60.7142857142856C325,60.7142857142856 325,112.85714285714285 433.3333333333333,112.85714285714285" class="link"></path><path style="stroke-width: 4.28571; fill: none; stroke: rgb(174, 191, 105); stroke-opacity: 0.4;" d="M216.66666666666666,459.2857142857144C325,459.2857142857144 325,379.28571428571433 433.3333333333333,379.28571428571433" class="link"></path><path style="stroke-width: 4.28571; fill: none; stroke: rgb(159, 191, 105); stroke-opacity: 0.4;" d="M216.66666666666666,409.28571428571433C325,409.28571428571433 325,315.7142857142858 433.3333333333333,315.7142857142858" class="link"></path><path style="stroke-width: 4.28571; fill: none; stroke: rgb(159, 191, 105); stroke-opacity: 0.4;" d="M216.66666666666666,413.5714285714286C325,413.5714285714286 325,366.42857142857144 433.3333333333333,366.42857142857144" class="link"></path><path style="stroke-width: 4.28571; fill: none; stroke: rgb(159, 191, 105); stroke-opacity: 0.4;" d="M216.66666666666666,402.8571428571429C325,402.8571428571429 325,171.42857142857144 433.3333333333333,171.42857142857144" class="link"></path><path style="stroke-width: 4.28571; fill: none; stroke: rgb(105, 191, 110); stroke-opacity: 0.4;" d="M216.66666666666666,252.14285714285703C325,252.14285714285703 325,351.42857142857144 433.3333333333333,351.42857142857144" class="link"></path><path style="stroke-width: 4.28571; fill: none; stroke: rgb(105, 191, 110); stroke-opacity: 0.4;" d="M216.66666666666666,226.4285714285713C325,226.4285714285713 325,119.28571428571428 433.3333333333333,119.28571428571428" class="link"></path><path style="stroke-width: 4.28571; fill: none; stroke: rgb(105, 183, 191); stroke-opacity: 0.4;" d="M216.66666666666666,304.99999999999994C325,304.99999999999994 325,125.71428571428571 433.3333333333333,125.71428571428571" class="link"></path><path style="stroke-width: 4.28571; fill: none; stroke: rgb(105, 125, 191); stroke-opacity: 0.4;" d="M216.66666666666666,171.4285714285713C325,171.4285714285713 325,215.71428571428572 433.3333333333333,215.71428571428572" class="link"></path><path style="stroke-width: 4.28571; fill: none; stroke: rgb(191, 105, 178); stroke-opacity: 0.4;" d="M433.3333333333333,338.5714285714286C541.6666666666666,338.5714285714286 541.6666666666666,113.57142857142857 650,113.57142857142857" class="link"></path><path style="stroke-width: 4.28571; fill: none; stroke: rgb(191, 105, 149); stroke-opacity: 0.4;" d="M433.3333333333333,187.85714285714286C541.6666666666666,187.85714285714286 541.6666666666666,107.14285714285714 650,107.14285714285714" class="link"></path><path style="stroke-width: 4.28571; fill: none; stroke: rgb(188, 191, 105); stroke-opacity: 0.4;" d="M433.3333333333333,102.14285714285714C541.6666666666666,102.14285714285714 541.6666666666666,130 650,130" class="link"></path><path style="stroke-width: 2.14286; fill: none; stroke: rgb(254, 99, 113); stroke-opacity: 0.4;" d="M0,286.7857142857142C108.33333333333333,286.7857142857142 108.33333333333333,472.50000000000006 216.66666666666666,472.50000000000006" class="link"></path><path style="stroke-width: 2.14286; fill: none; stroke: rgb(254, 99, 113); stroke-opacity: 0.4;" d="M0,239.64285714285714C108.33333333333333,239.64285714285714 108.33333333333333,277.4999999999999 216.66666666666666,277.4999999999999" class="link"></path><path style="stroke-width: 2.14286; fill: none; stroke: rgb(254, 99, 113); stroke-opacity: 0.4;" d="M0,250.35714285714286C108.33333333333333,250.35714285714286 108.33333333333333,346.7857142857142 216.66666666666666,346.7857142857142" class="link"></path><path style="stroke-width: 2.14286; fill: none; stroke: rgb(254, 99, 113); stroke-opacity: 0.4;" d="M0,220.35714285714286C108.33333333333333,220.35714285714286 108.33333333333333,213.2142857142856 216.66666666666666,213.2142857142856" class="link"></path><path style="stroke-width: 2.14286; fill: none; stroke: rgb(254, 99, 113); stroke-opacity: 0.4;" d="M0,248.21428571428572C108.33333333333333,248.21428571428572 108.33333333333333,322.4999999999999 216.66666666666666,322.4999999999999" class="link"></path><path style="stroke-width: 2.14286; fill: none; stroke: rgb(254, 99, 113); stroke-opacity: 0.4;" d="M0,201.07142857142858C108.33333333333333,201.07142857142858 108.33333333333333,129.64285714285703 216.66666666666666,129.64285714285703" class="link"></path><path style="stroke-width: 2.14286; fill: none; stroke: rgb(254, 99, 113); stroke-opacity: 0.4;" d="M0,203.21428571428572C108.33333333333333,203.21428571428572 108.33333333333333,141.78571428571416 216.66666666666666,141.78571428571416" class="link"></path><path style="stroke-width: 2.14286; fill: none; stroke: rgb(254, 99, 113); stroke-opacity: 0.4;" d="M0,288.9285714285714C108.33333333333333,288.9285714285714 108.33333333333333,484.6428571428572 216.66666666666666,484.6428571428572" class="link"></path><path style="stroke-width: 2.14286; fill: none; stroke: rgb(254, 99, 113); stroke-opacity: 0.4;" d="M0,241.7857142857143C108.33333333333333,241.7857142857143 108.33333333333333,291.78571428571416 216.66666666666666,291.78571428571416" class="link"></path><path style="stroke-width: 2.14286; fill: none; stroke: rgb(16, 69, 132); stroke-opacity: 0.4;" d="M0,361.07142857142856C108.33333333333333,361.07142857142856 108.33333333333333,377.49999999999994 216.66666666666666,377.49999999999994" class="link"></path><path style="stroke-width: 2.14286; fill: none; stroke: rgb(16, 69, 132); stroke-opacity: 0.4;" d="M0,346.07142857142856C108.33333333333333,346.07142857142856 108.33333333333333,265.3571428571427 216.66666666666666,265.3571428571427" class="link"></path><path style="stroke-width: 2.14286; fill: none; stroke: rgb(16, 69, 132); stroke-opacity: 0.4;" d="M0,348.21428571428567C108.33333333333333,348.21428571428567 108.33333333333333,279.64285714285705 216.66666666666666,279.64285714285705" class="link"></path><path style="stroke-width: 2.14286; fill: none; stroke: rgb(16, 69, 132); stroke-opacity: 0.4;" d="M0,331.07142857142856C108.33333333333333,331.07142857142856 108.33333333333333,201.07142857142847 216.66666666666666,201.07142857142847" class="link"></path><path style="stroke-width: 2.14286; fill: none; stroke: rgb(16, 69, 132); stroke-opacity: 0.4;" d="M0,328.9285714285714C108.33333333333333,328.9285714285714 108.33333333333333,174.64285714285703 216.66666666666666,174.64285714285703" class="link"></path><path style="stroke-width: 2.14286; fill: none; stroke: rgb(16, 69, 132); stroke-opacity: 0.4;" d="M0,363.21428571428567C108.33333333333333,363.21428571428567 108.33333333333333,389.6428571428571 216.66666666666666,389.6428571428571" class="link"></path><path style="stroke-width: 2.14286; fill: none; stroke: rgb(16, 69, 132); stroke-opacity: 0.4;" d="M0,354.6428571428571C108.33333333333333,354.6428571428571 108.33333333333333,334.64285714285705 216.66666666666666,334.64285714285705" class="link"></path><path style="stroke-width: 2.14286; fill: none; stroke: rgb(191, 134, 105); stroke-opacity: 0.4;" d="M216.66666666666666,472.50000000000006C325,472.50000000000006 325,325.3571428571429 433.3333333333333,325.3571428571429" class="link"></path><path style="stroke-width: 2.14286; fill: none; stroke: rgb(191, 149, 105); stroke-opacity: 0.4;" d="M216.66666666666666,428.92857142857144C325,428.92857142857144 325,236.0714285714286 433.3333333333333,236.0714285714286" class="link"></path><path style="stroke-width: 2.14286; fill: none; stroke: rgb(191, 149, 105); stroke-opacity: 0.4;" d="M216.66666666666666,443.92857142857144C325,443.92857142857144 325,398.92857142857144 433.3333333333333,398.92857142857144" class="link"></path><path style="stroke-width: 2.14286; fill: none; stroke: rgb(191, 164, 105); stroke-opacity: 0.4;" d="M216.66666666666666,117.49999999999987C325,117.49999999999987 325,341.7857142857143 433.3333333333333,341.7857142857143" class="link"></path><path style="stroke-width: 2.14286; fill: none; stroke: rgb(191, 179, 105); stroke-opacity: 0.4;" d="M216.66666666666666,498.92857142857156C325,498.92857142857156 325,384.6428571428571 433.3333333333333,384.6428571428571" class="link"></path><path style="stroke-width: 2.14286; fill: none; stroke: rgb(191, 179, 105); stroke-opacity: 0.4;" d="M216.66666666666666,496.7857142857144C325,496.7857142857144 325,174.64285714285717 433.3333333333333,174.64285714285717" class="link"></path><path style="stroke-width: 2.14286; fill: none; stroke: rgb(188, 191, 105); stroke-opacity: 0.4;" d="M216.66666666666666,13.928571428571313C325,13.928571428571313 325,157.50000000000003 433.3333333333333,157.50000000000003" class="link"></path><path style="stroke-width: 2.14286; fill: none; stroke: rgb(188, 191, 105); stroke-opacity: 0.4;" d="M216.66666666666666,31.07142857142846C325,31.07142857142846 325,337.5 433.3333333333333,337.5" class="link"></path><path style="stroke-width: 2.14286; fill: none; stroke: rgb(188, 191, 105); stroke-opacity: 0.4;" d="M216.66666666666666,11.785714285714171C325,11.785714285714171 325,138.92857142857144 433.3333333333333,138.92857142857144" class="link"></path><path style="stroke-width: 2.14286; fill: none; stroke: rgb(174, 191, 105); stroke-opacity: 0.4;" d="M216.66666666666666,456.0714285714286C325,456.0714285714286 325,323.2142857142857 433.3333333333333,323.2142857142857" class="link"></path><path style="stroke-width: 2.14286; fill: none; stroke: rgb(159, 191, 105); stroke-opacity: 0.4;" d="M216.66666666666666,416.7857142857143C325,416.7857142857143 325,396.7857142857143 433.3333333333333,396.7857142857143" class="link"></path><path style="stroke-width: 2.14286; fill: none; stroke: rgb(159, 191, 105); stroke-opacity: 0.4;" d="M216.66666666666666,406.07142857142856C325,406.07142857142856 325,233.92857142857147 433.3333333333333,233.92857142857147" class="link"></path><path style="stroke-width: 2.14286; fill: none; stroke: rgb(144, 191, 105); stroke-opacity: 0.4;" d="M216.66666666666666,279.64285714285705C325,279.64285714285705 325,356.7857142857143 433.3333333333333,356.7857142857143" class="link"></path><path style="stroke-width: 2.14286; fill: none; stroke: rgb(144, 191, 105); stroke-opacity: 0.4;" d="M216.66666666666666,277.4999999999999C325,277.4999999999999 325,122.5 433.3333333333333,122.5" class="link"></path><path style="stroke-width: 2.14286; fill: none; stroke: rgb(130, 191, 105); stroke-opacity: 0.4;" d="M216.66666666666666,346.7857142857142C325,346.7857142857142 325,143.21428571428572 433.3333333333333,143.21428571428572" class="link"></path><path style="stroke-width: 2.14286; fill: none; stroke: rgb(115, 191, 105); stroke-opacity: 0.4;" d="M216.66666666666666,158.21428571428558C325,158.21428571428558 325,343.92857142857144 433.3333333333333,343.92857142857144" class="link"></path><path style="stroke-width: 2.14286; fill: none; stroke: rgb(115, 191, 105); stroke-opacity: 0.4;" d="M216.66666666666666,156.07142857142844C325,156.07142857142844 325,293.2142857142857 433.3333333333333,293.2142857142857" class="link"></path><path style="stroke-width: 2.14286; fill: none; stroke: rgb(115, 191, 105); stroke-opacity: 0.4;" d="M216.66666666666666,153.9285714285713C325,153.9285714285713 325,212.50000000000003 433.3333333333333,212.50000000000003" class="link"></path><path style="stroke-width: 2.14286; fill: none; stroke: rgb(105, 191, 110); stroke-opacity: 0.4;" d="M216.66666666666666,229.64285714285703C325,229.64285714285703 325,141.07142857142858 433.3333333333333,141.07142857142858" class="link"></path><path style="stroke-width: 2.14286; fill: none; stroke: rgb(105, 191, 110); stroke-opacity: 0.4;" d="M216.66666666666666,231.78571428571416C325,231.78571428571416 325,166.0714285714286 433.3333333333333,166.0714285714286" class="link"></path><path style="stroke-width: 2.14286; fill: none; stroke: rgb(105, 191, 125); stroke-opacity: 0.4;" d="M216.66666666666666,358.9285714285714C325,358.9285714285714 325,168.21428571428575 433.3333333333333,168.21428571428575" class="link"></path><path style="stroke-width: 2.14286; fill: none; stroke: rgb(105, 191, 125); stroke-opacity: 0.4;" d="M216.66666666666666,363.21428571428567C325,363.21428571428567 325,312.5 433.3333333333333,312.5" class="link"></path><path style="stroke-width: 2.14286; fill: none; stroke: rgb(105, 191, 125); stroke-opacity: 0.4;" d="M216.66666666666666,361.07142857142856C325,361.07142857142856 325,229.64285714285717 433.3333333333333,229.64285714285717" class="link"></path><path style="stroke-width: 2.14286; fill: none; stroke: rgb(105, 191, 125); stroke-opacity: 0.4;" d="M216.66666666666666,365.35714285714283C325,365.35714285714283 325,363.2142857142857 433.3333333333333,363.2142857142857" class="link"></path><path style="stroke-width: 2.14286; fill: none; stroke: rgb(105, 191, 139); stroke-opacity: 0.4;" d="M216.66666666666666,213.2142857142856C325,213.2142857142856 325,348.2142857142857 433.3333333333333,348.2142857142857" class="link"></path><path style="stroke-width: 2.14286; fill: none; stroke: rgb(105, 191, 154); stroke-opacity: 0.4;" d="M216.66666666666666,322.4999999999999C325,322.4999999999999 325,227.50000000000003 433.3333333333333,227.50000000000003" class="link"></path><path style="stroke-width: 2.14286; fill: none; stroke: rgb(105, 191, 169); stroke-opacity: 0.4;" d="M216.66666666666666,129.64285714285703C325,129.64285714285703 325,288.92857142857144 433.3333333333333,288.92857142857144" class="link"></path><path style="stroke-width: 2.14286; fill: none; stroke: rgb(105, 191, 183); stroke-opacity: 0.4;" d="M216.66666666666666,186.7857142857142C325,186.7857142857142 325,218.92857142857144 433.3333333333333,218.92857142857144" class="link"></path><path style="stroke-width: 2.14286; fill: none; stroke: rgb(105, 191, 183); stroke-opacity: 0.4;" d="M216.66666666666666,188.92857142857133C325,188.92857142857133 325,346.07142857142856 433.3333333333333,346.07142857142856" class="link"></path><path style="stroke-width: 2.14286; fill: none; stroke: rgb(105, 183, 191); stroke-opacity: 0.4;" d="M216.66666666666666,308.2142857142856C325,308.2142857142856 325,310.3571428571429 433.3333333333333,310.3571428571429" class="link"></path><path style="stroke-width: 2.14286; fill: none; stroke: rgb(105, 183, 191); stroke-opacity: 0.4;" d="M216.66666666666666,310.3571428571428C325,310.3571428571428 325,358.92857142857144 433.3333333333333,358.92857142857144" class="link"></path><path style="stroke-width: 2.14286; fill: none; stroke: rgb(105, 169, 191); stroke-opacity: 0.4;" d="M216.66666666666666,141.78571428571416C325,141.78571428571416 325,291.07142857142856 433.3333333333333,291.07142857142856" class="link"></path><path style="stroke-width: 2.14286; fill: none; stroke: rgb(105, 154, 191); stroke-opacity: 0.4;" d="M216.66666666666666,484.6428571428572C325,484.6428571428572 325,382.5 433.3333333333333,382.5" class="link"></path><path style="stroke-width: 2.14286; fill: none; stroke: rgb(105, 139, 191); stroke-opacity: 0.4;" d="M216.66666666666666,47.49999999999988C325,47.49999999999988 325,339.64285714285717 433.3333333333333,339.64285714285717" class="link"></path><path style="stroke-width: 2.14286; fill: none; stroke: rgb(105, 139, 191); stroke-opacity: 0.4;" d="M216.66666666666666,43.214285714285595C325,43.214285714285595 325,195.3571428571429 433.3333333333333,195.3571428571429" class="link"></path><path style="stroke-width: 2.14286; fill: none; stroke: rgb(105, 139, 191); stroke-opacity: 0.4;" d="M216.66666666666666,45.35714285714274C325,45.35714285714274 325,254.64285714285717 433.3333333333333,254.64285714285717" class="link"></path><path style="stroke-width: 2.14286; fill: none; stroke: rgb(105, 125, 191); stroke-opacity: 0.4;" d="M216.66666666666666,174.64285714285703C325,174.64285714285703 325,295.3571428571429 433.3333333333333,295.3571428571429" class="link"></path><path style="stroke-width: 2.14286; fill: none; stroke: rgb(105, 110, 191); stroke-opacity: 0.4;" d="M216.66666666666666,291.78571428571416C325,291.78571428571416 325,308.2142857142857 433.3333333333333,308.2142857142857" class="link"></path><path style="stroke-width: 2.14286; fill: none; stroke: rgb(115, 105, 191); stroke-opacity: 0.4;" d="M216.66666666666666,377.49999999999994C325,377.49999999999994 325,145.35714285714286 433.3333333333333,145.35714285714286" class="link"></path><path style="stroke-width: 2.14286; fill: none; stroke: rgb(130, 105, 191); stroke-opacity: 0.4;" d="M216.66666666666666,265.3571428571427C325,265.3571428571427 325,354.64285714285717 433.3333333333333,354.64285714285717" class="link"></path><path style="stroke-width: 2.14286; fill: none; stroke: rgb(144, 105, 191); stroke-opacity: 0.4;" d="M216.66666666666666,201.07142857142847C325,201.07142857142847 325,116.07142857142857 433.3333333333333,116.07142857142857" class="link"></path><path style="stroke-width: 2.14286; fill: none; stroke: rgb(159, 105, 191); stroke-opacity: 0.4;" d="M216.66666666666666,389.6428571428571C325,389.6428571428571 325,231.7857142857143 433.3333333333333,231.7857142857143" class="link"></path><path style="stroke-width: 2.14286; fill: none; stroke: rgb(174, 105, 191); stroke-opacity: 0.4;" d="M216.66666666666666,334.64285714285705C325,334.64285714285705 325,361.07142857142856 433.3333333333333,361.07142857142856" class="link"></path><path style="stroke-width: 2.14286; fill: none; stroke: rgb(188, 105, 191); stroke-opacity: 0.4;" d="M433.3333333333333,248.21428571428575C541.6666666666666,248.21428571428575 541.6666666666666,110.35714285714286 650,110.35714285714286" class="link"></path><path style="stroke-width: 2.14286; fill: none; stroke: rgb(191, 105, 178); stroke-opacity: 0.4;" d="M433.3333333333333,384.64285714285717C541.6666666666666,384.64285714285717 541.6666666666666,393.9285714285714 650,393.9285714285714" class="link"></path><path style="stroke-width: 2.14286; fill: none; stroke: rgb(191, 105, 164); stroke-opacity: 0.4;" d="M433.3333333333333,174.64285714285717C541.6666666666666,174.64285714285717 541.6666666666666,275.35714285714283 650,275.35714285714283" class="link"></path><path style="stroke-width: 2.14286; fill: none; stroke: rgb(191, 105, 134); stroke-opacity: 0.4;" d="M433.3333333333333,138.92857142857144C541.6666666666666,138.92857142857144 541.6666666666666,133.21428571428572 650,133.21428571428572" class="link"></path><path style="stroke-width: 2.14286; fill: none; stroke: rgb(191, 105, 120); stroke-opacity: 0.4;" d="M433.3333333333333,396.7857142857143C541.6666666666666,396.7857142857143 541.6666666666666,116.78571428571429 650,116.78571428571429" class="link"></path><path style="stroke-width: 2.14286; fill: none; stroke: rgb(191, 105, 120); stroke-opacity: 0.4;" d="M433.3333333333333,398.92857142857144C541.6666666666666,398.92857142857144 541.6666666666666,381.7857142857143 650,381.7857142857143" class="link"></path></g><g><g transform="translate(650,105)" class="node"><rect style="fill: rgb(102, 102, 102);" width="0" height="12.857142857142858"><title>1
6</title></rect><text style="font-size: 11px; font-family: Arial,Helvetica; pointer-events: none;" text-anchor="end" dy=".35em" y="6.428571428571429" x="-6">1</text></g><g transform="translate(650,127.85714285714286)" class="node"><rect style="fill: rgb(102, 102, 102);" width="0" height="47.14285714285714"><title>2
22</title></rect><text style="font-size: 11px; font-family: Arial,Helvetica; pointer-events: none;" text-anchor="end" dy=".35em" y="23.57142857142857" x="-6">2</text></g><g transform="translate(650,185)" class="node"><rect style="fill: rgb(102, 102, 102);" width="0" height="68.57142857142857"><title>3
32</title></rect><text style="font-size: 11px; font-family: Arial,Helvetica; pointer-events: none;" text-anchor="end" dy=".35em" y="34.285714285714285" x="-6">3</text></g><g transform="translate(650,263.57142857142856)" class="node"><rect style="fill: rgb(102, 102, 102);" width="0" height="70.71428571428571"><title>4
33</title></rect><text style="font-size: 11px; font-family: Arial,Helvetica; pointer-events: none;" text-anchor="end" dy=".35em" y="35.357142857142854" x="-6">4</text></g><g transform="translate(650,344.2857142857143)" class="node"><rect style="fill: rgb(102, 102, 102);" width="0" height="38.57142857142857"><title>5
18</title></rect><text style="font-size: 11px; font-family: Arial,Helvetica; pointer-events: none;" text-anchor="end" dy=".35em" y="19.285714285714285" x="-6">5</text></g><g transform="translate(650,392.85714285714283)" class="node"><rect style="fill: rgb(102, 102, 102);" width="0" height="2.142857142857143"><title>6
1</title></rect><text style="font-size: 11px; font-family: Arial,Helvetica; pointer-events: none;" text-anchor="end" dy=".35em" y="1.0714285714285714" x="-6">6</text></g><g transform="translate(433.3333333333333,100)" class="node"><rect style="" width="0" height="27.857142857142858"><title>
13</title></rect><text style="font-size: 11px; font-family: Arial,Helvetica; pointer-events: none;" text-anchor="end" dy=".35em" y="13.928571428571429" x="-6"></text></g><g transform="translate(433.3333333333333,137.85714285714286)" class="node"><rect style="" width="0" height="8.571428571428571"><title>because organic food doesn't help
4</title></rect><text style="font-size: 11px; font-family: Arial,Helvetica; pointer-events: none;" text-anchor="end" dy=".35em" y="4.285714285714286" x="-6">because organic food doesn't help</text></g><g transform="translate(433.3333333333333,156.42857142857144)" class="node"><rect style="" width="0" height="19.285714285714285"><title>environment protection
9</title></rect><text style="font-size: 11px; font-family: Arial,Helvetica; pointer-events: none;" text-anchor="end" dy=".35em" y="9.642857142857142" x="-6">environment protection</text></g><g transform="translate(433.3333333333333,185.71428571428572)" class="node"><rect style="" width="0" height="51.42857142857143"><title>health
24</title></rect><text style="font-size: 11px; font-family: Arial,Helvetica; pointer-events: none;" text-anchor="end" dy=".35em" y="25.714285714285715" x="-6">health</text></g><g transform="translate(433.3333333333333,247.14285714285717)" class="node"><rect style="" width="0" height="79.28571428571428"><title>industrial livestock farming
37</title></rect><text style="font-size: 11px; font-family: Arial,Helvetica; pointer-events: none;" text-anchor="end" dy=".35em" y="39.64285714285714" x="-6">industrial livestock farming</text></g><g transform="translate(433.3333333333333,336.42857142857144)" class="node"><rect style="" width="0" height="49.285714285714285"><title>wonderful animals
23</title></rect><text style="font-size: 11px; font-family: Arial,Helvetica; pointer-events: none;" text-anchor="end" dy=".35em" y="24.642857142857142" x="-6">wonderful animals</text></g><g transform="translate(433.3333333333333,395.7142857142857)" class="node"><rect style="" width="0" height="4.285714285714286"><title>world hunger
2</title></rect><text style="font-size: 11px; font-family: Arial,Helvetica; pointer-events: none;" text-anchor="end" dy=".35em" y="2.142857142857143" x="-6">world hunger</text></g><g transform="translate(0,125)" class="node"><rect style="" width="0" height="169.28571428571428"><title>female
79</title></rect><text style="font-size: 11px; font-family: Arial,Helvetica; pointer-events: none;" text-anchor="start" dy=".35em" y="84.64285714285714" x="6">female</text></g><g transform="translate(0,304.2857142857143)" class="node"><rect style="" width="0" height="70.71428571428571"><title>male
33</title></rect><text style="font-size: 11px; font-family: Arial,Helvetica; pointer-events: none;" text-anchor="start" dy=".35em" y="35.357142857142854" x="6">male</text></g><g transform="translate(216.66666666666666,-1.1368683772161603e-13)" class="node"><rect style="" width="0" height="32.14285714285714"><title>
15</title></rect><text style="font-size: 11px; font-family: Arial,Helvetica; pointer-events: none;" text-anchor="start" dy=".35em" y="16.07142857142857" x="6"></text></g><g transform="translate(216.66666666666666,42.142857142857025)" class="node"><rect style="" width="0" height="6.428571428571429"><title>0.5
3</title></rect><text style="font-size: 11px; font-family: Arial,Helvetica; pointer-events: none;" text-anchor="start" dy=".35em" y="3.2142857142857144" x="6">0.5</text></g><g transform="translate(216.66666666666666,58.571428571428456)" class="node"><rect style="" width="0" height="60"><title>1
28</title></rect><text style="font-size: 11px; font-family: Arial,Helvetica; pointer-events: none;" text-anchor="start" dy=".35em" y="30" x="6">1</text></g><g transform="translate(216.66666666666666,128.57142857142844)" class="node"><rect style="" width="0" height="2.142857142857143"><title>1.8
1</title></rect><text style="font-size: 11px; font-family: Arial,Helvetica; pointer-events: none;" text-anchor="start" dy=".35em" y="1.0714285714285714" x="6">1.8</text></g><g transform="translate(216.66666666666666,140.71428571428558)" class="node"><rect style="" width="0" height="2.142857142857143"><title>11
1</title></rect><text style="font-size: 11px; font-family: Arial,Helvetica; pointer-events: none;" text-anchor="start" dy=".35em" y="1.0714285714285714" x="6">11</text></g><g transform="translate(216.66666666666666,152.85714285714272)" class="node"><rect style="" width="0" height="6.428571428571429"><title>13
3</title></rect><text style="font-size: 11px; font-family: Arial,Helvetica; pointer-events: none;" text-anchor="start" dy=".35em" y="3.2142857142857144" x="6">13</text></g><g transform="translate(216.66666666666666,169.28571428571416)" class="node"><rect style="" width="0" height="6.428571428571429"><title>15
3</title></rect><text style="font-size: 11px; font-family: Arial,Helvetica; pointer-events: none;" text-anchor="start" dy=".35em" y="3.2142857142857144" x="6">15</text></g><g transform="translate(216.66666666666666,185.7142857142856)" class="node"><rect style="" width="0" height="4.285714285714286"><title>16
2</title></rect><text style="font-size: 11px; font-family: Arial,Helvetica; pointer-events: none;" text-anchor="start" dy=".35em" y="2.142857142857143" x="6">16</text></g><g transform="translate(216.66666666666666,199.9999999999999)" class="node"><rect style="" width="0" height="2.142857142857143"><title>18
1</title></rect><text style="font-size: 11px; font-family: Arial,Helvetica; pointer-events: none;" text-anchor="start" dy=".35em" y="1.0714285714285714" x="6">18</text></g><g transform="translate(216.66666666666666,212.14285714285703)" class="node"><rect style="" width="0" height="2.142857142857143"><title>19
1</title></rect><text style="font-size: 11px; font-family: Arial,Helvetica; pointer-events: none;" text-anchor="start" dy=".35em" y="1.0714285714285714" x="6">19</text></g><g transform="translate(216.66666666666666,224.28571428571416)" class="node"><rect style="" width="0" height="30"><title>2
14</title></rect><text style="font-size: 11px; font-family: Arial,Helvetica; pointer-events: none;" text-anchor="start" dy=".35em" y="15" x="6">2</text></g><g transform="translate(216.66666666666666,264.28571428571416)" class="node"><rect style="" width="0" height="2.142857142857143"><title>21
1</title></rect><text style="font-size: 11px; font-family: Arial,Helvetica; pointer-events: none;" text-anchor="start" dy=".35em" y="1.0714285714285714" x="6">21</text></g><g transform="translate(216.66666666666666,276.42857142857133)" class="node"><rect style="" width="0" height="4.285714285714286"><title>22
2</title></rect><text style="font-size: 11px; font-family: Arial,Helvetica; pointer-events: none;" text-anchor="start" dy=".35em" y="2.142857142857143" x="6">22</text></g><g transform="translate(216.66666666666666,290.7142857142856)" class="node"><rect style="" width="0" height="2.142857142857143"><title>23
1</title></rect><text style="font-size: 11px; font-family: Arial,Helvetica; pointer-events: none;" text-anchor="start" dy=".35em" y="1.0714285714285714" x="6">23</text></g><g transform="translate(216.66666666666666,302.8571428571428)" class="node"><rect style="" width="0" height="8.571428571428571"><title>24
4</title></rect><text style="font-size: 11px; font-family: Arial,Helvetica; pointer-events: none;" text-anchor="start" dy=".35em" y="4.285714285714286" x="6">24</text></g><g transform="translate(216.66666666666666,321.42857142857133)" class="node"><rect style="" width="0" height="2.142857142857143"><title>25
1</title></rect><text style="font-size: 11px; font-family: Arial,Helvetica; pointer-events: none;" text-anchor="start" dy=".35em" y="1.0714285714285714" x="6">25</text></g><g transform="translate(216.66666666666666,333.5714285714285)" class="node"><rect style="" width="0" height="2.142857142857143"><title>26
1</title></rect><text style="font-size: 11px; font-family: Arial,Helvetica; pointer-events: none;" text-anchor="start" dy=".35em" y="1.0714285714285714" x="6">26</text></g><g transform="translate(216.66666666666666,345.71428571428567)" class="node"><rect style="" width="0" height="2.142857142857143"><title>29
1</title></rect><text style="font-size: 11px; font-family: Arial,Helvetica; pointer-events: none;" text-anchor="start" dy=".35em" y="1.0714285714285714" x="6">29</text></g><g transform="translate(216.66666666666666,357.85714285714283)" class="node"><rect style="" width="0" height="8.571428571428571"><title>3
4</title></rect><text style="font-size: 11px; font-family: Arial,Helvetica; pointer-events: none;" text-anchor="start" dy=".35em" y="4.285714285714286" x="6">3</text></g><g transform="translate(216.66666666666666,376.4285714285714)" class="node"><rect style="" width="0" height="2.142857142857143"><title>33
1</title></rect><text style="font-size: 11px; font-family: Arial,Helvetica; pointer-events: none;" text-anchor="start" dy=".35em" y="1.0714285714285714" x="6">33</text></g><g transform="translate(216.66666666666666,388.57142857142856)" class="node"><rect style="" width="0" height="2.142857142857143"><title>36
1</title></rect><text style="font-size: 11px; font-family: Arial,Helvetica; pointer-events: none;" text-anchor="start" dy=".35em" y="1.0714285714285714" x="6">36</text></g><g transform="translate(216.66666666666666,400.7142857142857)" class="node"><rect style="" width="0" height="17.142857142857142"><title>4
8</title></rect><text style="font-size: 11px; font-family: Arial,Helvetica; pointer-events: none;" text-anchor="start" dy=".35em" y="8.571428571428571" x="6">4</text></g><g transform="translate(216.66666666666666,427.8571428571429)" class="node"><rect style="" width="0" height="17.142857142857142"><title>5
8</title></rect><text style="font-size: 11px; font-family: Arial,Helvetica; pointer-events: none;" text-anchor="start" dy=".35em" y="8.571428571428571" x="6">5</text></g><g transform="translate(216.66666666666666,455.00000000000006)" class="node"><rect style="" width="0" height="6.428571428571429"><title>6
3</title></rect><text style="font-size: 11px; font-family: Arial,Helvetica; pointer-events: none;" text-anchor="start" dy=".35em" y="3.2142857142857144" x="6">6</text></g><g transform="translate(216.66666666666666,471.4285714285715)" class="node"><rect style="" width="0" height="2.142857142857143"><title>7
1</title></rect><text style="font-size: 11px; font-family: Arial,Helvetica; pointer-events: none;" text-anchor="start" dy=".35em" y="1.0714285714285714" x="6">7</text></g><g transform="translate(216.66666666666666,483.57142857142867)" class="node"><rect style="" width="0" height="2.142857142857143"><title>8
1</title></rect><text style="font-size: 11px; font-family: Arial,Helvetica; pointer-events: none;" text-anchor="start" dy=".35em" y="1.0714285714285714" x="6">8</text></g><g transform="translate(216.66666666666666,495.71428571428584)" class="node"><rect style="" width="0" height="4.285714285714286"><title>9
2</title></rect><text style="font-size: 11px; font-family: Arial,Helvetica; pointer-events: none;" text-anchor="start" dy=".35em" y="2.142857142857143" x="6">9</text></g></g></g></svg>