<svg version="1.1" xmlns="http://www.w3.org/2000/svg" height="520" width="650"><g transform="translate(0,10)"><g><path style="stroke-width: 110; fill: none; stroke: rgb(254, 99, 113); stroke-opacity: 0.4;" d="M0,80C162.5,80 162.5,65 325,65" class="link"></path><path style="stroke-width: 98.2143; fill: none; stroke: rgb(254, 99, 113); stroke-opacity: 0.4;" d="M0,184.10714285714286C162.5,184.10714285714286 162.5,206.60714285714286 325,206.60714285714286" class="link"></path><path style="stroke-width: 70.7143; fill: none; stroke: rgb(254, 99, 113); stroke-opacity: 0.4;" d="M0,268.57142857142856C162.5,268.57142857142856 162.5,332.49999999999994 325,332.49999999999994" class="link"></path><path style="stroke-width: 62.8571; fill: none; stroke: rgb(130, 191, 105); stroke-opacity: 0.4;" d="M325,41.42857142857143C487.5,41.42857142857143 487.5,31.428571428571455 650,31.428571428571455" class="link"></path><path style="stroke-width: 51.0714; fill: none; stroke: rgb(130, 191, 105); stroke-opacity: 0.4;" d="M325,110.17857142857142C487.5,110.17857142857142 487.5,285.17857142857144 650,285.17857142857144" class="link"></path><path style="stroke-width: 35.3571; fill: none; stroke: rgb(105, 191, 154); stroke-opacity: 0.4;" d="M325,175.17857142857142C487.5,175.17857142857142 487.5,80.5357142857143 650,80.5357142857143" class="link"></path><path style="stroke-width: 35.3571; fill: none; stroke: rgb(105, 191, 154); stroke-opacity: 0.4;" d="M325,210.53571428571428C487.5,210.53571428571428 487.5,184.82142857142858 650,184.82142857142858" class="link"></path><path style="stroke-width: 35.3571; fill: none; stroke: rgb(105, 191, 154); stroke-opacity: 0.4;" d="M325,245.89285714285714C487.5,245.89285714285714 487.5,328.39285714285717 650,328.39285714285717" class="link"></path><path style="stroke-width: 35.3571; fill: none; stroke: rgb(105, 154, 191); stroke-opacity: 0.4;" d="M325,314.82142857142856C487.5,314.82142857142856 487.5,115.89285714285717 650,115.89285714285717" class="link"></path><path style="stroke-width: 31.4286; fill: none; stroke: rgb(16, 69, 132); stroke-opacity: 0.4;" d="M0,388.57142857142856C162.5,388.57142857142856 162.5,271.42857142857144 325,271.42857142857144" class="link"></path><path style="stroke-width: 31.4286; fill: none; stroke: rgb(16, 69, 132); stroke-opacity: 0.4;" d="M0,447.5C162.5,447.5 162.5,444.6428571428571 325,444.6428571428571" class="link"></path><path style="stroke-width: 31.4286; fill: none; stroke: rgb(105, 154, 191); stroke-opacity: 0.4;" d="M325,348.21428571428567C487.5,348.21428571428567 487.5,218.21428571428575 650,218.21428571428575" class="link"></path><path style="stroke-width: 31.4286; fill: none; stroke: rgb(130, 105, 191); stroke-opacity: 0.4;" d="M325,436.7857142857143C487.5,436.7857142857143 487.5,395.3571428571429 650,395.3571428571429" class="link"></path><path style="stroke-width: 27.5; fill: none; stroke: rgb(16, 69, 132); stroke-opacity: 0.4;" d="M0,418.0357142857143C162.5,418.0357142857143 162.5,381.60714285714283 325,381.60714285714283" class="link"></path><path style="stroke-width: 27.5; fill: none; stroke: rgb(16, 69, 132); stroke-opacity: 0.4;" d="M0,359.10714285714283C162.5,359.10714285714283 162.5,133.75 325,133.75" class="link"></path><path style="stroke-width: 23.5714; fill: none; stroke: rgb(254, 99, 113); stroke-opacity: 0.4;" d="M0,315.7142857142857C162.5,315.7142857142857 162.5,417.1428571428571 325,417.1428571428571" class="link"></path><path style="stroke-width: 11.7857; fill: none; stroke: rgb(16, 69, 132); stroke-opacity: 0.4;" d="M0,469.10714285714283C162.5,469.10714285714283 162.5,484.10714285714283 325,484.10714285714283" class="link"></path><path style="stroke-width: 11.7857; fill: none; stroke: rgb(130, 191, 105); stroke-opacity: 0.4;" d="M325,78.75C487.5,78.75 487.5,161.25000000000003 650,161.25000000000003" class="link"></path><path style="stroke-width: 11.7857; fill: none; stroke: rgb(105, 154, 191); stroke-opacity: 0.4;" d="M325,385.5357142857143C487.5,385.5357142857143 487.5,442.67857142857144 650,442.67857142857144" class="link"></path><path style="stroke-width: 11.7857; fill: none; stroke: rgb(105, 154, 191); stroke-opacity: 0.4;" d="M325,373.75C487.5,373.75 487.5,373.75 650,373.75" class="link"></path><path style="stroke-width: 11.7857; fill: none; stroke: rgb(130, 105, 191); stroke-opacity: 0.4;" d="M325,415.17857142857144C487.5,415.17857142857144 487.5,239.82142857142858 650,239.82142857142858" class="link"></path><path style="stroke-width: 7.85714; fill: none; stroke: rgb(254, 99, 113); stroke-opacity: 0.4;" d="M0,331.42857142857144C162.5,331.42857142857144 162.5,474.2857142857143 325,474.2857142857143" class="link"></path><path style="stroke-width: 7.85714; fill: none; stroke: rgb(130, 191, 105); stroke-opacity: 0.4;" d="M325,139.64285714285714C487.5,139.64285714285714 487.5,425 650,425" class="link"></path><path style="stroke-width: 7.85714; fill: none; stroke: rgb(105, 191, 154); stroke-opacity: 0.4;" d="M325,267.5C487.5,267.5 487.5,363.92857142857144 650,363.92857142857144" class="link"></path><path style="stroke-width: 7.85714; fill: none; stroke: rgb(105, 191, 154); stroke-opacity: 0.4;" d="M325,275.3571428571429C487.5,275.3571428571429 487.5,432.85714285714283 650,432.85714285714283" class="link"></path><path style="stroke-width: 7.85714; fill: none; stroke: rgb(130, 105, 191); stroke-opacity: 0.4;" d="M325,456.42857142857144C487.5,456.42857142857144 487.5,478.21428571428567 650,478.21428571428567" class="link"></path><path style="stroke-width: 7.85714; fill: none; stroke: rgb(191, 105, 179); stroke-opacity: 0.4;" d="M325,474.2857142857143C487.5,474.2857142857143 487.5,141.42857142857142 650,141.42857142857142" class="link"></path><path style="stroke-width: 7.85714; fill: none; stroke: rgb(191, 105, 179); stroke-opacity: 0.4;" d="M325,486.07142857142856C487.5,486.07142857142856 487.5,452.5 650,452.5" class="link"></path><path style="stroke-width: 3.92857; fill: none; stroke: rgb(130, 191, 105); stroke-opacity: 0.4;" d="M325,145.53571428571428C487.5,145.53571428571428 487.5,494.10714285714283 650,494.10714285714283" class="link"></path><path style="stroke-width: 3.92857; fill: none; stroke: rgb(105, 191, 154); stroke-opacity: 0.4;" d="M325,281.25C487.5,281.25 487.5,468.3928571428571 650,468.3928571428571" class="link"></path><path style="stroke-width: 3.92857; fill: none; stroke: rgb(105, 191, 154); stroke-opacity: 0.4;" d="M325,285.17857142857144C487.5,285.17857142857144 487.5,498.0357142857143 650,498.0357142857143" class="link"></path><path style="stroke-width: 3.92857; fill: none; stroke: rgb(105, 154, 191); stroke-opacity: 0.4;" d="M325,365.8928571428571C487.5,365.8928571428571 487.5,348.0357142857143 650,348.0357142857143" class="link"></path><path style="stroke-width: 3.92857; fill: none; stroke: rgb(105, 154, 191); stroke-opacity: 0.4;" d="M325,393.3928571428571C487.5,393.3928571428571 487.5,472.32142857142856 650,472.32142857142856" class="link"></path><path style="stroke-width: 3.92857; fill: none; stroke: rgb(130, 105, 191); stroke-opacity: 0.4;" d="M325,407.32142857142856C487.5,407.32142857142856 487.5,135.5357142857143 650,135.5357142857143" class="link"></path><path style="stroke-width: 3.92857; fill: none; stroke: rgb(191, 105, 179); stroke-opacity: 0.4;" d="M325,480.1785714285714C487.5,480.1785714285714 487.5,247.67857142857147 650,247.67857142857147" class="link"></path></g><g><g transform="translate(650,360)" class="node"><rect style="fill: rgb(102, 102, 102);" width="0" height="51.07142857142857"><title>
13</title></rect><text style="font-size: 11px; font-family: Arial,Helvetica; pointer-events: none;" text-anchor="end" dy=".35em" y="25.535714285714285" x="-6"></text></g><g transform="translate(650,466.4285714285714)" class="node"><rect style="fill: rgb(102, 102, 102);" width="0" height="15.714285714285714"><title>because organic food doesn't help
4</title></rect><text style="font-size: 11px; font-family: Arial,Helvetica; pointer-events: none;" text-anchor="end" dy=".35em" y="7.857142857142857" x="-6">because organic food doesn't help</text></g><g transform="translate(650,421.07142857142856)" class="node"><rect style="fill: rgb(102, 102, 102);" width="0" height="35.357142857142854"><title>environment protection
9</title></rect><text style="font-size: 11px; font-family: Arial,Helvetica; pointer-events: none;" text-anchor="end" dy=".35em" y="17.678571428571427" x="-6">environment protection</text></g><g transform="translate(650,155.3571428571429)" class="node"><rect style="fill: rgb(102, 102, 102);" width="0" height="94.28571428571428"><title>health
24</title></rect><text style="font-size: 11px; font-family: Arial,Helvetica; pointer-events: none;" text-anchor="end" dy=".35em" y="47.14285714285714" x="-6">health</text></g><g transform="translate(650,2.842170943040401e-14)" class="node"><rect style="fill: rgb(102, 102, 102);" width="0" height="145.35714285714286"><title>industrial livestock farming
37</title></rect><text style="font-size: 11px; font-family: Arial,Helvetica; pointer-events: none;" text-anchor="end" dy=".35em" y="72.67857142857143" x="-6">industrial livestock farming</text></g><g transform="translate(650,259.64285714285717)" class="node"><rect style="fill: rgb(102, 102, 102);" width="0" height="90.35714285714285"><title>wonderful animals
23</title></rect><text style="font-size: 11px; font-family: Arial,Helvetica; pointer-events: none;" text-anchor="end" dy=".35em" y="45.17857142857142" x="-6">wonderful animals</text></g><g transform="translate(650,492.1428571428571)" class="node"><rect style="fill: rgb(102, 102, 102);" width="0" height="7.857142857142857"><title>world hunger
2</title></rect><text style="font-size: 11px; font-family: Arial,Helvetica; pointer-events: none;" text-anchor="end" dy=".35em" y="3.9285714285714284" x="-6">world hunger</text></g><g transform="translate(0,25)" class="node"><rect style="" width="0" height="310.35714285714283"><title>female
79</title></rect><text style="font-size: 11px; font-family: Arial,Helvetica; pointer-events: none;" text-anchor="start" dy=".35em" y="155.17857142857142" x="6">female</text></g><g transform="translate(0,345.35714285714283)" class="node"><rect style="" width="0" height="129.64285714285714"><title>male
33</title></rect><text style="font-size: 11px; font-family: Arial,Helvetica; pointer-events: none;" text-anchor="start" dy=".35em" y="64.82142857142857" x="6">male</text></g><g transform="translate(325,405.35714285714283)" class="node"><rect style="" width="0" height="55"><title>all-eater
14</title></rect><text style="font-size: 11px; font-family: Arial,Helvetica; pointer-events: none;" text-anchor="end" dy=".35em" y="27.5" x="-6">all-eater</text></g><g transform="translate(325,297.1428571428571)" class="node"><rect style="" width="0" height="98.21428571428571"><title>all-eater, but eating less meat
25</title></rect><text style="font-size: 11px; font-family: Arial,Helvetica; pointer-events: none;" text-anchor="end" dy=".35em" y="49.107142857142854" x="-6">all-eater, but eating less meat</text></g><g transform="translate(325,470.35714285714283)" class="node"><rect style="" width="0" height="19.642857142857142"><title>pescetarian
5</title></rect><text style="font-size: 11px; font-family: Arial,Helvetica; pointer-events: none;" text-anchor="end" dy=".35em" y="9.821428571428571" x="-6">pescetarian</text></g><g transform="translate(325,157.5)" class="node"><rect style="" width="0" height="129.64285714285714"><title>vegan
33</title></rect><text style="font-size: 11px; font-family: Arial,Helvetica; pointer-events: none;" text-anchor="end" dy=".35em" y="64.82142857142857" x="-6">vegan</text></g><g transform="translate(325,10)" class="node"><rect style="" width="0" height="137.5"><title>vegetarian
35</title></rect><text style="font-size: 11px; font-family: Arial,Helvetica; pointer-events: none;" text-anchor="end" dy=".35em" y="68.75" x="-6">vegetarian</text></g></g></g></svg>