<svg version="1.1" xmlns="http://www.w3.org/2000/svg" height="520" width="650"><g transform="translate(0,10)"><g><path style="stroke-width: 112.5; fill: none; stroke: rgb(254, 99, 113); stroke-opacity: 0.4;" d="M0,76.24999999999997C108.33333333333333,76.24999999999997 108.33333333333333,61.25000000000001 216.66666666666666,61.25000000000001" class="link"></path><path style="stroke-width: 100.446; fill: none; stroke: rgb(254, 99, 113); stroke-opacity: 0.4;" d="M0,182.72321428571428C108.33333333333333,182.72321428571428 108.33333333333333,205.84821428571428 216.66666666666666,205.84821428571428" class="link"></path><path style="stroke-width: 76.3393; fill: none; stroke: rgb(105, 171, 191); stroke-opacity: 0.4;" d="M433.3333333333333,38.16964285714286C541.6666666666666,38.16964285714286 541.6666666666666,38.16964285714283 650,38.16964285714283" class="link"></path><path style="stroke-width: 76.3393; fill: none; stroke: rgb(105, 131, 191); stroke-opacity: 0.4;" d="M433.3333333333333,237.00892857142858C541.6666666666666,237.00892857142858 541.6666666666666,313.34821428571433 650,313.34821428571433" class="link"></path><path style="stroke-width: 72.3214; fill: none; stroke: rgb(254, 99, 113); stroke-opacity: 0.4;" d="M0,269.1071428571429C108.33333333333333,269.1071428571429 108.33333333333333,334.375 216.66666666666666,334.375" class="link"></path><path style="stroke-width: 64.2857; fill: none; stroke: rgb(191, 184, 105); stroke-opacity: 0.4;" d="M216.66666666666666,37.142857142857146C325,37.142857142857146 325,32.142857142857146 433.3333333333333,32.142857142857146" class="link"></path><path style="stroke-width: 64.2857; fill: none; stroke: rgb(105, 171, 191); stroke-opacity: 0.4;" d="M433.3333333333333,108.48214285714286C541.6666666666666,108.48214285714286 541.6666666666666,243.03571428571428 650,243.03571428571428" class="link"></path><path style="stroke-width: 44.1964; fill: none; stroke: rgb(158, 105, 191); stroke-opacity: 0.4;" d="M433.3333333333333,327.3660714285714C541.6666666666666,327.3660714285714 541.6666666666666,122.54464285714285 650,122.54464285714285" class="link"></path><path style="stroke-width: 40.1786; fill: none; stroke: rgb(118, 191, 105); stroke-opacity: 0.4;" d="M216.66666666666666,350.4464285714286C325,350.4464285714286 325,251.07142857142858 433.3333333333333,251.07142857142858" class="link"></path><path style="stroke-width: 40.1786; fill: none; stroke: rgb(118, 105, 191); stroke-opacity: 0.4;" d="M433.3333333333333,407.6785714285714C541.6666666666666,407.6785714285714 541.6666666666666,164.73214285714286 650,164.73214285714286" class="link"></path><path style="stroke-width: 36.1607; fill: none; stroke: rgb(158, 191, 105); stroke-opacity: 0.4;" d="M216.66666666666666,173.70535714285714C325,173.70535714285714 325,82.36607142857144 433.3333333333333,82.36607142857144" class="link"></path><path style="stroke-width: 36.1607; fill: none; stroke: rgb(158, 191, 105); stroke-opacity: 0.4;" d="M216.66666666666666,246.02678571428572C325,246.02678571428572 325,347.45535714285717 433.3333333333333,347.45535714285717" class="link"></path><path style="stroke-width: 36.1607; fill: none; stroke: rgb(158, 191, 105); stroke-opacity: 0.4;" d="M216.66666666666666,209.86607142857142C325,209.86607142857142 325,212.90178571428572 433.3333333333333,212.90178571428572" class="link"></path><path style="stroke-width: 32.1429; fill: none; stroke: rgb(16, 69, 132); stroke-opacity: 0.4;" d="M0,391.6071428571429C108.33333333333333,391.6071428571429 108.33333333333333,272.1428571428571 216.66666666666666,272.1428571428571" class="link"></path><path style="stroke-width: 32.1429; fill: none; stroke: rgb(16, 69, 132); stroke-opacity: 0.4;" d="M0,451.87500000000006C108.33333333333333,451.87500000000006 108.33333333333333,448.8392857142858 216.66666666666666,448.8392857142858" class="link"></path><path style="stroke-width: 32.1429; fill: none; stroke: rgb(118, 191, 105); stroke-opacity: 0.4;" d="M216.66666666666666,314.2857142857143C325,314.2857142857143 325,116.51785714285715 433.3333333333333,116.51785714285715" class="link"></path><path style="stroke-width: 28.125; fill: none; stroke: rgb(16, 69, 132); stroke-opacity: 0.4;" d="M0,421.7410714285715C108.33333333333333,421.7410714285715 108.33333333333333,384.59821428571433 216.66666666666666,384.59821428571433" class="link"></path><path style="stroke-width: 28.125; fill: none; stroke: rgb(16, 69, 132); stroke-opacity: 0.4;" d="M0,361.47321428571433C108.33333333333333,361.47321428571433 108.33333333333333,131.56250000000003 216.66666666666666,131.56250000000003" class="link"></path><path style="stroke-width: 24.1071; fill: none; stroke: rgb(254, 99, 113); stroke-opacity: 0.4;" d="M0,317.32142857142867C108.33333333333333,317.32142857142867 108.33333333333333,420.7142857142858 216.66666666666666,420.7142857142858" class="link"></path><path style="stroke-width: 24.1071; fill: none; stroke: rgb(191, 184, 105); stroke-opacity: 0.4;" d="M216.66666666666666,101.42857142857143C325,101.42857142857143 325,317.32142857142856 433.3333333333333,317.32142857142856" class="link"></path><path style="stroke-width: 24.1071; fill: none; stroke: rgb(105, 191, 131); stroke-opacity: 0.4;" d="M216.66666666666666,420.7142857142858C325,420.7142857142858 325,144.64285714285717 433.3333333333333,144.64285714285717" class="link"></path><path style="stroke-width: 24.1071; fill: none; stroke: rgb(105, 171, 191); stroke-opacity: 0.4;" d="M433.3333333333333,152.67857142857144C541.6666666666666,152.67857142857144 541.6666666666666,385.625 650,385.625" class="link"></path><path style="stroke-width: 24.1071; fill: none; stroke: rgb(105, 131, 191); stroke-opacity: 0.4;" d="M433.3333333333333,186.78571428571428C541.6666666666666,186.78571428571428 541.6666666666666,88.39285714285712 650,88.39285714285712" class="link"></path><path style="stroke-width: 20.0893; fill: none; stroke: rgb(191, 184, 105); stroke-opacity: 0.4;" d="M216.66666666666666,79.33035714285715C325,79.33035714285715 325,184.77678571428572 433.3333333333333,184.77678571428572" class="link"></path><path style="stroke-width: 20.0893; fill: none; stroke: rgb(105, 191, 131); stroke-opacity: 0.4;" d="M216.66666666666666,442.81250000000006C325,442.81250000000006 325,281.20535714285717 433.3333333333333,281.20535714285717" class="link"></path><path style="stroke-width: 16.0714; fill: none; stroke: rgb(191, 184, 105); stroke-opacity: 0.4;" d="M216.66666666666666,137.58928571428572C325,137.58928571428572 325,457.85714285714283 433.3333333333333,457.85714285714283" class="link"></path><path style="stroke-width: 16.0714; fill: none; stroke: rgb(191, 184, 105); stroke-opacity: 0.4;" d="M216.66666666666666,121.51785714285715C325,121.51785714285715 325,395.62499999999994 433.3333333333333,395.62499999999994" class="link"></path><path style="stroke-width: 16.0714; fill: none; stroke: rgb(118, 191, 105); stroke-opacity: 0.4;" d="M216.66666666666666,386.6071428571429C325,386.6071428571429 325,419.73214285714283 433.3333333333333,419.73214285714283" class="link"></path><path style="stroke-width: 12.0536; fill: none; stroke: rgb(16, 69, 132); stroke-opacity: 0.4;" d="M0,473.9732142857144C108.33333333333333,473.9732142857144 108.33333333333333,488.97321428571433 216.66666666666666,488.97321428571433" class="link"></path><path style="stroke-width: 12.0536; fill: none; stroke: rgb(105, 131, 191); stroke-opacity: 0.4;" d="M433.3333333333333,285.2232142857143C541.6666666666666,285.2232142857143 541.6666666666666,433.79464285714283 650,433.79464285714283" class="link"></path><path style="stroke-width: 8.03571; fill: none; stroke: rgb(254, 99, 113); stroke-opacity: 0.4;" d="M0,333.3928571428573C108.33333333333333,333.3928571428573 108.33333333333333,478.9285714285715 216.66666666666666,478.9285714285715" class="link"></path><path style="stroke-width: 8.03571; fill: none; stroke: rgb(158, 191, 105); stroke-opacity: 0.4;" d="M216.66666666666666,284.1964285714286C325,284.1964285714286 325,495.9821428571429 433.3333333333333,495.9821428571429" class="link"></path><path style="stroke-width: 8.03571; fill: none; stroke: rgb(158, 191, 105); stroke-opacity: 0.4;" d="M216.66666666666666,276.16071428571433C325,276.16071428571433 325,469.9107142857143 433.3333333333333,469.9107142857143" class="link"></path><path style="stroke-width: 8.03571; fill: none; stroke: rgb(158, 191, 105); stroke-opacity: 0.4;" d="M216.66666666666666,268.12500000000006C325,268.12500000000006 325,407.6785714285714 433.3333333333333,407.6785714285714" class="link"></path><path style="stroke-width: 8.03571; fill: none; stroke: rgb(118, 191, 105); stroke-opacity: 0.4;" d="M216.66666666666666,374.5535714285715C325,374.5535714285715 325,369.55357142857144 433.3333333333333,369.55357142857144" class="link"></path><path style="stroke-width: 8.03571; fill: none; stroke: rgb(105, 191, 131); stroke-opacity: 0.4;" d="M216.66666666666666,460.8928571428572C325,460.8928571428572 325,431.7857142857143 433.3333333333333,431.7857142857143" class="link"></path><path style="stroke-width: 8.03571; fill: none; stroke: rgb(105, 191, 171); stroke-opacity: 0.4;" d="M216.66666666666666,478.9285714285715C325,478.9285714285715 325,160.71428571428572 433.3333333333333,160.71428571428572" class="link"></path><path style="stroke-width: 8.03571; fill: none; stroke: rgb(118, 105, 191); stroke-opacity: 0.4;" d="M433.3333333333333,431.7857142857143C541.6666666666666,431.7857142857143 541.6666666666666,409.7321428571429 650,409.7321428571429" class="link"></path><path style="stroke-width: 8.03571; fill: none; stroke: rgb(158, 105, 191); stroke-opacity: 0.4;" d="M433.3333333333333,361.51785714285717C541.6666666666666,361.51785714285717 541.6666666666666,443.8392857142857 650,443.8392857142857" class="link"></path><path style="stroke-width: 8.03571; fill: none; stroke: rgb(158, 105, 191); stroke-opacity: 0.4;" d="M433.3333333333333,369.55357142857144C541.6666666666666,369.55357142857144 541.6666666666666,469.9107142857143 650,469.9107142857143" class="link"></path><path style="stroke-width: 8.03571; fill: none; stroke: rgb(191, 105, 184); stroke-opacity: 0.4;" d="M433.3333333333333,495.9821428571429C541.6666666666666,495.9821428571429 541.6666666666666,196.875 650,196.875" class="link"></path><path style="stroke-width: 8.03571; fill: none; stroke: rgb(191, 105, 145); stroke-opacity: 0.4;" d="M433.3333333333333,473.92857142857144C541.6666666666666,473.92857142857144 541.6666666666666,451.875 650,451.875" class="link"></path><path style="stroke-width: 8.03571; fill: none; stroke: rgb(191, 105, 145); stroke-opacity: 0.4;" d="M433.3333333333333,453.8392857142857C541.6666666666666,453.8392857142857 541.6666666666666,188.83928571428572 650,188.83928571428572" class="link"></path><path style="stroke-width: 8.03571; fill: none; stroke: rgb(191, 105, 145); stroke-opacity: 0.4;" d="M433.3333333333333,461.875C541.6666666666666,461.875 541.6666666666666,359.55357142857144 650,359.55357142857144" class="link"></path><path style="stroke-width: 4.01786; fill: none; stroke: rgb(118, 191, 105); stroke-opacity: 0.4;" d="M216.66666666666666,396.6517857142857C325,396.6517857142857 325,475.9375 433.3333333333333,475.9375" class="link"></path><path style="stroke-width: 4.01786; fill: none; stroke: rgb(105, 191, 131); stroke-opacity: 0.4;" d="M216.66666666666666,454.86607142857144C325,454.86607142857144 325,375.5803571428571 433.3333333333333,375.5803571428571" class="link"></path><path style="stroke-width: 4.01786; fill: none; stroke: rgb(105, 191, 171); stroke-opacity: 0.4;" d="M216.66666666666666,488.97321428571433C325,488.97321428571433 325,437.81249999999994 433.3333333333333,437.81249999999994" class="link"></path><path style="stroke-width: 4.01786; fill: none; stroke: rgb(105, 191, 171); stroke-opacity: 0.4;" d="M216.66666666666666,492.99107142857144C325,492.99107142857144 325,479.9553571428571 433.3333333333333,479.9553571428571" class="link"></path><path style="stroke-width: 4.01786; fill: none; stroke: rgb(105, 191, 171); stroke-opacity: 0.4;" d="M216.66666666666666,484.95535714285717C325,484.95535714285717 325,293.25892857142856 433.3333333333333,293.25892857142856" class="link"></path><path style="stroke-width: 4.01786; fill: none; stroke: rgb(105, 131, 191); stroke-opacity: 0.4;" d="M433.3333333333333,293.25892857142856C541.6666666666666,293.25892857142856 541.6666666666666,489.9553571428571 650,489.9553571428571" class="link"></path><path style="stroke-width: 4.01786; fill: none; stroke: rgb(105, 131, 191); stroke-opacity: 0.4;" d="M433.3333333333333,277.1875C541.6666666666666,277.1875 541.6666666666666,399.6875 650,399.6875" class="link"></path><path style="stroke-width: 4.01786; fill: none; stroke: rgb(118, 105, 191); stroke-opacity: 0.4;" d="M433.3333333333333,437.81249999999994C541.6666666666666,437.81249999999994 541.6666666666666,497.9910714285714 650,497.9910714285714" class="link"></path><path style="stroke-width: 4.01786; fill: none; stroke: rgb(158, 105, 191); stroke-opacity: 0.4;" d="M433.3333333333333,351.4732142857142C541.6666666666666,351.4732142857142 541.6666666666666,353.52678571428567 650,353.52678571428567" class="link"></path><path style="stroke-width: 4.01786; fill: none; stroke: rgb(158, 105, 191); stroke-opacity: 0.4;" d="M433.3333333333333,355.4910714285714C541.6666666666666,355.4910714285714 541.6666666666666,403.7053571428571 650,403.7053571428571" class="link"></path><path style="stroke-width: 4.01786; fill: none; stroke: rgb(158, 105, 191); stroke-opacity: 0.4;" d="M433.3333333333333,375.5803571428571C541.6666666666666,375.5803571428571 541.6666666666666,493.9732142857143 650,493.9732142857143" class="link"></path><path style="stroke-width: 4.01786; fill: none; stroke: rgb(191, 105, 145); stroke-opacity: 0.4;" d="M433.3333333333333,467.90178571428567C541.6666666666666,467.90178571428567 541.6666666666666,415.75892857142856 650,415.75892857142856" class="link"></path><path style="stroke-width: 4.01786; fill: none; stroke: rgb(191, 105, 145); stroke-opacity: 0.4;" d="M433.3333333333333,479.9553571428571C541.6666666666666,479.9553571428571 541.6666666666666,475.93749999999994 650,475.93749999999994" class="link"></path></g><g><g transform="translate(433.3333333333333,387.58928571428567)" class="node"><rect style="" width="0" height="52.23214285714286"><title>advanced technical college entrance
13</title></rect><text style="font-size: 11px; font-family: Arial,Helvetica; pointer-events: none;" text-anchor="end" dy=".35em" y="26.11607142857143" x="-6">advanced technical college entrance</text></g><g transform="translate(433.3333333333333,491.9642857142857)" class="node"><rect style="" width="0" height="8.035714285714286"><title>certificate of secondary education
2</title></rect><text style="font-size: 11px; font-family: Arial,Helvetica; pointer-events: none;" text-anchor="end" dy=".35em" y="4.017857142857143" x="-6">certificate of secondary education</text></g><g transform="translate(433.3333333333333,449.82142857142856)" class="node"><rect style="" width="0" height="32.142857142857146"><title>general  certificate of secondary education 
8</title></rect><text style="font-size: 11px; font-family: Arial,Helvetica; pointer-events: none;" text-anchor="end" dy=".35em" y="16.071428571428573" x="-6">general  certificate of secondary education </text></g><g transform="translate(433.3333333333333,0)" class="node"><rect style="" width="0" height="164.73214285714286"><title>university
41</title></rect><text style="font-size: 11px; font-family: Arial,Helvetica; pointer-events: none;" text-anchor="end" dy=".35em" y="82.36607142857143" x="-6">university</text></g><g transform="translate(433.3333333333333,174.73214285714286)" class="node"><rect style="" width="0" height="120.53571428571429"><title>university-entrance diploma
30</title></rect><text style="font-size: 11px; font-family: Arial,Helvetica; pointer-events: none;" text-anchor="end" dy=".35em" y="60.267857142857146" x="-6">university-entrance diploma</text></g><g transform="translate(433.3333333333333,305.2678571428571)" class="node"><rect style="" width="0" height="72.32142857142858"><title>vocational training
18</title></rect><text style="font-size: 11px; font-family: Arial,Helvetica; pointer-events: none;" text-anchor="end" dy=".35em" y="36.16071428571429" x="-6">vocational training</text></g><g transform="translate(0,19.99999999999997)" class="node"><rect style="" width="0" height="317.41071428571433"><title>female
79</title></rect><text style="font-size: 11px; font-family: Arial,Helvetica; pointer-events: none;" text-anchor="start" dy=".35em" y="158.70535714285717" x="6">female</text></g><g transform="translate(0,347.41071428571433)" class="node"><rect style="" width="0" height="132.58928571428572"><title>male
33</title></rect><text style="font-size: 11px; font-family: Arial,Helvetica; pointer-events: none;" text-anchor="start" dy=".35em" y="66.29464285714286" x="6">male</text></g><g transform="translate(650,-2.842170943040401e-14)" class="node"><rect style="fill: rgb(102, 102, 102);" width="0" height="200.89285714285717"><title>employed
50</title></rect><text style="font-size: 11px; font-family: Arial,Helvetica; pointer-events: none;" text-anchor="end" dy=".35em" y="100.44642857142858" x="-6">employed</text></g><g transform="translate(650,427.7678571428571)" class="node"><rect style="fill: rgb(102, 102, 102);" width="0" height="28.125000000000004"><title>pupil
7</title></rect><text style="font-size: 11px; font-family: Arial,Helvetica; pointer-events: none;" text-anchor="end" dy=".35em" y="14.062500000000002" x="-6">pupil</text></g><g transform="translate(650,465.8928571428571)" class="node"><rect style="fill: rgb(102, 102, 102);" width="0" height="12.05357142857143"><title>seeking work
3</title></rect><text style="font-size: 11px; font-family: Arial,Helvetica; pointer-events: none;" text-anchor="end" dy=".35em" y="6.026785714285715" x="-6">seeking work</text></g><g transform="translate(650,373.57142857142856)" class="node"><rect style="fill: rgb(102, 102, 102);" width="0" height="44.19642857142858"><title>self-employed
11</title></rect><text style="font-size: 11px; font-family: Arial,Helvetica; pointer-events: none;" text-anchor="end" dy=".35em" y="22.09821428571429" x="-6">self-employed</text></g><g transform="translate(650,210.89285714285714)" class="node"><rect style="fill: rgb(102, 102, 102);" width="0" height="152.67857142857144"><title>student
38</title></rect><text style="font-size: 11px; font-family: Arial,Helvetica; pointer-events: none;" text-anchor="end" dy=".35em" y="76.33928571428572" x="-6">student</text></g><g transform="translate(650,487.94642857142856)" class="node"><rect style="fill: rgb(102, 102, 102);" width="0" height="12.05357142857143"><title>vocational training
3</title></rect><text style="font-size: 11px; font-family: Arial,Helvetica; pointer-events: none;" text-anchor="end" dy=".35em" y="6.026785714285715" x="-6">vocational training</text></g><g transform="translate(216.66666666666666,408.66071428571433)" class="node"><rect style="" width="0" height="56.25000000000001"><title>all-eater
14</title></rect><text style="font-size: 11px; font-family: Arial,Helvetica; pointer-events: none;" text-anchor="start" dy=".35em" y="28.125000000000004" x="6">all-eater</text></g><g transform="translate(216.66666666666666,298.2142857142857)" class="node"><rect style="" width="0" height="100.44642857142858"><title>all-eater, but eating less meat
25</title></rect><text style="font-size: 11px; font-family: Arial,Helvetica; pointer-events: none;" text-anchor="start" dy=".35em" y="50.22321428571429" x="6">all-eater, but eating less meat</text></g><g transform="translate(216.66666666666666,474.91071428571433)" class="node"><rect style="" width="0" height="20.089285714285715"><title>pescetarian
5</title></rect><text style="font-size: 11px; font-family: Arial,Helvetica; pointer-events: none;" text-anchor="start" dy=".35em" y="10.044642857142858" x="6">pescetarian</text></g><g transform="translate(216.66666666666666,155.625)" class="node"><rect style="" width="0" height="132.58928571428572"><title>vegan
33</title></rect><text style="font-size: 11px; font-family: Arial,Helvetica; pointer-events: none;" text-anchor="start" dy=".35em" y="66.29464285714286" x="6">vegan</text></g><g transform="translate(216.66666666666666,5)" class="node"><rect style="" width="0" height="140.625"><title>vegetarian
35</title></rect><text style="font-size: 11px; font-family: Arial,Helvetica; pointer-events: none;" text-anchor="start" dy=".35em" y="70.3125" x="6">vegetarian</text></g></g></g></svg>