<svg version="1.1" xmlns="http://www.w3.org/2000/svg" height="520" width="650"><g transform="translate(0,10)"><g><path style="stroke-width: 168.75; fill: none; stroke: rgb(105, 171, 191); stroke-opacity: 0.4;" d="M433.3333333333333,84.37499999999999C541.6666666666666,84.37499999999999 541.6666666666666,84.37499999999999 650,84.37499999999999" class="link"></path><path style="stroke-width: 136.607; fill: none; stroke: rgb(105, 171, 191); stroke-opacity: 0.4;" d="M433.3333333333333,237.05357142857144C541.6666666666666,237.05357142857144 541.6666666666666,267.1428571428571 650,267.1428571428571" class="link"></path><path style="stroke-width: 120.536; fill: none; stroke: rgb(158, 191, 105); stroke-opacity: 0.4;" d="M216.66666666666666,215.89285714285714C325,215.89285714285714 325,168.74999999999997 433.3333333333333,168.74999999999997" class="link"></path><path style="stroke-width: 112.5; fill: none; stroke: rgb(254, 99, 113); stroke-opacity: 0.4;" d="M0,76.24999999999997C108.33333333333333,76.24999999999997 108.33333333333333,61.25000000000001 216.66666666666666,61.25000000000001" class="link"></path><path style="stroke-width: 108.482; fill: none; stroke: rgb(191, 184, 105); stroke-opacity: 0.4;" d="M216.66666666666666,59.24107142857143C325,59.24107142857143 325,54.2410714285714 433.3333333333333,54.2410714285714" class="link"></path><path style="stroke-width: 100.446; fill: none; stroke: rgb(254, 99, 113); stroke-opacity: 0.4;" d="M0,182.72321428571428C108.33333333333333,182.72321428571428 108.33333333333333,205.84821428571428 216.66666666666666,205.84821428571428" class="link"></path><path style="stroke-width: 76.3393; fill: none; stroke: rgb(118, 191, 105); stroke-opacity: 0.4;" d="M216.66666666666666,336.38392857142856C325,336.38392857142856 325,267.1875 433.3333333333333,267.1875" class="link"></path><path style="stroke-width: 72.3214; fill: none; stroke: rgb(254, 99, 113); stroke-opacity: 0.4;" d="M0,269.1071428571429C108.33333333333333,269.1071428571429 108.33333333333333,334.375 216.66666666666666,334.375" class="link"></path><path style="stroke-width: 52.2321; fill: none; stroke: rgb(105, 171, 191); stroke-opacity: 0.4;" d="M433.3333333333333,331.47321428571433C541.6666666666666,331.47321428571433 541.6666666666666,399.6875 650,399.6875" class="link"></path><path style="stroke-width: 40.1786; fill: none; stroke: rgb(105, 191, 131); stroke-opacity: 0.4;" d="M216.66666666666666,428.75000000000006C325,428.75000000000006 325,325.4464285714286 433.3333333333333,325.4464285714286" class="link"></path><path style="stroke-width: 32.1429; fill: none; stroke: rgb(16, 69, 132); stroke-opacity: 0.4;" d="M0,391.6071428571429C108.33333333333333,391.6071428571429 108.33333333333333,272.1428571428571 216.66666666666666,272.1428571428571" class="link"></path><path style="stroke-width: 32.1429; fill: none; stroke: rgb(16, 69, 132); stroke-opacity: 0.4;" d="M0,451.87500000000006C108.33333333333333,451.87500000000006 108.33333333333333,448.8392857142858 216.66666666666666,448.8392857142858" class="link"></path><path style="stroke-width: 28.125; fill: none; stroke: rgb(16, 69, 132); stroke-opacity: 0.4;" d="M0,421.7410714285715C108.33333333333333,421.7410714285715 108.33333333333333,384.59821428571433 216.66666666666666,384.59821428571433" class="link"></path><path style="stroke-width: 28.125; fill: none; stroke: rgb(16, 69, 132); stroke-opacity: 0.4;" d="M0,361.47321428571433C108.33333333333333,361.47321428571433 108.33333333333333,131.56250000000003 216.66666666666666,131.56250000000003" class="link"></path><path style="stroke-width: 24.1071; fill: none; stroke: rgb(254, 99, 113); stroke-opacity: 0.4;" d="M0,317.32142857142867C108.33333333333333,317.32142857142867 108.33333333333333,420.7142857142858 216.66666666666666,420.7142857142858" class="link"></path><path style="stroke-width: 20.0893; fill: none; stroke: rgb(105, 191, 171); stroke-opacity: 0.4;" d="M216.66666666666666,484.95535714285717C325,484.95535714285717 325,355.58035714285717 433.3333333333333,355.58035714285717" class="link"></path><path style="stroke-width: 16.0714; fill: none; stroke: rgb(191, 184, 105); stroke-opacity: 0.4;" d="M216.66666666666666,125.53571428571429C325,125.53571428571429 325,413.75 433.3333333333333,413.75" class="link"></path><path style="stroke-width: 16.0714; fill: none; stroke: rgb(118, 105, 191); stroke-opacity: 0.4;" d="M433.3333333333333,383.6607142857143C541.6666666666666,383.6607142857143 541.6666666666666,343.48214285714283 650,343.48214285714283" class="link"></path><path style="stroke-width: 12.0536; fill: none; stroke: rgb(16, 69, 132); stroke-opacity: 0.4;" d="M0,473.9732142857144C108.33333333333333,473.9732142857144 108.33333333333333,488.97321428571433 216.66666666666666,488.97321428571433" class="link"></path><path style="stroke-width: 8.03571; fill: none; stroke: rgb(254, 99, 113); stroke-opacity: 0.4;" d="M0,333.3928571428573C108.33333333333333,333.3928571428573 108.33333333333333,478.9285714285715 216.66666666666666,478.9285714285715" class="link"></path><path style="stroke-width: 8.03571; fill: none; stroke: rgb(191, 184, 105); stroke-opacity: 0.4;" d="M216.66666666666666,137.58928571428572C325,137.58928571428572 325,439.8214285714286 433.3333333333333,439.8214285714286" class="link"></path><path style="stroke-width: 8.03571; fill: none; stroke: rgb(118, 191, 105); stroke-opacity: 0.4;" d="M216.66666666666666,394.64285714285717C325,394.64285714285717 325,495.9821428571429 433.3333333333333,495.9821428571429" class="link"></path><path style="stroke-width: 8.03571; fill: none; stroke: rgb(105, 191, 131); stroke-opacity: 0.4;" d="M216.66666666666666,452.85714285714295C325,452.85714285714295 325,391.6964285714286 433.3333333333333,391.6964285714286" class="link"></path><path style="stroke-width: 8.03571; fill: none; stroke: rgb(191, 105, 184); stroke-opacity: 0.4;" d="M433.3333333333333,439.8214285714286C541.6666666666666,439.8214285714286 541.6666666666666,176.78571428571428 650,176.78571428571428" class="link"></path><path style="stroke-width: 4.01786; fill: none; stroke: rgb(191, 184, 105); stroke-opacity: 0.4;" d="M216.66666666666666,115.49107142857143C325,115.49107142857143 325,377.63392857142856 433.3333333333333,377.63392857142856" class="link"></path><path style="stroke-width: 4.01786; fill: none; stroke: rgb(191, 184, 105); stroke-opacity: 0.4;" d="M216.66666666666666,143.61607142857144C325,143.61607142857144 325,463.88392857142856 433.3333333333333,463.88392857142856" class="link"></path><path style="stroke-width: 4.01786; fill: none; stroke: rgb(158, 191, 105); stroke-opacity: 0.4;" d="M216.66666666666666,286.2053571428571C325,286.2053571428571 325,489.9553571428571 433.3333333333333,489.9553571428571" class="link"></path><path style="stroke-width: 4.01786; fill: none; stroke: rgb(158, 191, 105); stroke-opacity: 0.4;" d="M216.66666666666666,278.16964285714283C325,278.16964285714283 325,381.6517857142857 433.3333333333333,381.6517857142857" class="link"></path><path style="stroke-width: 4.01786; fill: none; stroke: rgb(158, 191, 105); stroke-opacity: 0.4;" d="M216.66666666666666,282.1875C325,282.1875 325,467.9017857142857 433.3333333333333,467.9017857142857" class="link"></path><path style="stroke-width: 4.01786; fill: none; stroke: rgb(118, 191, 105); stroke-opacity: 0.4;" d="M216.66666666666666,380.5803571428571C325,380.5803571428571 325,423.79464285714283 433.3333333333333,423.79464285714283" class="link"></path><path style="stroke-width: 4.01786; fill: none; stroke: rgb(118, 191, 105); stroke-opacity: 0.4;" d="M216.66666666666666,384.5982142857143C325,384.5982142857143 325,445.8482142857143 433.3333333333333,445.8482142857143" class="link"></path><path style="stroke-width: 4.01786; fill: none; stroke: rgb(118, 191, 105); stroke-opacity: 0.4;" d="M216.66666666666666,388.61607142857144C325,388.61607142857144 325,471.91964285714283 433.3333333333333,471.91964285714283" class="link"></path><path style="stroke-width: 4.01786; fill: none; stroke: rgb(118, 191, 105); stroke-opacity: 0.4;" d="M216.66666666666666,376.5625C325,376.5625 325,385.66964285714283 433.3333333333333,385.66964285714283" class="link"></path><path style="stroke-width: 4.01786; fill: none; stroke: rgb(105, 191, 131); stroke-opacity: 0.4;" d="M216.66666666666666,462.9017857142858C325,462.9017857142858 325,475.9375 433.3333333333333,475.9375" class="link"></path><path style="stroke-width: 4.01786; fill: none; stroke: rgb(105, 191, 131); stroke-opacity: 0.4;" d="M216.66666666666666,458.8839285714286C325,458.8839285714286 325,449.86607142857144 433.3333333333333,449.86607142857144" class="link"></path><path style="stroke-width: 4.01786; fill: none; stroke: rgb(105, 171, 191); stroke-opacity: 0.4;" d="M433.3333333333333,359.59821428571433C541.6666666666666,359.59821428571433 541.6666666666666,457.90178571428567 650,457.90178571428567" class="link"></path><path style="stroke-width: 4.01786; fill: none; stroke: rgb(105, 171, 191); stroke-opacity: 0.4;" d="M433.3333333333333,363.61607142857144C541.6666666666666,363.61607142857144 541.6666666666666,479.9553571428571 650,479.9553571428571" class="link"></path><path style="stroke-width: 4.01786; fill: none; stroke: rgb(105, 131, 191); stroke-opacity: 0.4;" d="M433.3333333333333,467.9017857142857C541.6666666666666,467.9017857142857 541.6666666666666,439.8660714285714 650,439.8660714285714" class="link"></path><path style="stroke-width: 4.01786; fill: none; stroke: rgb(105, 131, 191); stroke-opacity: 0.4;" d="M433.3333333333333,471.91964285714283C541.6666666666666,471.91964285714283 541.6666666666666,465.93749999999994 650,465.93749999999994" class="link"></path><path style="stroke-width: 4.01786; fill: none; stroke: rgb(105, 131, 191); stroke-opacity: 0.4;" d="M433.3333333333333,463.88392857142856C541.6666666666666,463.88392857142856 541.6666666666666,182.8125 650,182.8125" class="link"></path><path style="stroke-width: 4.01786; fill: none; stroke: rgb(105, 131, 191); stroke-opacity: 0.4;" d="M433.3333333333333,475.9375C541.6666666666666,475.9375 541.6666666666666,483.9732142857143 650,483.9732142857143" class="link"></path><path style="stroke-width: 4.01786; fill: none; stroke: rgb(118, 105, 191); stroke-opacity: 0.4;" d="M433.3333333333333,393.7053571428571C541.6666666666666,393.7053571428571 541.6666666666666,427.8125 650,427.8125" class="link"></path><path style="stroke-width: 4.01786; fill: none; stroke: rgb(158, 105, 191); stroke-opacity: 0.4;" d="M433.3333333333333,419.7767857142857C541.6666666666666,419.7767857142857 541.6666666666666,461.91964285714283 650,461.91964285714283" class="link"></path><path style="stroke-width: 4.01786; fill: none; stroke: rgb(158, 105, 191); stroke-opacity: 0.4;" d="M433.3333333333333,407.7232142857143C541.6666666666666,407.7232142857143 541.6666666666666,170.75892857142858 650,170.75892857142858" class="link"></path><path style="stroke-width: 4.01786; fill: none; stroke: rgb(158, 105, 191); stroke-opacity: 0.4;" d="M433.3333333333333,415.75892857142856C541.6666666666666,415.75892857142856 541.6666666666666,431.8303571428571 650,431.8303571428571" class="link"></path><path style="stroke-width: 4.01786; fill: none; stroke: rgb(158, 105, 191); stroke-opacity: 0.4;" d="M433.3333333333333,423.79464285714283C541.6666666666666,423.79464285714283 541.6666666666666,497.9910714285714 650,497.9910714285714" class="link"></path><path style="stroke-width: 4.01786; fill: none; stroke: rgb(158, 105, 191); stroke-opacity: 0.4;" d="M433.3333333333333,411.74107142857144C541.6666666666666,411.74107142857144 541.6666666666666,353.52678571428567 650,353.52678571428567" class="link"></path><path style="stroke-width: 4.01786; fill: none; stroke: rgb(191, 105, 184); stroke-opacity: 0.4;" d="M433.3333333333333,449.86607142857144C541.6666666666666,449.86607142857144 541.6666666666666,435.8482142857143 650,435.8482142857143" class="link"></path><path style="stroke-width: 4.01786; fill: none; stroke: rgb(191, 105, 184); stroke-opacity: 0.4;" d="M433.3333333333333,445.8482142857143C541.6666666666666,445.8482142857143 541.6666666666666,357.54464285714283 650,357.54464285714283" class="link"></path><path style="stroke-width: 4.01786; fill: none; stroke: rgb(191, 105, 145); stroke-opacity: 0.4;" d="M433.3333333333333,497.9910714285714C541.6666666666666,497.9910714285714 541.6666666666666,443.88392857142856 650,443.88392857142856" class="link"></path><path style="stroke-width: 4.01786; fill: none; stroke: rgb(191, 105, 145); stroke-opacity: 0.4;" d="M433.3333333333333,493.9732142857143C541.6666666666666,493.9732142857143 541.6666666666666,361.5625 650,361.5625" class="link"></path><path style="stroke-width: 4.01786; fill: none; stroke: rgb(191, 105, 145); stroke-opacity: 0.4;" d="M433.3333333333333,489.9553571428571C541.6666666666666,489.9553571428571 541.6666666666666,186.83035714285714 650,186.83035714285714" class="link"></path></g><g><g transform="translate(0,19.99999999999997)" class="node"><rect style="" width="0" height="317.41071428571433"><title>female
79</title></rect><text style="font-size: 11px; font-family: Arial,Helvetica; pointer-events: none;" text-anchor="start" dy=".35em" y="158.70535714285717" x="6">female</text></g><g transform="translate(0,347.41071428571433)" class="node"><rect style="" width="0" height="132.58928571428572"><title>male
33</title></rect><text style="font-size: 11px; font-family: Arial,Helvetica; pointer-events: none;" text-anchor="start" dy=".35em" y="66.29464285714286" x="6">male</text></g><g transform="translate(650,455.8928571428571)" class="node"><rect style="fill: rgb(102, 102, 102);" width="0" height="12.05357142857143"><title>
3</title></rect><text style="font-size: 11px; font-family: Arial,Helvetica; pointer-events: none;" text-anchor="end" dy=".35em" y="6.026785714285715" x="-6"></text></g><g transform="translate(650,-2.842170943040401e-14)" class="node"><rect style="fill: rgb(102, 102, 102);" width="0" height="188.83928571428572"><title>everyday
47</title></rect><text style="font-size: 11px; font-family: Arial,Helvetica; pointer-events: none;" text-anchor="end" dy=".35em" y="94.41964285714286" x="-6">everyday</text></g><g transform="translate(650,477.94642857142856)" class="node"><rect style="fill: rgb(102, 102, 102);" width="0" height="8.035714285714286"><title>never
2</title></rect><text style="font-size: 11px; font-family: Arial,Helvetica; pointer-events: none;" text-anchor="end" dy=".35em" y="4.017857142857143" x="-6">never</text></g><g transform="translate(650,373.57142857142856)" class="node"><rect style="fill: rgb(102, 102, 102);" width="0" height="72.32142857142858"><title>seldom
18</title></rect><text style="font-size: 11px; font-family: Arial,Helvetica; pointer-events: none;" text-anchor="end" dy=".35em" y="36.16071428571429" x="-6">seldom</text></g><g transform="translate(650,198.8392857142857)" class="node"><rect style="fill: rgb(102, 102, 102);" width="0" height="164.73214285714286"><title>sometimes
41</title></rect><text style="font-size: 11px; font-family: Arial,Helvetica; pointer-events: none;" text-anchor="end" dy=".35em" y="82.36607142857143" x="-6">sometimes</text></g><g transform="translate(650,495.98214285714283)" class="node"><rect style="fill: rgb(102, 102, 102);" width="0" height="4.017857142857143"><title>sometimes (3-5)
1</title></rect><text style="font-size: 11px; font-family: Arial,Helvetica; pointer-events: none;" text-anchor="end" dy=".35em" y="2.0089285714285716" x="-6">sometimes (3-5)</text></g><g transform="translate(433.3333333333333,375.625)" class="node"><rect style="" width="0" height="20.089285714285715"><title>
5</title></rect><text style="font-size: 11px; font-family: Arial,Helvetica; pointer-events: none;" text-anchor="end" dy=".35em" y="10.044642857142858" x="-6"></text></g><g transform="translate(433.3333333333333,435.80357142857144)" class="node"><rect style="" width="0" height="16.071428571428573"><title>cafeteria/ canteen
4</title></rect><text style="font-size: 11px; font-family: Arial,Helvetica; pointer-events: none;" text-anchor="end" dy=".35em" y="8.035714285714286" x="-6">cafeteria/ canteen</text></g><g transform="translate(433.3333333333333,405.7142857142857)" class="node"><rect style="" width="0" height="20.089285714285715"><title>part-finished products
5</title></rect><text style="font-size: 11px; font-family: Arial,Helvetica; pointer-events: none;" text-anchor="end" dy=".35em" y="10.044642857142858" x="-6">part-finished products</text></g><g transform="translate(433.3333333333333,487.94642857142856)" class="node"><rect style="" width="0" height="12.05357142857143"><title>ready meals
3</title></rect><text style="font-size: 11px; font-family: Arial,Helvetica; pointer-events: none;" text-anchor="end" dy=".35em" y="6.026785714285715" x="-6">ready meals</text></g><g transform="translate(433.3333333333333,461.875)" class="node"><rect style="" width="0" height="16.071428571428573"><title>restaurant
4</title></rect><text style="font-size: 11px; font-family: Arial,Helvetica; pointer-events: none;" text-anchor="end" dy=".35em" y="8.035714285714286" x="-6">restaurant</text></g><g transform="translate(433.3333333333333,-2.842170943040401e-14)" class="node"><rect style="" width="0" height="365.62500000000006"><title>self made
91</title></rect><text style="font-size: 11px; font-family: Arial,Helvetica; pointer-events: none;" text-anchor="end" dy=".35em" y="182.81250000000003" x="-6">self made</text></g><g transform="translate(216.66666666666666,408.66071428571433)" class="node"><rect style="" width="0" height="56.25000000000001"><title>all-eater
14</title></rect><text style="font-size: 11px; font-family: Arial,Helvetica; pointer-events: none;" text-anchor="start" dy=".35em" y="28.125000000000004" x="6">all-eater</text></g><g transform="translate(216.66666666666666,298.2142857142857)" class="node"><rect style="" width="0" height="100.44642857142858"><title>all-eater, but eating less meat
25</title></rect><text style="font-size: 11px; font-family: Arial,Helvetica; pointer-events: none;" text-anchor="start" dy=".35em" y="50.22321428571429" x="6">all-eater, but eating less meat</text></g><g transform="translate(216.66666666666666,474.91071428571433)" class="node"><rect style="" width="0" height="20.089285714285715"><title>pescetarian
5</title></rect><text style="font-size: 11px; font-family: Arial,Helvetica; pointer-events: none;" text-anchor="start" dy=".35em" y="10.044642857142858" x="6">pescetarian</text></g><g transform="translate(216.66666666666666,155.625)" class="node"><rect style="" width="0" height="132.58928571428572"><title>vegan
33</title></rect><text style="font-size: 11px; font-family: Arial,Helvetica; pointer-events: none;" text-anchor="start" dy=".35em" y="66.29464285714286" x="6">vegan</text></g><g transform="translate(216.66666666666666,5)" class="node"><rect style="" width="0" height="140.625"><title>vegetarian
35</title></rect><text style="font-size: 11px; font-family: Arial,Helvetica; pointer-events: none;" text-anchor="start" dy=".35em" y="70.3125" x="6">vegetarian</text></g></g></g></svg>