<svg version="1.1" xmlns="http://www.w3.org/2000/svg" height="520" width="650"><g transform="translate(0,10)"><g><path style="stroke-width: 112.5; fill: none; stroke: rgb(254, 99, 113); stroke-opacity: 0.4;" d="M0,76.24999999999997C162.5,76.24999999999997 162.5,61.25000000000001 325,61.25000000000001" class="link"></path><path style="stroke-width: 100.446; fill: none; stroke: rgb(254, 99, 113); stroke-opacity: 0.4;" d="M0,182.72321428571428C162.5,182.72321428571428 162.5,205.84821428571428 325,205.84821428571428" class="link"></path><path style="stroke-width: 76.3393; fill: none; stroke: rgb(105, 191, 154); stroke-opacity: 0.4;" d="M325,193.79464285714286C487.5,193.79464285714286 487.5,90.4017857142857 650,90.4017857142857" class="link"></path><path style="stroke-width: 72.3214; fill: none; stroke: rgb(254, 99, 113); stroke-opacity: 0.4;" d="M0,269.1071428571429C162.5,269.1071428571429 162.5,334.375 325,334.375" class="link"></path><path style="stroke-width: 56.25; fill: none; stroke: rgb(130, 191, 105); stroke-opacity: 0.4;" d="M325,85.35714285714286C487.5,85.35714285714286 487.5,239.01785714285714 650,239.01785714285714" class="link"></path><path style="stroke-width: 52.2321; fill: none; stroke: rgb(130, 191, 105); stroke-opacity: 0.4;" d="M325,31.11607142857143C487.5,31.11607142857143 487.5,26.116071428571402 650,26.116071428571402" class="link"></path><path style="stroke-width: 48.2143; fill: none; stroke: rgb(105, 154, 191); stroke-opacity: 0.4;" d="M325,358.4821428571429C487.5,358.4821428571429 487.5,307.32142857142856 650,307.32142857142856" class="link"></path><path style="stroke-width: 36.1607; fill: none; stroke: rgb(105, 154, 191); stroke-opacity: 0.4;" d="M325,316.2946428571429C487.5,316.2946428571429 487.5,146.6517857142857 650,146.6517857142857" class="link"></path><path style="stroke-width: 32.1429; fill: none; stroke: rgb(16, 69, 132); stroke-opacity: 0.4;" d="M0,391.6071428571429C162.5,391.6071428571429 162.5,272.1428571428571 325,272.1428571428571" class="link"></path><path style="stroke-width: 32.1429; fill: none; stroke: rgb(16, 69, 132); stroke-opacity: 0.4;" d="M0,451.87500000000006C162.5,451.87500000000006 162.5,448.8392857142858 325,448.8392857142858" class="link"></path><path style="stroke-width: 28.125; fill: none; stroke: rgb(16, 69, 132); stroke-opacity: 0.4;" d="M0,421.7410714285715C162.5,421.7410714285715 162.5,384.59821428571433 325,384.59821428571433" class="link"></path><path style="stroke-width: 28.125; fill: none; stroke: rgb(16, 69, 132); stroke-opacity: 0.4;" d="M0,361.47321428571433C162.5,361.47321428571433 162.5,131.56250000000003 325,131.56250000000003" class="link"></path><path style="stroke-width: 28.125; fill: none; stroke: rgb(130, 105, 191); stroke-opacity: 0.4;" d="M325,422.72321428571433C487.5,422.72321428571433 487.5,178.79464285714286 650,178.79464285714286" class="link"></path><path style="stroke-width: 28.125; fill: none; stroke: rgb(130, 105, 191); stroke-opacity: 0.4;" d="M325,450.84821428571433C487.5,450.84821428571433 487.5,345.49107142857144 650,345.49107142857144" class="link"></path><path style="stroke-width: 24.1071; fill: none; stroke: rgb(254, 99, 113); stroke-opacity: 0.4;" d="M0,317.32142857142867C162.5,317.32142857142867 162.5,420.7142857142858 325,420.7142857142858" class="link"></path><path style="stroke-width: 20.0893; fill: none; stroke: rgb(130, 191, 105); stroke-opacity: 0.4;" d="M325,123.52678571428572C487.5,123.52678571428572 487.5,383.6160714285714 650,383.6160714285714" class="link"></path><path style="stroke-width: 20.0893; fill: none; stroke: rgb(105, 191, 154); stroke-opacity: 0.4;" d="M325,258.0803571428571C487.5,258.0803571428571 487.5,403.7053571428571 650,403.7053571428571" class="link"></path><path style="stroke-width: 16.0714; fill: none; stroke: rgb(105, 191, 154); stroke-opacity: 0.4;" d="M325,240C487.5,240 487.5,275.17857142857144 650,275.17857142857144" class="link"></path><path style="stroke-width: 12.0536; fill: none; stroke: rgb(16, 69, 132); stroke-opacity: 0.4;" d="M0,473.9732142857144C162.5,473.9732142857144 162.5,488.97321428571433 325,488.97321428571433" class="link"></path><path style="stroke-width: 12.0536; fill: none; stroke: rgb(130, 191, 105); stroke-opacity: 0.4;" d="M325,139.5982142857143C487.5,139.5982142857143 487.5,433.79464285714283 650,433.79464285714283" class="link"></path><path style="stroke-width: 8.03571; fill: none; stroke: rgb(254, 99, 113); stroke-opacity: 0.4;" d="M0,333.3928571428573C162.5,333.3928571428573 162.5,478.9285714285715 325,478.9285714285715" class="link"></path><path style="stroke-width: 8.03571; fill: none; stroke: rgb(105, 191, 154); stroke-opacity: 0.4;" d="M325,272.14285714285717C487.5,272.14285714285717 487.5,443.8392857142857 650,443.8392857142857" class="link"></path><path style="stroke-width: 8.03571; fill: none; stroke: rgb(105, 191, 154); stroke-opacity: 0.4;" d="M325,284.1964285714286C487.5,284.1964285714286 487.5,491.9642857142857 650,491.9642857142857" class="link"></path><path style="stroke-width: 8.03571; fill: none; stroke: rgb(191, 105, 179); stroke-opacity: 0.4;" d="M325,478.9285714285715C487.5,478.9285714285715 487.5,196.875 650,196.875" class="link"></path><path style="stroke-width: 4.01786; fill: none; stroke: rgb(105, 191, 154); stroke-opacity: 0.4;" d="M325,278.16964285714283C487.5,278.16964285714283 487.5,467.90178571428567 650,467.90178571428567" class="link"></path><path style="stroke-width: 4.01786; fill: none; stroke: rgb(105, 154, 191); stroke-opacity: 0.4;" d="M325,388.61607142857144C487.5,388.61607142857144 487.5,449.8660714285714 650,449.8660714285714" class="link"></path><path style="stroke-width: 4.01786; fill: none; stroke: rgb(105, 154, 191); stroke-opacity: 0.4;" d="M325,384.5982142857143C487.5,384.5982142857143 487.5,415.75892857142856 650,415.75892857142856" class="link"></path><path style="stroke-width: 4.01786; fill: none; stroke: rgb(105, 154, 191); stroke-opacity: 0.4;" d="M325,392.63392857142856C487.5,392.63392857142856 487.5,471.91964285714283 650,471.91964285714283" class="link"></path><path style="stroke-width: 4.01786; fill: none; stroke: rgb(105, 154, 191); stroke-opacity: 0.4;" d="M325,396.6517857142857C487.5,396.6517857142857 487.5,497.9910714285714 650,497.9910714285714" class="link"></path><path style="stroke-width: 4.01786; fill: none; stroke: rgb(191, 105, 179); stroke-opacity: 0.4;" d="M325,484.95535714285717C487.5,484.95535714285717 487.5,361.5625 650,361.5625" class="link"></path><path style="stroke-width: 4.01786; fill: none; stroke: rgb(191, 105, 179); stroke-opacity: 0.4;" d="M325,492.99107142857144C487.5,492.99107142857144 487.5,475.93749999999994 650,475.93749999999994" class="link"></path><path style="stroke-width: 4.01786; fill: none; stroke: rgb(191, 105, 179); stroke-opacity: 0.4;" d="M325,488.97321428571433C487.5,488.97321428571433 487.5,453.8839285714285 650,453.8839285714285" class="link"></path></g><g><g transform="translate(0,19.99999999999997)" class="node"><rect style="" width="0" height="317.41071428571433"><title>female
79</title></rect><text style="font-size: 11px; font-family: Arial,Helvetica; pointer-events: none;" text-anchor="start" dy=".35em" y="158.70535714285717" x="6">female</text></g><g transform="translate(0,347.41071428571433)" class="node"><rect style="" width="0" height="132.58928571428572"><title>male
33</title></rect><text style="font-size: 11px; font-family: Arial,Helvetica; pointer-events: none;" text-anchor="start" dy=".35em" y="66.29464285714286" x="6">male</text></g><g transform="translate(650,-2.842170943040401e-14)" class="node"><rect style="fill: rgb(102, 102, 102);" width="0" height="200.89285714285717"><title>employed
50</title></rect><text style="font-size: 11px; font-family: Arial,Helvetica; pointer-events: none;" text-anchor="end" dy=".35em" y="100.44642857142858" x="-6">employed</text></g><g transform="translate(650,427.7678571428571)" class="node"><rect style="fill: rgb(102, 102, 102);" width="0" height="28.125000000000004"><title>pupil
7</title></rect><text style="font-size: 11px; font-family: Arial,Helvetica; pointer-events: none;" text-anchor="end" dy=".35em" y="14.062500000000002" x="-6">pupil</text></g><g transform="translate(650,465.8928571428571)" class="node"><rect style="fill: rgb(102, 102, 102);" width="0" height="12.05357142857143"><title>seeking work
3</title></rect><text style="font-size: 11px; font-family: Arial,Helvetica; pointer-events: none;" text-anchor="end" dy=".35em" y="6.026785714285715" x="-6">seeking work</text></g><g transform="translate(650,373.57142857142856)" class="node"><rect style="fill: rgb(102, 102, 102);" width="0" height="44.19642857142858"><title>self-employed
11</title></rect><text style="font-size: 11px; font-family: Arial,Helvetica; pointer-events: none;" text-anchor="end" dy=".35em" y="22.09821428571429" x="-6">self-employed</text></g><g transform="translate(650,210.89285714285714)" class="node"><rect style="fill: rgb(102, 102, 102);" width="0" height="152.67857142857144"><title>student
38</title></rect><text style="font-size: 11px; font-family: Arial,Helvetica; pointer-events: none;" text-anchor="end" dy=".35em" y="76.33928571428572" x="-6">student</text></g><g transform="translate(650,487.94642857142856)" class="node"><rect style="fill: rgb(102, 102, 102);" width="0" height="12.05357142857143"><title>vocational training
3</title></rect><text style="font-size: 11px; font-family: Arial,Helvetica; pointer-events: none;" text-anchor="end" dy=".35em" y="6.026785714285715" x="-6">vocational training</text></g><g transform="translate(325,408.66071428571433)" class="node"><rect style="" width="0" height="56.25000000000001"><title>all-eater
14</title></rect><text style="font-size: 11px; font-family: Arial,Helvetica; pointer-events: none;" text-anchor="end" dy=".35em" y="28.125000000000004" x="-6">all-eater</text></g><g transform="translate(325,298.2142857142857)" class="node"><rect style="" width="0" height="100.44642857142858"><title>all-eater, but eating less meat
25</title></rect><text style="font-size: 11px; font-family: Arial,Helvetica; pointer-events: none;" text-anchor="end" dy=".35em" y="50.22321428571429" x="-6">all-eater, but eating less meat</text></g><g transform="translate(325,474.91071428571433)" class="node"><rect style="" width="0" height="20.089285714285715"><title>pescetarian
5</title></rect><text style="font-size: 11px; font-family: Arial,Helvetica; pointer-events: none;" text-anchor="end" dy=".35em" y="10.044642857142858" x="-6">pescetarian</text></g><g transform="translate(325,155.625)" class="node"><rect style="" width="0" height="132.58928571428572"><title>vegan
33</title></rect><text style="font-size: 11px; font-family: Arial,Helvetica; pointer-events: none;" text-anchor="end" dy=".35em" y="66.29464285714286" x="-6">vegan</text></g><g transform="translate(325,5)" class="node"><rect style="" width="0" height="140.625"><title>vegetarian
35</title></rect><text style="font-size: 11px; font-family: Arial,Helvetica; pointer-events: none;" text-anchor="end" dy=".35em" y="70.3125" x="-6">vegetarian</text></g></g></g></svg>