<svg version="1.1" xmlns="http://www.w3.org/2000/svg" height="520" width="650"><g transform="translate(0,10)"><g><path style="stroke-width: 60; fill: none; stroke: rgb(254, 99, 113); stroke-opacity: 0.4;" d="M0,264.2857142857143C108.33333333333333,264.2857142857143 108.33333333333333,345 216.66666666666666,345" class="link"></path><path style="stroke-width: 53.5714; fill: none; stroke: rgb(254, 99, 113); stroke-opacity: 0.4;" d="M0,207.5C108.33333333333333,207.5 108.33333333333333,261.07142857142856 216.66666666666666,261.07142857142856" class="link"></path><path style="stroke-width: 38.5714; fill: none; stroke: rgb(254, 99, 113); stroke-opacity: 0.4;" d="M0,157.14285714285714C108.33333333333333,157.14285714285714 108.33333333333333,169.28571428571428 216.66666666666666,169.28571428571428" class="link"></path><path style="stroke-width: 36.4286; fill: none; stroke: rgb(191, 186, 105); stroke-opacity: 0.4;" d="M216.66666666666666,252.5C325,252.5 325,155.35714285714286 433.3333333333333,155.35714285714286" class="link"></path><path style="stroke-width: 34.2857; fill: none; stroke: rgb(191, 159, 105); stroke-opacity: 0.4;" d="M216.66666666666666,332.14285714285717C325,332.14285714285717 325,190.71428571428572 433.3333333333333,190.71428571428572" class="link"></path><path style="stroke-width: 34.2857; fill: none; stroke: rgb(168, 191, 105); stroke-opacity: 0.4;" d="M216.66666666666666,167.14285714285714C325,167.14285714285714 325,117.85714285714286 433.3333333333333,117.85714285714286" class="link"></path><path style="stroke-width: 34.2857; fill: none; stroke: rgb(105, 191, 150); stroke-opacity: 0.4;" d="M433.3333333333333,117.85714285714286C541.6666666666666,117.85714285714286 541.6666666666666,75.7142857142856 650,75.7142857142856" class="link"></path><path style="stroke-width: 25.7143; fill: none; stroke: rgb(141, 191, 105); stroke-opacity: 0.4;" d="M216.66666666666666,122.85714285714286C325,122.85714285714286 325,87.85714285714286 433.3333333333333,87.85714285714286" class="link"></path><path style="stroke-width: 25.7143; fill: none; stroke: rgb(105, 191, 150); stroke-opacity: 0.4;" d="M433.3333333333333,87.85714285714286C541.6666666666666,87.85714285714286 541.6666666666666,12.857142857142744 650,12.857142857142744" class="link"></path><path style="stroke-width: 17.1429; fill: none; stroke: rgb(16, 69, 132); stroke-opacity: 0.4;" d="M0,351.4285714285714C108.33333333333333,351.4285714285714 108.33333333333333,296.4285714285714 216.66666666666666,296.4285714285714" class="link"></path><path style="stroke-width: 17.1429; fill: none; stroke: rgb(16, 69, 132); stroke-opacity: 0.4;" d="M0,312.85714285714283C108.33333333333333,312.85714285714283 108.33333333333333,131.42857142857144 216.66666666666666,131.42857142857144" class="link"></path><path style="stroke-width: 17.1429; fill: none; stroke: rgb(191, 159, 105); stroke-opacity: 0.4;" d="M216.66666666666666,357.85714285714283C325,357.85714285714283 325,270.71428571428567 433.3333333333333,270.71428571428567" class="link"></path><path style="stroke-width: 17.1429; fill: none; stroke: rgb(105, 191, 150); stroke-opacity: 0.4;" d="M433.3333333333333,154.2857142857143C541.6666666666666,154.2857142857143 541.6666666666666,232.85714285714275 650,232.85714285714275" class="link"></path><path style="stroke-width: 15; fill: none; stroke: rgb(16, 69, 132); stroke-opacity: 0.4;" d="M0,328.92857142857144C108.33333333333333,328.92857142857144 108.33333333333333,196.07142857142856 216.66666666666666,196.07142857142856" class="link"></path><path style="stroke-width: 15; fill: none; stroke: rgb(16, 69, 132); stroke-opacity: 0.4;" d="M0,367.5C108.33333333333333,367.5 108.33333333333333,382.5 216.66666666666666,382.5" class="link"></path><path style="stroke-width: 15; fill: none; stroke: rgb(191, 159, 105); stroke-opacity: 0.4;" d="M216.66666666666666,378.2142857142857C325,378.2142857142857 325,339.64285714285717 433.3333333333333,339.64285714285717" class="link"></path><path style="stroke-width: 15; fill: none; stroke: rgb(191, 186, 105); stroke-opacity: 0.4;" d="M216.66666666666666,278.2142857142857C325,278.2142857142857 325,254.64285714285714 433.3333333333333,254.64285714285714" class="link"></path><path style="stroke-width: 12.8571; fill: none; stroke: rgb(254, 99, 113); stroke-opacity: 0.4;" d="M0,131.42857142857142C108.33333333333333,131.42857142857142 108.33333333333333,116.42857142857143 216.66666666666666,116.42857142857143" class="link"></path><path style="stroke-width: 10.7143; fill: none; stroke: rgb(168, 191, 105); stroke-opacity: 0.4;" d="M216.66666666666666,189.64285714285714C325,189.64285714285714 325,237.5 433.3333333333333,237.5" class="link"></path><path style="stroke-width: 10.7143; fill: none; stroke: rgb(105, 191, 123); stroke-opacity: 0.4;" d="M433.3333333333333,237.5C541.6666666666666,237.5 541.6666666666666,100.35714285714275 650,100.35714285714275" class="link"></path><path style="stroke-width: 8.57143; fill: none; stroke: rgb(191, 186, 105); stroke-opacity: 0.4;" d="M216.66666666666666,298.57142857142856C325,298.57142857142856 325,365.7142857142857 433.3333333333333,365.7142857142857" class="link"></path><path style="stroke-width: 8.57143; fill: none; stroke: rgb(105, 191, 150); stroke-opacity: 0.4;" d="M433.3333333333333,201.4285714285714C541.6666666666666,201.4285714285714 541.6666666666666,432.14285714285717 650,432.14285714285717" class="link"></path><path style="stroke-width: 6.42857; fill: none; stroke: rgb(16, 69, 132); stroke-opacity: 0.4;" d="M0,339.64285714285717C108.33333333333333,339.64285714285717 108.33333333333333,221.07142857142856 216.66666666666666,221.07142857142856" class="link"></path><path style="stroke-width: 6.42857; fill: none; stroke: rgb(105, 191, 123); stroke-opacity: 0.4;" d="M433.3333333333333,261.07142857142856C541.6666666666666,261.07142857142856 541.6666666666666,410.3571428571429 650,410.3571428571429" class="link"></path><path style="stroke-width: 6.42857; fill: none; stroke: rgb(105, 191, 123); stroke-opacity: 0.4;" d="M433.3333333333333,267.5C541.6666666666666,267.5 541.6666666666666,439.64285714285717 650,439.64285714285717" class="link"></path><path style="stroke-width: 6.42857; fill: none; stroke: rgb(105, 191, 150); stroke-opacity: 0.4;" d="M433.3333333333333,193.92857142857142C541.6666666666666,193.92857142857142 541.6666666666666,403.92857142857144 650,403.92857142857144" class="link"></path><path style="stroke-width: 6.42857; fill: none; stroke: rgb(105, 191, 150); stroke-opacity: 0.4;" d="M433.3333333333333,183.21428571428572C541.6666666666666,183.21428571428572 541.6666666666666,361.07142857142856 650,361.07142857142856" class="link"></path><path style="stroke-width: 6.42857; fill: none; stroke: rgb(105, 191, 177); stroke-opacity: 0.4;" d="M433.3333333333333,362.50000000000006C541.6666666666666,362.50000000000006 541.6666666666666,251.07142857142844 650,251.07142857142844" class="link"></path><path style="stroke-width: 4.28571; fill: none; stroke: rgb(254, 99, 113); stroke-opacity: 0.4;" d="M0,178.57142857142858C108.33333333333333,178.57142857142858 108.33333333333333,215.7142857142857 216.66666666666666,215.7142857142857" class="link"></path><path style="stroke-width: 4.28571; fill: none; stroke: rgb(191, 186, 105); stroke-opacity: 0.4;" d="M216.66666666666666,292.14285714285717C325,292.14285714285717 325,330.00000000000006 433.3333333333333,330.00000000000006" class="link"></path><path style="stroke-width: 4.28571; fill: none; stroke: rgb(168, 191, 105); stroke-opacity: 0.4;" d="M216.66666666666666,197.14285714285714C325,197.14285714285714 325,359.28571428571433 433.3333333333333,359.28571428571433" class="link"></path><path style="stroke-width: 4.28571; fill: none; stroke: rgb(168, 191, 105); stroke-opacity: 0.4;" d="M216.66666666666666,201.42857142857142C325,201.42857142857142 325,396.42857142857144 433.3333333333333,396.42857142857144" class="link"></path><path style="stroke-width: 4.28571; fill: none; stroke: rgb(114, 191, 105); stroke-opacity: 0.4;" d="M216.66666666666666,219.99999999999997C325,219.99999999999997 325,245 433.3333333333333,245" class="link"></path><path style="stroke-width: 4.28571; fill: none; stroke: rgb(105, 191, 123); stroke-opacity: 0.4;" d="M433.3333333333333,255.7142857142857C541.6666666666666,255.7142857142857 541.6666666666666,309.2857142857142 650,309.2857142857142" class="link"></path><path style="stroke-width: 4.28571; fill: none; stroke: rgb(105, 191, 123); stroke-opacity: 0.4;" d="M433.3333333333333,251.42857142857142C541.6666666666666,251.42857142857142 541.6666666666666,243.57142857142844 650,243.57142857142844" class="link"></path><path style="stroke-width: 4.28571; fill: none; stroke: rgb(105, 191, 150); stroke-opacity: 0.4;" d="M433.3333333333333,164.99999999999997C541.6666666666666,164.99999999999997 541.6666666666666,278.5714285714285 650,278.5714285714285" class="link"></path><path style="stroke-width: 4.28571; fill: none; stroke: rgb(105, 191, 150); stroke-opacity: 0.4;" d="M433.3333333333333,139.28571428571428C541.6666666666666,139.28571428571428 541.6666666666666,154.99999999999986 650,154.99999999999986" class="link"></path><path style="stroke-width: 4.28571; fill: none; stroke: rgb(105, 191, 150); stroke-opacity: 0.4;" d="M433.3333333333333,171.42857142857142C541.6666666666666,171.42857142857142 541.6666666666666,304.99999999999994 650,304.99999999999994" class="link"></path><path style="stroke-width: 4.28571; fill: none; stroke: rgb(105, 177, 191); stroke-opacity: 0.4;" d="M433.3333333333333,382.14285714285717C541.6666666666666,382.14285714285717 541.6666666666666,114.28571428571416 650,114.28571428571416" class="link"></path><path style="stroke-width: 4.28571; fill: none; stroke: rgb(105, 123, 191); stroke-opacity: 0.4;" d="M433.3333333333333,332.1428571428572C541.6666666666666,332.1428571428572 541.6666666666666,109.99999999999989 650,109.99999999999989" class="link"></path><path style="stroke-width: 4.28571; fill: none; stroke: rgb(105, 123, 191); stroke-opacity: 0.4;" d="M433.3333333333333,336.4285714285715C541.6666666666666,336.4285714285715 541.6666666666666,173.57142857142844 650,173.57142857142844" class="link"></path><path style="stroke-width: 2.14286; fill: none; stroke: rgb(191, 159, 105); stroke-opacity: 0.4;" d="M216.66666666666666,388.92857142857144C325,388.92857142857144 325,411.7857142857143 433.3333333333333,411.7857142857143" class="link"></path><path style="stroke-width: 2.14286; fill: none; stroke: rgb(191, 159, 105); stroke-opacity: 0.4;" d="M216.66666666666666,369.6428571428571C325,369.6428571428571 325,304.6428571428571 433.3333333333333,304.6428571428571" class="link"></path><path style="stroke-width: 2.14286; fill: none; stroke: rgb(191, 159, 105); stroke-opacity: 0.4;" d="M216.66666666666666,386.7857142857143C325,386.7857142857143 325,399.6428571428571 433.3333333333333,399.6428571428571" class="link"></path><path style="stroke-width: 2.14286; fill: none; stroke: rgb(191, 159, 105); stroke-opacity: 0.4;" d="M216.66666666666666,367.5C325,367.5 325,292.5 433.3333333333333,292.5" class="link"></path><path style="stroke-width: 2.14286; fill: none; stroke: rgb(191, 186, 105); stroke-opacity: 0.4;" d="M216.66666666666666,303.92857142857144C325,303.92857142857144 325,383.2142857142857 433.3333333333333,383.2142857142857" class="link"></path><path style="stroke-width: 2.14286; fill: none; stroke: rgb(191, 186, 105); stroke-opacity: 0.4;" d="M216.66666666666666,288.9285714285714C325,288.9285714285714 325,316.7857142857143 433.3333333333333,316.7857142857143" class="link"></path><path style="stroke-width: 2.14286; fill: none; stroke: rgb(191, 186, 105); stroke-opacity: 0.4;" d="M216.66666666666666,286.7857142857143C325,286.7857142857143 325,290.35714285714283 433.3333333333333,290.35714285714283" class="link"></path><path style="stroke-width: 2.14286; fill: none; stroke: rgb(141, 191, 105); stroke-opacity: 0.4;" d="M216.66666666666666,136.7857142857143C325,136.7857142857143 325,231.07142857142858 433.3333333333333,231.07142857142858" class="link"></path><path style="stroke-width: 2.14286; fill: none; stroke: rgb(141, 191, 105); stroke-opacity: 0.4;" d="M216.66666666666666,138.92857142857144C325,138.92857142857144 325,381.07142857142856 433.3333333333333,381.07142857142856" class="link"></path><path style="stroke-width: 2.14286; fill: none; stroke: rgb(114, 191, 105); stroke-opacity: 0.4;" d="M216.66666666666666,223.21428571428572C325,223.21428571428572 325,423.92857142857144 433.3333333333333,423.92857142857144" class="link"></path><path style="stroke-width: 2.14286; fill: none; stroke: rgb(114, 191, 105); stroke-opacity: 0.4;" d="M216.66666666666666,214.64285714285714C325,214.64285714285714 325,136.07142857142858 433.3333333333333,136.07142857142858" class="link"></path><path style="stroke-width: 2.14286; fill: none; stroke: rgb(114, 191, 105); stroke-opacity: 0.4;" d="M216.66666666666666,216.78571428571428C325,216.78571428571428 325,218.92857142857144 433.3333333333333,218.92857142857144" class="link"></path><path style="stroke-width: 2.14286; fill: none; stroke: rgb(105, 191, 123); stroke-opacity: 0.4;" d="M433.3333333333333,273.92857142857144C541.6666666666666,273.92857142857144 541.6666666666666,472.50000000000006 650,472.50000000000006" class="link"></path><path style="stroke-width: 2.14286; fill: none; stroke: rgb(105, 191, 123); stroke-opacity: 0.4;" d="M433.3333333333333,278.2142857142857C541.6666666666666,278.2142857142857 541.6666666666666,498.92857142857156 650,498.92857142857156" class="link"></path><path style="stroke-width: 2.14286; fill: none; stroke: rgb(105, 191, 123); stroke-opacity: 0.4;" d="M433.3333333333333,248.21428571428572C541.6666666666666,248.21428571428572 541.6666666666666,213.2142857142856 650,213.2142857142856" class="link"></path><path style="stroke-width: 2.14286; fill: none; stroke: rgb(105, 191, 123); stroke-opacity: 0.4;" d="M433.3333333333333,231.07142857142858C541.6666666666666,231.07142857142858 541.6666666666666,26.785714285714175 650,26.785714285714175" class="link"></path><path style="stroke-width: 2.14286; fill: none; stroke: rgb(105, 191, 123); stroke-opacity: 0.4;" d="M433.3333333333333,243.92857142857144C541.6666666666666,243.92857142857144 541.6666666666666,158.21428571428558 650,158.21428571428558" class="link"></path><path style="stroke-width: 2.14286; fill: none; stroke: rgb(105, 191, 123); stroke-opacity: 0.4;" d="M433.3333333333333,276.07142857142856C541.6666666666666,276.07142857142856 541.6666666666666,484.6428571428572 650,484.6428571428572" class="link"></path><path style="stroke-width: 2.14286; fill: none; stroke: rgb(105, 191, 123); stroke-opacity: 0.4;" d="M433.3333333333333,271.7857142857143C541.6666666666666,271.7857142857143 541.6666666666666,456.0714285714286 650,456.0714285714286" class="link"></path><path style="stroke-width: 2.14286; fill: none; stroke: rgb(105, 191, 123); stroke-opacity: 0.4;" d="M433.3333333333333,246.07142857142858C541.6666666666666,246.07142857142858 541.6666666666666,170.35714285714275 650,170.35714285714275" class="link"></path><path style="stroke-width: 2.14286; fill: none; stroke: rgb(105, 191, 150); stroke-opacity: 0.4;" d="M433.3333333333333,178.92857142857142C541.6666666666666,178.92857142857142 541.6666666666666,346.7857142857142 650,346.7857142857142" class="link"></path><path style="stroke-width: 2.14286; fill: none; stroke: rgb(105, 191, 150); stroke-opacity: 0.4;" d="M433.3333333333333,174.64285714285714C541.6666666666666,174.64285714285714 541.6666666666666,322.4999999999999 650,322.4999999999999" class="link"></path><path style="stroke-width: 2.14286; fill: none; stroke: rgb(105, 191, 150); stroke-opacity: 0.4;" d="M433.3333333333333,136.07142857142858C541.6666666666666,136.07142857142858 541.6666666666666,129.64285714285703 650,129.64285714285703" class="link"></path><path style="stroke-width: 2.14286; fill: none; stroke: rgb(105, 191, 150); stroke-opacity: 0.4;" d="M433.3333333333333,206.78571428571428C541.6666666666666,206.78571428571428 541.6666666666666,496.7857142857144 650,496.7857142857144" class="link"></path><path style="stroke-width: 2.14286; fill: none; stroke: rgb(105, 191, 150); stroke-opacity: 0.4;" d="M433.3333333333333,142.50000000000003C541.6666666666666,142.50000000000003 541.6666666666666,186.7857142857142 650,186.7857142857142" class="link"></path><path style="stroke-width: 2.14286; fill: none; stroke: rgb(105, 191, 150); stroke-opacity: 0.4;" d="M433.3333333333333,168.21428571428572C541.6666666666666,168.21428571428572 541.6666666666666,291.78571428571416 650,291.78571428571416" class="link"></path><path style="stroke-width: 2.14286; fill: none; stroke: rgb(105, 191, 150); stroke-opacity: 0.4;" d="M433.3333333333333,187.5C541.6666666666666,187.5 541.6666666666666,377.49999999999994 650,377.49999999999994" class="link"></path><path style="stroke-width: 2.14286; fill: none; stroke: rgb(105, 191, 150); stroke-opacity: 0.4;" d="M433.3333333333333,144.64285714285714C541.6666666666666,144.64285714285714 541.6666666666666,201.07142857142847 650,201.07142857142847" class="link"></path><path style="stroke-width: 2.14286; fill: none; stroke: rgb(105, 191, 150); stroke-opacity: 0.4;" d="M433.3333333333333,189.64285714285714C541.6666666666666,189.64285714285714 541.6666666666666,389.6428571428571 650,389.6428571428571" class="link"></path><path style="stroke-width: 2.14286; fill: none; stroke: rgb(105, 191, 150); stroke-opacity: 0.4;" d="M433.3333333333333,176.7857142857143C541.6666666666666,176.7857142857143 541.6666666666666,334.64285714285705 650,334.64285714285705" class="link"></path><path style="stroke-width: 2.14286; fill: none; stroke: rgb(105, 191, 177); stroke-opacity: 0.4;" d="M433.3333333333333,368.92857142857144C541.6666666666666,368.92857142857144 541.6666666666666,460.3571428571429 650,460.3571428571429" class="link"></path><path style="stroke-width: 2.14286; fill: none; stroke: rgb(105, 191, 177); stroke-opacity: 0.4;" d="M433.3333333333333,366.7857142857143C541.6666666666666,366.7857142857143 541.6666666666666,365.35714285714283 650,365.35714285714283" class="link"></path><path style="stroke-width: 2.14286; fill: none; stroke: rgb(105, 191, 177); stroke-opacity: 0.4;" d="M433.3333333333333,358.2142857142857C541.6666666666666,358.2142857142857 541.6666666666666,45.35714285714274 650,45.35714285714274" class="link"></path><path style="stroke-width: 2.14286; fill: none; stroke: rgb(105, 150, 191); stroke-opacity: 0.4;" d="M433.3333333333333,423.92857142857144C541.6666666666666,423.92857142857144 541.6666666666666,117.49999999999989 650,117.49999999999989" class="link"></path><path style="stroke-width: 2.14286; fill: none; stroke: rgb(105, 123, 191); stroke-opacity: 0.4;" d="M433.3333333333333,346.0714285714286C541.6666666666666,346.0714285714286 541.6666666666666,458.2142857142858 650,458.2142857142858" class="link"></path><path style="stroke-width: 2.14286; fill: none; stroke: rgb(105, 123, 191); stroke-opacity: 0.4;" d="M433.3333333333333,339.64285714285717C541.6666666666666,339.64285714285717 541.6666666666666,188.92857142857133 650,188.92857142857133" class="link"></path><path style="stroke-width: 2.14286; fill: none; stroke: rgb(105, 123, 191); stroke-opacity: 0.4;" d="M433.3333333333333,328.92857142857144C541.6666666666666,328.92857142857144 541.6666666666666,43.214285714285595 650,43.214285714285595" class="link"></path><path style="stroke-width: 2.14286; fill: none; stroke: rgb(105, 123, 191); stroke-opacity: 0.4;" d="M433.3333333333333,343.92857142857144C541.6666666666666,343.92857142857144 541.6666666666666,416.7857142857143 650,416.7857142857143" class="link"></path><path style="stroke-width: 2.14286; fill: none; stroke: rgb(105, 123, 191); stroke-opacity: 0.4;" d="M433.3333333333333,341.7857142857143C541.6666666666666,341.7857142857143 541.6666666666666,246.78571428571416 650,246.78571428571416" class="link"></path><path style="stroke-width: 2.14286; fill: none; stroke: rgb(114, 105, 191); stroke-opacity: 0.4;" d="M433.3333333333333,411.7857142857143C541.6666666666666,411.7857142857143 541.6666666666666,141.78571428571416 650,141.78571428571416" class="link"></path><path style="stroke-width: 2.14286; fill: none; stroke: rgb(141, 105, 191); stroke-opacity: 0.4;" d="M433.3333333333333,304.6428571428571C541.6666666666666,304.6428571428571 541.6666666666666,28.928571428571317 650,28.928571428571317" class="link"></path><path style="stroke-width: 2.14286; fill: none; stroke: rgb(168, 105, 191); stroke-opacity: 0.4;" d="M433.3333333333333,395.35714285714283C541.6666666666666,395.35714285714283 541.6666666666666,31.07142857142846 650,31.07142857142846" class="link"></path><path style="stroke-width: 2.14286; fill: none; stroke: rgb(168, 105, 191); stroke-opacity: 0.4;" d="M433.3333333333333,397.5C541.6666666666666,397.5 541.6666666666666,47.49999999999988 650,47.49999999999988" class="link"></path><path style="stroke-width: 2.14286; fill: none; stroke: rgb(168, 105, 191); stroke-opacity: 0.4;" d="M433.3333333333333,399.6428571428571C541.6666666666666,399.6428571428571 541.6666666666666,443.92857142857144 650,443.92857142857144" class="link"></path><path style="stroke-width: 2.14286; fill: none; stroke: rgb(191, 105, 186); stroke-opacity: 0.4;" d="M433.3333333333333,316.7857142857143C541.6666666666666,316.7857142857143 541.6666666666666,106.78571428571418 650,106.78571428571418" class="link"></path><path style="stroke-width: 2.14286; fill: none; stroke: rgb(191, 105, 159); stroke-opacity: 0.4;" d="M433.3333333333333,218.92857142857144C541.6666666666666,218.92857142857144 541.6666666666666,93.92857142857132 650,93.92857142857132" class="link"></path><path style="stroke-width: 2.14286; fill: none; stroke: rgb(191, 105, 132); stroke-opacity: 0.4;" d="M433.3333333333333,290.35714285714283C541.6666666666666,290.35714285714283 541.6666666666666,265.3571428571427 650,265.3571428571427" class="link"></path><path style="stroke-width: 2.14286; fill: none; stroke: rgb(191, 105, 132); stroke-opacity: 0.4;" d="M433.3333333333333,292.5C541.6666666666666,292.5 541.6666666666666,414.6428571428571 650,414.6428571428571" class="link"></path></g><g><g transform="translate(0,125)" class="node"><rect style="" width="0" height="169.28571428571428"><title>female
79</title></rect><text style="font-size: 11px; font-family: Arial,Helvetica; pointer-events: none;" text-anchor="start" dy=".35em" y="84.64285714285714" x="6">female</text></g><g transform="translate(0,304.2857142857143)" class="node"><rect style="" width="0" height="70.71428571428571"><title>male
33</title></rect><text style="font-size: 11px; font-family: Arial,Helvetica; pointer-events: none;" text-anchor="start" dy=".35em" y="35.357142857142854" x="6">male</text></g><g transform="translate(650,-1.1368683772161603e-13)" class="node"><rect style="fill: rgb(102, 102, 102);" width="0" height="32.14285714285714"><title>
15</title></rect><text style="font-size: 11px; font-family: Arial,Helvetica; pointer-events: none;" text-anchor="end" dy=".35em" y="16.07142857142857" x="-6"></text></g><g transform="translate(650,42.142857142857025)" class="node"><rect style="fill: rgb(102, 102, 102);" width="0" height="6.428571428571429"><title>0.5
3</title></rect><text style="font-size: 11px; font-family: Arial,Helvetica; pointer-events: none;" text-anchor="end" dy=".35em" y="3.2142857142857144" x="-6">0.5</text></g><g transform="translate(650,58.571428571428456)" class="node"><rect style="fill: rgb(102, 102, 102);" width="0" height="60"><title>1
28</title></rect><text style="font-size: 11px; font-family: Arial,Helvetica; pointer-events: none;" text-anchor="end" dy=".35em" y="30" x="-6">1</text></g><g transform="translate(650,128.57142857142844)" class="node"><rect style="fill: rgb(102, 102, 102);" width="0" height="2.142857142857143"><title>1.8
1</title></rect><text style="font-size: 11px; font-family: Arial,Helvetica; pointer-events: none;" text-anchor="end" dy=".35em" y="1.0714285714285714" x="-6">1.8</text></g><g transform="translate(650,140.71428571428558)" class="node"><rect style="fill: rgb(102, 102, 102);" width="0" height="2.142857142857143"><title>11
1</title></rect><text style="font-size: 11px; font-family: Arial,Helvetica; pointer-events: none;" text-anchor="end" dy=".35em" y="1.0714285714285714" x="-6">11</text></g><g transform="translate(650,152.85714285714272)" class="node"><rect style="fill: rgb(102, 102, 102);" width="0" height="6.428571428571429"><title>13
3</title></rect><text style="font-size: 11px; font-family: Arial,Helvetica; pointer-events: none;" text-anchor="end" dy=".35em" y="3.2142857142857144" x="-6">13</text></g><g transform="translate(650,169.28571428571416)" class="node"><rect style="fill: rgb(102, 102, 102);" width="0" height="6.428571428571429"><title>15
3</title></rect><text style="font-size: 11px; font-family: Arial,Helvetica; pointer-events: none;" text-anchor="end" dy=".35em" y="3.2142857142857144" x="-6">15</text></g><g transform="translate(650,185.7142857142856)" class="node"><rect style="fill: rgb(102, 102, 102);" width="0" height="4.285714285714286"><title>16
2</title></rect><text style="font-size: 11px; font-family: Arial,Helvetica; pointer-events: none;" text-anchor="end" dy=".35em" y="2.142857142857143" x="-6">16</text></g><g transform="translate(650,199.9999999999999)" class="node"><rect style="fill: rgb(102, 102, 102);" width="0" height="2.142857142857143"><title>18
1</title></rect><text style="font-size: 11px; font-family: Arial,Helvetica; pointer-events: none;" text-anchor="end" dy=".35em" y="1.0714285714285714" x="-6">18</text></g><g transform="translate(650,212.14285714285703)" class="node"><rect style="fill: rgb(102, 102, 102);" width="0" height="2.142857142857143"><title>19
1</title></rect><text style="font-size: 11px; font-family: Arial,Helvetica; pointer-events: none;" text-anchor="end" dy=".35em" y="1.0714285714285714" x="-6">19</text></g><g transform="translate(650,224.28571428571416)" class="node"><rect style="fill: rgb(102, 102, 102);" width="0" height="30"><title>2
14</title></rect><text style="font-size: 11px; font-family: Arial,Helvetica; pointer-events: none;" text-anchor="end" dy=".35em" y="15" x="-6">2</text></g><g transform="translate(650,264.28571428571416)" class="node"><rect style="fill: rgb(102, 102, 102);" width="0" height="2.142857142857143"><title>21
1</title></rect><text style="font-size: 11px; font-family: Arial,Helvetica; pointer-events: none;" text-anchor="end" dy=".35em" y="1.0714285714285714" x="-6">21</text></g><g transform="translate(650,276.42857142857133)" class="node"><rect style="fill: rgb(102, 102, 102);" width="0" height="4.285714285714286"><title>22
2</title></rect><text style="font-size: 11px; font-family: Arial,Helvetica; pointer-events: none;" text-anchor="end" dy=".35em" y="2.142857142857143" x="-6">22</text></g><g transform="translate(650,290.7142857142856)" class="node"><rect style="fill: rgb(102, 102, 102);" width="0" height="2.142857142857143"><title>23
1</title></rect><text style="font-size: 11px; font-family: Arial,Helvetica; pointer-events: none;" text-anchor="end" dy=".35em" y="1.0714285714285714" x="-6">23</text></g><g transform="translate(650,302.8571428571428)" class="node"><rect style="fill: rgb(102, 102, 102);" width="0" height="8.571428571428571"><title>24
4</title></rect><text style="font-size: 11px; font-family: Arial,Helvetica; pointer-events: none;" text-anchor="end" dy=".35em" y="4.285714285714286" x="-6">24</text></g><g transform="translate(650,321.42857142857133)" class="node"><rect style="fill: rgb(102, 102, 102);" width="0" height="2.142857142857143"><title>25
1</title></rect><text style="font-size: 11px; font-family: Arial,Helvetica; pointer-events: none;" text-anchor="end" dy=".35em" y="1.0714285714285714" x="-6">25</text></g><g transform="translate(650,333.5714285714285)" class="node"><rect style="fill: rgb(102, 102, 102);" width="0" height="2.142857142857143"><title>26
1</title></rect><text style="font-size: 11px; font-family: Arial,Helvetica; pointer-events: none;" text-anchor="end" dy=".35em" y="1.0714285714285714" x="-6">26</text></g><g transform="translate(650,345.71428571428567)" class="node"><rect style="fill: rgb(102, 102, 102);" width="0" height="2.142857142857143"><title>29
1</title></rect><text style="font-size: 11px; font-family: Arial,Helvetica; pointer-events: none;" text-anchor="end" dy=".35em" y="1.0714285714285714" x="-6">29</text></g><g transform="translate(650,357.85714285714283)" class="node"><rect style="fill: rgb(102, 102, 102);" width="0" height="8.571428571428571"><title>3
4</title></rect><text style="font-size: 11px; font-family: Arial,Helvetica; pointer-events: none;" text-anchor="end" dy=".35em" y="4.285714285714286" x="-6">3</text></g><g transform="translate(650,376.4285714285714)" class="node"><rect style="fill: rgb(102, 102, 102);" width="0" height="2.142857142857143"><title>33
1</title></rect><text style="font-size: 11px; font-family: Arial,Helvetica; pointer-events: none;" text-anchor="end" dy=".35em" y="1.0714285714285714" x="-6">33</text></g><g transform="translate(650,388.57142857142856)" class="node"><rect style="fill: rgb(102, 102, 102);" width="0" height="2.142857142857143"><title>36
1</title></rect><text style="font-size: 11px; font-family: Arial,Helvetica; pointer-events: none;" text-anchor="end" dy=".35em" y="1.0714285714285714" x="-6">36</text></g><g transform="translate(650,400.7142857142857)" class="node"><rect style="fill: rgb(102, 102, 102);" width="0" height="17.142857142857142"><title>4
8</title></rect><text style="font-size: 11px; font-family: Arial,Helvetica; pointer-events: none;" text-anchor="end" dy=".35em" y="8.571428571428571" x="-6">4</text></g><g transform="translate(650,427.8571428571429)" class="node"><rect style="fill: rgb(102, 102, 102);" width="0" height="17.142857142857142"><title>5
8</title></rect><text style="font-size: 11px; font-family: Arial,Helvetica; pointer-events: none;" text-anchor="end" dy=".35em" y="8.571428571428571" x="-6">5</text></g><g transform="translate(650,455.00000000000006)" class="node"><rect style="fill: rgb(102, 102, 102);" width="0" height="6.428571428571429"><title>6
3</title></rect><text style="font-size: 11px; font-family: Arial,Helvetica; pointer-events: none;" text-anchor="end" dy=".35em" y="3.2142857142857144" x="-6">6</text></g><g transform="translate(650,471.4285714285715)" class="node"><rect style="fill: rgb(102, 102, 102);" width="0" height="2.142857142857143"><title>7
1</title></rect><text style="font-size: 11px; font-family: Arial,Helvetica; pointer-events: none;" text-anchor="end" dy=".35em" y="1.0714285714285714" x="-6">7</text></g><g transform="translate(650,483.57142857142867)" class="node"><rect style="fill: rgb(102, 102, 102);" width="0" height="2.142857142857143"><title>8
1</title></rect><text style="font-size: 11px; font-family: Arial,Helvetica; pointer-events: none;" text-anchor="end" dy=".35em" y="1.0714285714285714" x="-6">8</text></g><g transform="translate(650,495.71428571428584)" class="node"><rect style="fill: rgb(102, 102, 102);" width="0" height="4.285714285714286"><title>9
2</title></rect><text style="font-size: 11px; font-family: Arial,Helvetica; pointer-events: none;" text-anchor="end" dy=".35em" y="2.142857142857143" x="-6">9</text></g><g transform="translate(433.3333333333333,75)" class="node"><rect style="" width="0" height="132.85714285714286"><title>
62</title></rect><text style="font-size: 11px; font-family: Arial,Helvetica; pointer-events: none;" text-anchor="end" dy=".35em" y="66.42857142857143" x="-6"></text></g><g transform="translate(433.3333333333333,217.85714285714286)" class="node"><rect style="" width="0" height="2.142857142857143"><title>0.5
1</title></rect><text style="font-size: 11px; font-family: Arial,Helvetica; pointer-events: none;" text-anchor="end" dy=".35em" y="1.0714285714285714" x="-6">0.5</text></g><g transform="translate(433.3333333333333,230)" class="node"><rect style="" width="0" height="49.285714285714285"><title>1
23</title></rect><text style="font-size: 11px; font-family: Arial,Helvetica; pointer-events: none;" text-anchor="end" dy=".35em" y="24.642857142857142" x="-6">1</text></g><g transform="translate(433.3333333333333,289.2857142857143)" class="node"><rect style="" width="0" height="4.285714285714286"><title>12
2</title></rect><text style="font-size: 11px; font-family: Arial,Helvetica; pointer-events: none;" text-anchor="end" dy=".35em" y="2.142857142857143" x="-6">12</text></g><g transform="translate(433.3333333333333,303.57142857142856)" class="node"><rect style="" width="0" height="2.142857142857143"><title>14
1</title></rect><text style="font-size: 11px; font-family: Arial,Helvetica; pointer-events: none;" text-anchor="end" dy=".35em" y="1.0714285714285714" x="-6">14</text></g><g transform="translate(433.3333333333333,315.7142857142857)" class="node"><rect style="" width="0" height="2.142857142857143"><title>18
1</title></rect><text style="font-size: 11px; font-family: Arial,Helvetica; pointer-events: none;" text-anchor="end" dy=".35em" y="1.0714285714285714" x="-6">18</text></g><g transform="translate(433.3333333333333,327.8571428571429)" class="node"><rect style="" width="0" height="19.285714285714285"><title>2
9</title></rect><text style="font-size: 11px; font-family: Arial,Helvetica; pointer-events: none;" text-anchor="end" dy=".35em" y="9.642857142857142" x="-6">2</text></g><g transform="translate(433.3333333333333,357.14285714285717)" class="node"><rect style="" width="0" height="12.857142857142858"><title>3
6</title></rect><text style="font-size: 11px; font-family: Arial,Helvetica; pointer-events: none;" text-anchor="end" dy=".35em" y="6.428571428571429" x="-6">3</text></g><g transform="translate(433.3333333333333,380)" class="node"><rect style="" width="0" height="4.285714285714286"><title>4
2</title></rect><text style="font-size: 11px; font-family: Arial,Helvetica; pointer-events: none;" text-anchor="end" dy=".35em" y="2.142857142857143" x="-6">4</text></g><g transform="translate(433.3333333333333,394.2857142857143)" class="node"><rect style="" width="0" height="6.428571428571429"><title>5
3</title></rect><text style="font-size: 11px; font-family: Arial,Helvetica; pointer-events: none;" text-anchor="end" dy=".35em" y="3.2142857142857144" x="-6">5</text></g><g transform="translate(433.3333333333333,410.7142857142857)" class="node"><rect style="" width="0" height="2.142857142857143"><title>6
1</title></rect><text style="font-size: 11px; font-family: Arial,Helvetica; pointer-events: none;" text-anchor="end" dy=".35em" y="1.0714285714285714" x="-6">6</text></g><g transform="translate(433.3333333333333,422.8571428571429)" class="node"><rect style="" width="0" height="2.142857142857143"><title>8
1</title></rect><text style="font-size: 11px; font-family: Arial,Helvetica; pointer-events: none;" text-anchor="end" dy=".35em" y="1.0714285714285714" x="-6">8</text></g><g transform="translate(216.66666666666666,110)" class="node"><rect style="" width="0" height="30"><title>all-eater
14</title></rect><text style="font-size: 11px; font-family: Arial,Helvetica; pointer-events: none;" text-anchor="start" dy=".35em" y="15" x="6">all-eater</text></g><g transform="translate(216.66666666666666,150)" class="node"><rect style="" width="0" height="53.57142857142857"><title>all-eater, but eating less meat
25</title></rect><text style="font-size: 11px; font-family: Arial,Helvetica; pointer-events: none;" text-anchor="start" dy=".35em" y="26.785714285714285" x="6">all-eater, but eating less meat</text></g><g transform="translate(216.66666666666666,213.57142857142856)" class="node"><rect style="" width="0" height="10.714285714285714"><title>pescetarian
5</title></rect><text style="font-size: 11px; font-family: Arial,Helvetica; pointer-events: none;" text-anchor="start" dy=".35em" y="5.357142857142857" x="6">pescetarian</text></g><g transform="translate(216.66666666666666,234.28571428571428)" class="node"><rect style="" width="0" height="70.71428571428571"><title>vegan
33</title></rect><text style="font-size: 11px; font-family: Arial,Helvetica; pointer-events: none;" text-anchor="start" dy=".35em" y="35.357142857142854" x="6">vegan</text></g><g transform="translate(216.66666666666666,315)" class="node"><rect style="" width="0" height="75"><title>vegetarian
35</title></rect><text style="font-size: 11px; font-family: Arial,Helvetica; pointer-events: none;" text-anchor="start" dy=".35em" y="37.5" x="6">vegetarian</text></g></g></g></svg>