<svg version="1.1" xmlns="http://www.w3.org/2000/svg" height="520" width="650"><g transform="translate(0,10)"><g><path style="stroke-width: 45; fill: none; stroke: rgb(191, 105, 105); stroke-opacity: 0.4;" d="M0,177.5C325,177.5 325,81.07142857142846 650,81.07142857142846" class="link"></path><path style="stroke-width: 23.5714; fill: none; stroke: rgb(191, 105, 105); stroke-opacity: 0.4;" d="M0,136.78571428571428C325,136.78571428571428 325,11.785714285714171 650,11.785714285714171" class="link"></path><path style="stroke-width: 17.1429; fill: none; stroke: rgb(191, 105, 105); stroke-opacity: 0.4;" d="M0,230.00000000000003C325,230.00000000000003 325,232.85714285714275 650,232.85714285714275" class="link"></path><path style="stroke-width: 15; fill: none; stroke: rgb(105, 191, 191); stroke-opacity: 0.4;" d="M0,320.35714285714283C325,320.35714285714283 325,111.07142857142846 650,111.07142857142846" class="link"></path><path style="stroke-width: 12.8571; fill: none; stroke: rgb(191, 105, 105); stroke-opacity: 0.4;" d="M0,272.8571428571429C325,272.8571428571429 325,434.28571428571433 650,434.28571428571433" class="link"></path><path style="stroke-width: 12.8571; fill: none; stroke: rgb(105, 191, 191); stroke-opacity: 0.4;" d="M0,338.57142857142856C325,338.57142857142856 325,247.85714285714272 650,247.85714285714272" class="link"></path><path style="stroke-width: 10.7143; fill: none; stroke: rgb(191, 105, 105); stroke-opacity: 0.4;" d="M0,261.07142857142856C325,261.07142857142856 325,406.07142857142856 650,406.07142857142856" class="link"></path><path style="stroke-width: 8.57143; fill: none; stroke: rgb(105, 191, 191); stroke-opacity: 0.4;" d="M0,308.57142857142856C325,308.57142857142856 325,27.85714285714274 650,27.85714285714274" class="link"></path><path style="stroke-width: 6.42857; fill: none; stroke: rgb(191, 105, 105); stroke-opacity: 0.4;" d="M0,282.5C325,282.5 325,458.2142857142858 650,458.2142857142858" class="link"></path><path style="stroke-width: 6.42857; fill: none; stroke: rgb(191, 105, 105); stroke-opacity: 0.4;" d="M0,207.5C325,207.5 325,156.07142857142844 650,156.07142857142844" class="link"></path><path style="stroke-width: 6.42857; fill: none; stroke: rgb(191, 105, 105); stroke-opacity: 0.4;" d="M0,151.78571428571428C325,151.78571428571428 325,45.35714285714274 650,45.35714285714274" class="link"></path><path style="stroke-width: 6.42857; fill: none; stroke: rgb(105, 191, 191); stroke-opacity: 0.4;" d="M0,367.5C325,367.5 325,414.64285714285717 650,414.64285714285717" class="link"></path><path style="stroke-width: 4.28571; fill: none; stroke: rgb(191, 105, 105); stroke-opacity: 0.4;" d="M0,292.14285714285717C325,292.14285714285717 325,497.857142857143 650,497.857142857143" class="link"></path><path style="stroke-width: 4.28571; fill: none; stroke: rgb(191, 105, 105); stroke-opacity: 0.4;" d="M0,253.57142857142856C325,253.57142857142856 325,360 650,360" class="link"></path><path style="stroke-width: 4.28571; fill: none; stroke: rgb(191, 105, 105); stroke-opacity: 0.4;" d="M0,217.14285714285714C325,217.14285714285714 325,187.85714285714275 650,187.85714285714275" class="link"></path><path style="stroke-width: 4.28571; fill: none; stroke: rgb(191, 105, 105); stroke-opacity: 0.4;" d="M0,244.99999999999997C325,244.99999999999997 325,304.99999999999994 650,304.99999999999994" class="link"></path><path style="stroke-width: 4.28571; fill: none; stroke: rgb(191, 105, 105); stroke-opacity: 0.4;" d="M0,212.85714285714286C325,212.85714285714286 325,171.4285714285713 650,171.4285714285713" class="link"></path><path style="stroke-width: 4.28571; fill: none; stroke: rgb(105, 191, 191); stroke-opacity: 0.4;" d="M0,357.8571428571429C325,357.8571428571429 325,364.2857142857143 650,364.2857142857143" class="link"></path><path style="stroke-width: 4.28571; fill: none; stroke: rgb(105, 191, 191); stroke-opacity: 0.4;" d="M0,372.8571428571429C325,372.8571428571429 325,442.8571428571429 650,442.8571428571429" class="link"></path><path style="stroke-width: 4.28571; fill: none; stroke: rgb(105, 191, 191); stroke-opacity: 0.4;" d="M0,351.42857142857144C325,351.42857142857144 325,309.2857142857142 650,309.2857142857142" class="link"></path><path style="stroke-width: 2.14286; fill: none; stroke: rgb(191, 105, 105); stroke-opacity: 0.4;" d="M0,286.7857142857142C325,286.7857142857142 325,472.50000000000006 650,472.50000000000006" class="link"></path><path style="stroke-width: 2.14286; fill: none; stroke: rgb(191, 105, 105); stroke-opacity: 0.4;" d="M0,239.64285714285714C325,239.64285714285714 325,277.4999999999999 650,277.4999999999999" class="link"></path><path style="stroke-width: 2.14286; fill: none; stroke: rgb(191, 105, 105); stroke-opacity: 0.4;" d="M0,250.35714285714286C325,250.35714285714286 325,346.7857142857142 650,346.7857142857142" class="link"></path><path style="stroke-width: 2.14286; fill: none; stroke: rgb(191, 105, 105); stroke-opacity: 0.4;" d="M0,220.35714285714286C325,220.35714285714286 325,213.2142857142856 650,213.2142857142856" class="link"></path><path style="stroke-width: 2.14286; fill: none; stroke: rgb(191, 105, 105); stroke-opacity: 0.4;" d="M0,248.21428571428572C325,248.21428571428572 325,322.4999999999999 650,322.4999999999999" class="link"></path><path style="stroke-width: 2.14286; fill: none; stroke: rgb(191, 105, 105); stroke-opacity: 0.4;" d="M0,201.07142857142858C325,201.07142857142858 325,129.64285714285703 650,129.64285714285703" class="link"></path><path style="stroke-width: 2.14286; fill: none; stroke: rgb(191, 105, 105); stroke-opacity: 0.4;" d="M0,203.21428571428572C325,203.21428571428572 325,141.78571428571416 650,141.78571428571416" class="link"></path><path style="stroke-width: 2.14286; fill: none; stroke: rgb(191, 105, 105); stroke-opacity: 0.4;" d="M0,288.9285714285714C325,288.9285714285714 325,484.6428571428572 650,484.6428571428572" class="link"></path><path style="stroke-width: 2.14286; fill: none; stroke: rgb(191, 105, 105); stroke-opacity: 0.4;" d="M0,241.7857142857143C325,241.7857142857143 325,291.78571428571416 650,291.78571428571416" class="link"></path><path style="stroke-width: 2.14286; fill: none; stroke: rgb(105, 191, 191); stroke-opacity: 0.4;" d="M0,361.07142857142856C325,361.07142857142856 325,377.49999999999994 650,377.49999999999994" class="link"></path><path style="stroke-width: 2.14286; fill: none; stroke: rgb(105, 191, 191); stroke-opacity: 0.4;" d="M0,346.07142857142856C325,346.07142857142856 325,265.3571428571427 650,265.3571428571427" class="link"></path><path style="stroke-width: 2.14286; fill: none; stroke: rgb(105, 191, 191); stroke-opacity: 0.4;" d="M0,348.21428571428567C325,348.21428571428567 325,279.64285714285705 650,279.64285714285705" class="link"></path><path style="stroke-width: 2.14286; fill: none; stroke: rgb(105, 191, 191); stroke-opacity: 0.4;" d="M0,331.07142857142856C325,331.07142857142856 325,201.07142857142847 650,201.07142857142847" class="link"></path><path style="stroke-width: 2.14286; fill: none; stroke: rgb(105, 191, 191); stroke-opacity: 0.4;" d="M0,328.9285714285714C325,328.9285714285714 325,174.64285714285703 650,174.64285714285703" class="link"></path><path style="stroke-width: 2.14286; fill: none; stroke: rgb(105, 191, 191); stroke-opacity: 0.4;" d="M0,363.21428571428567C325,363.21428571428567 325,389.6428571428571 650,389.6428571428571" class="link"></path><path style="stroke-width: 2.14286; fill: none; stroke: rgb(105, 191, 191); stroke-opacity: 0.4;" d="M0,354.6428571428571C325,354.6428571428571 325,334.64285714285705 650,334.64285714285705" class="link"></path></g><g><g transform="translate(0,125)" class="node"><rect style="" width="0" height="169.28571428571428"><title>female
79</title></rect><text style="font-size: 11px; font-family: Arial,Helvetica; pointer-events: none;" text-anchor="start" dy=".35em" y="84.64285714285714" x="6">female</text></g><g transform="translate(0,304.2857142857143)" class="node"><rect style="" width="0" height="70.71428571428571"><title>male
33</title></rect><text style="font-size: 11px; font-family: Arial,Helvetica; pointer-events: none;" text-anchor="start" dy=".35em" y="35.357142857142854" x="6">male</text></g><g transform="translate(650,-1.1368683772161603e-13)" class="node"><rect style="fill: rgb(102, 102, 102);" width="0" height="32.14285714285714"><title>
15</title></rect><text style="font-size: 11px; font-family: Arial,Helvetica; pointer-events: none;" text-anchor="end" dy=".35em" y="16.07142857142857" x="-6"></text></g><g transform="translate(650,42.142857142857025)" class="node"><rect style="fill: rgb(102, 102, 102);" width="0" height="6.428571428571429"><title>0.5
3</title></rect><text style="font-size: 11px; font-family: Arial,Helvetica; pointer-events: none;" text-anchor="end" dy=".35em" y="3.2142857142857144" x="-6">0.5</text></g><g transform="translate(650,58.571428571428456)" class="node"><rect style="fill: rgb(102, 102, 102);" width="0" height="60"><title>1
28</title></rect><text style="font-size: 11px; font-family: Arial,Helvetica; pointer-events: none;" text-anchor="end" dy=".35em" y="30" x="-6">1</text></g><g transform="translate(650,128.57142857142844)" class="node"><rect style="fill: rgb(102, 102, 102);" width="0" height="2.142857142857143"><title>1.8
1</title></rect><text style="font-size: 11px; font-family: Arial,Helvetica; pointer-events: none;" text-anchor="end" dy=".35em" y="1.0714285714285714" x="-6">1.8</text></g><g transform="translate(650,140.71428571428558)" class="node"><rect style="fill: rgb(102, 102, 102);" width="0" height="2.142857142857143"><title>11
1</title></rect><text style="font-size: 11px; font-family: Arial,Helvetica; pointer-events: none;" text-anchor="end" dy=".35em" y="1.0714285714285714" x="-6">11</text></g><g transform="translate(650,152.85714285714272)" class="node"><rect style="fill: rgb(102, 102, 102);" width="0" height="6.428571428571429"><title>13
3</title></rect><text style="font-size: 11px; font-family: Arial,Helvetica; pointer-events: none;" text-anchor="end" dy=".35em" y="3.2142857142857144" x="-6">13</text></g><g transform="translate(650,169.28571428571416)" class="node"><rect style="fill: rgb(102, 102, 102);" width="0" height="6.428571428571429"><title>15
3</title></rect><text style="font-size: 11px; font-family: Arial,Helvetica; pointer-events: none;" text-anchor="end" dy=".35em" y="3.2142857142857144" x="-6">15</text></g><g transform="translate(650,185.7142857142856)" class="node"><rect style="fill: rgb(102, 102, 102);" width="0" height="4.285714285714286"><title>16
2</title></rect><text style="font-size: 11px; font-family: Arial,Helvetica; pointer-events: none;" text-anchor="end" dy=".35em" y="2.142857142857143" x="-6">16</text></g><g transform="translate(650,199.9999999999999)" class="node"><rect style="fill: rgb(102, 102, 102);" width="0" height="2.142857142857143"><title>18
1</title></rect><text style="font-size: 11px; font-family: Arial,Helvetica; pointer-events: none;" text-anchor="end" dy=".35em" y="1.0714285714285714" x="-6">18</text></g><g transform="translate(650,212.14285714285703)" class="node"><rect style="fill: rgb(102, 102, 102);" width="0" height="2.142857142857143"><title>19
1</title></rect><text style="font-size: 11px; font-family: Arial,Helvetica; pointer-events: none;" text-anchor="end" dy=".35em" y="1.0714285714285714" x="-6">19</text></g><g transform="translate(650,224.28571428571416)" class="node"><rect style="fill: rgb(102, 102, 102);" width="0" height="30"><title>2
14</title></rect><text style="font-size: 11px; font-family: Arial,Helvetica; pointer-events: none;" text-anchor="end" dy=".35em" y="15" x="-6">2</text></g><g transform="translate(650,264.28571428571416)" class="node"><rect style="fill: rgb(102, 102, 102);" width="0" height="2.142857142857143"><title>21
1</title></rect><text style="font-size: 11px; font-family: Arial,Helvetica; pointer-events: none;" text-anchor="end" dy=".35em" y="1.0714285714285714" x="-6">21</text></g><g transform="translate(650,276.42857142857133)" class="node"><rect style="fill: rgb(102, 102, 102);" width="0" height="4.285714285714286"><title>22
2</title></rect><text style="font-size: 11px; font-family: Arial,Helvetica; pointer-events: none;" text-anchor="end" dy=".35em" y="2.142857142857143" x="-6">22</text></g><g transform="translate(650,290.7142857142856)" class="node"><rect style="fill: rgb(102, 102, 102);" width="0" height="2.142857142857143"><title>23
1</title></rect><text style="font-size: 11px; font-family: Arial,Helvetica; pointer-events: none;" text-anchor="end" dy=".35em" y="1.0714285714285714" x="-6">23</text></g><g transform="translate(650,302.8571428571428)" class="node"><rect style="fill: rgb(102, 102, 102);" width="0" height="8.571428571428571"><title>24
4</title></rect><text style="font-size: 11px; font-family: Arial,Helvetica; pointer-events: none;" text-anchor="end" dy=".35em" y="4.285714285714286" x="-6">24</text></g><g transform="translate(650,321.42857142857133)" class="node"><rect style="fill: rgb(102, 102, 102);" width="0" height="2.142857142857143"><title>25
1</title></rect><text style="font-size: 11px; font-family: Arial,Helvetica; pointer-events: none;" text-anchor="end" dy=".35em" y="1.0714285714285714" x="-6">25</text></g><g transform="translate(650,333.5714285714285)" class="node"><rect style="fill: rgb(102, 102, 102);" width="0" height="2.142857142857143"><title>26
1</title></rect><text style="font-size: 11px; font-family: Arial,Helvetica; pointer-events: none;" text-anchor="end" dy=".35em" y="1.0714285714285714" x="-6">26</text></g><g transform="translate(650,345.71428571428567)" class="node"><rect style="fill: rgb(102, 102, 102);" width="0" height="2.142857142857143"><title>29
1</title></rect><text style="font-size: 11px; font-family: Arial,Helvetica; pointer-events: none;" text-anchor="end" dy=".35em" y="1.0714285714285714" x="-6">29</text></g><g transform="translate(650,357.85714285714283)" class="node"><rect style="fill: rgb(102, 102, 102);" width="0" height="8.571428571428571"><title>3
4</title></rect><text style="font-size: 11px; font-family: Arial,Helvetica; pointer-events: none;" text-anchor="end" dy=".35em" y="4.285714285714286" x="-6">3</text></g><g transform="translate(650,376.4285714285714)" class="node"><rect style="fill: rgb(102, 102, 102);" width="0" height="2.142857142857143"><title>33
1</title></rect><text style="font-size: 11px; font-family: Arial,Helvetica; pointer-events: none;" text-anchor="end" dy=".35em" y="1.0714285714285714" x="-6">33</text></g><g transform="translate(650,388.57142857142856)" class="node"><rect style="fill: rgb(102, 102, 102);" width="0" height="2.142857142857143"><title>36
1</title></rect><text style="font-size: 11px; font-family: Arial,Helvetica; pointer-events: none;" text-anchor="end" dy=".35em" y="1.0714285714285714" x="-6">36</text></g><g transform="translate(650,400.7142857142857)" class="node"><rect style="fill: rgb(102, 102, 102);" width="0" height="17.142857142857142"><title>4
8</title></rect><text style="font-size: 11px; font-family: Arial,Helvetica; pointer-events: none;" text-anchor="end" dy=".35em" y="8.571428571428571" x="-6">4</text></g><g transform="translate(650,427.8571428571429)" class="node"><rect style="fill: rgb(102, 102, 102);" width="0" height="17.142857142857142"><title>5
8</title></rect><text style="font-size: 11px; font-family: Arial,Helvetica; pointer-events: none;" text-anchor="end" dy=".35em" y="8.571428571428571" x="-6">5</text></g><g transform="translate(650,455.00000000000006)" class="node"><rect style="fill: rgb(102, 102, 102);" width="0" height="6.428571428571429"><title>6
3</title></rect><text style="font-size: 11px; font-family: Arial,Helvetica; pointer-events: none;" text-anchor="end" dy=".35em" y="3.2142857142857144" x="-6">6</text></g><g transform="translate(650,471.4285714285715)" class="node"><rect style="fill: rgb(102, 102, 102);" width="0" height="2.142857142857143"><title>7
1</title></rect><text style="font-size: 11px; font-family: Arial,Helvetica; pointer-events: none;" text-anchor="end" dy=".35em" y="1.0714285714285714" x="-6">7</text></g><g transform="translate(650,483.57142857142867)" class="node"><rect style="fill: rgb(102, 102, 102);" width="0" height="2.142857142857143"><title>8
1</title></rect><text style="font-size: 11px; font-family: Arial,Helvetica; pointer-events: none;" text-anchor="end" dy=".35em" y="1.0714285714285714" x="-6">8</text></g><g transform="translate(650,495.71428571428584)" class="node"><rect style="fill: rgb(102, 102, 102);" width="0" height="4.285714285714286"><title>9
2</title></rect><text style="font-size: 11px; font-family: Arial,Helvetica; pointer-events: none;" text-anchor="end" dy=".35em" y="2.142857142857143" x="-6">9</text></g></g></g></svg>