<svg version="1.1" xmlns="http://www.w3.org/2000/svg" height="520" width="650"><g transform="translate(0,10)"><g><path style="stroke-width: 115; fill: none; stroke: rgb(254, 99, 113); stroke-opacity: 0.4;" d="M0,281.96428571428567C325,281.96428571428567 325,413.75 650,413.75" class="link"></path><path style="stroke-width: 102.679; fill: none; stroke: rgb(254, 99, 113); stroke-opacity: 0.4;" d="M0,173.125C325,173.125 325,262.0535714285714 650,262.0535714285714" class="link"></path><path style="stroke-width: 73.9286; fill: none; stroke: rgb(254, 99, 113); stroke-opacity: 0.4;" d="M0,76.60714285714288C325,76.60714285714288 325,104.46428571428571 650,104.46428571428571" class="link"></path><path style="stroke-width: 32.8571; fill: none; stroke: rgb(16, 69, 132); stroke-opacity: 0.4;" d="M0,439.82142857142856C325,439.82142857142856 325,329.82142857142856 650,329.82142857142856" class="link"></path><path style="stroke-width: 32.8571; fill: none; stroke: rgb(16, 69, 132); stroke-opacity: 0.4;" d="M0,365.8928571428571C325,365.8928571428571 325,41.07142857142857 650,41.07142857142857" class="link"></path><path style="stroke-width: 28.75; fill: none; stroke: rgb(16, 69, 132); stroke-opacity: 0.4;" d="M0,396.6964285714285C325,396.6964285714285 325,155.80357142857142 650,155.80357142857142" class="link"></path><path style="stroke-width: 28.75; fill: none; stroke: rgb(16, 69, 132); stroke-opacity: 0.4;" d="M0,470.62499999999994C325,470.62499999999994 325,485.625 650,485.625" class="link"></path><path style="stroke-width: 24.6429; fill: none; stroke: rgb(254, 99, 113); stroke-opacity: 0.4;" d="M0,27.321428571428598C325,27.321428571428598 325,12.32142857142857 650,12.32142857142857" class="link"></path><path style="stroke-width: 12.3214; fill: none; stroke: rgb(16, 69, 132); stroke-opacity: 0.4;" d="M0,417.2321428571428C325,417.2321428571428 325,194.55357142857142 650,194.55357142857142" class="link"></path><path style="stroke-width: 8.21429; fill: none; stroke: rgb(254, 99, 113); stroke-opacity: 0.4;" d="M0,117.67857142857144C325,117.67857142857144 325,184.28571428571428 650,184.28571428571428" class="link"></path></g><g><g transform="translate(0,15.000000000000028)" class="node"><rect style="" width="0" height="324.46428571428567"><title>female
79</title></rect><text style="font-size: 11px; font-family: Arial,Helvetica; pointer-events: none;" text-anchor="start" dy=".35em" y="162.23214285714283" x="6">female</text></g><g transform="translate(0,349.46428571428567)" class="node"><rect style="" width="0" height="135.53571428571428"><title>male
33</title></rect><text style="font-size: 11px; font-family: Arial,Helvetica; pointer-events: none;" text-anchor="start" dy=".35em" y="67.76785714285714" x="6">male</text></g><g transform="translate(650,0)" class="node"><rect style="fill: rgb(102, 102, 102);" width="0" height="57.49999999999999"><title>all-eater
14</title></rect><text style="font-size: 11px; font-family: Arial,Helvetica; pointer-events: none;" text-anchor="end" dy=".35em" y="28.749999999999996" x="-6">all-eater</text></g><g transform="translate(650,67.5)" class="node"><rect style="fill: rgb(102, 102, 102);" width="0" height="102.67857142857142"><title>all-eater, but eating less meat
25</title></rect><text style="font-size: 11px; font-family: Arial,Helvetica; pointer-events: none;" text-anchor="end" dy=".35em" y="51.33928571428571" x="-6">all-eater, but eating less meat</text></g><g transform="translate(650,180.17857142857142)" class="node"><rect style="fill: rgb(102, 102, 102);" width="0" height="20.535714285714285"><title>pescetarian
5</title></rect><text style="font-size: 11px; font-family: Arial,Helvetica; pointer-events: none;" text-anchor="end" dy=".35em" y="10.267857142857142" x="-6">pescetarian</text></g><g transform="translate(650,210.7142857142857)" class="node"><rect style="fill: rgb(102, 102, 102);" width="0" height="135.53571428571428"><title>vegan
33</title></rect><text style="font-size: 11px; font-family: Arial,Helvetica; pointer-events: none;" text-anchor="end" dy=".35em" y="67.76785714285714" x="-6">vegan</text></g><g transform="translate(650,356.25)" class="node"><rect style="fill: rgb(102, 102, 102);" width="0" height="143.75"><title>vegetarian
35</title></rect><text style="font-size: 11px; font-family: Arial,Helvetica; pointer-events: none;" text-anchor="end" dy=".35em" y="71.875" x="-6">vegetarian</text></g></g></g></svg>