<svg version="1.1" xmlns="http://www.w3.org/2000/svg" height="520" width="650"><g transform="translate(0,10)"><g><path style="stroke-width: 45; fill: none; stroke: rgb(16, 69, 132); stroke-opacity: 0.4;" d="M0,177.5C162.5,177.5 162.5,81.07142857142846 325,81.07142857142846" class="link"></path><path style="stroke-width: 32.1429; fill: none; stroke: rgb(191, 176, 105); stroke-opacity: 0.4;" d="M325,100.35714285714273C487.5,100.35714285714273 487.5,271.78571428571433 650,271.78571428571433" class="link"></path><path style="stroke-width: 23.5714; fill: none; stroke: rgb(16, 69, 132); stroke-opacity: 0.4;" d="M0,136.78571428571428C162.5,136.78571428571428 162.5,11.785714285714171 325,11.785714285714171" class="link"></path><path style="stroke-width: 17.1429; fill: none; stroke: rgb(16, 69, 132); stroke-opacity: 0.4;" d="M0,230.00000000000003C162.5,230.00000000000003 162.5,232.85714285714275 325,232.85714285714275" class="link"></path><path style="stroke-width: 15; fill: none; stroke: rgb(254, 99, 113); stroke-opacity: 0.4;" d="M0,320.35714285714283C162.5,320.35714285714283 162.5,111.07142857142846 325,111.07142857142846" class="link"></path><path style="stroke-width: 15; fill: none; stroke: rgb(191, 176, 105); stroke-opacity: 0.4;" d="M325,76.78571428571416C487.5,76.78571428571416 487.5,203.92857142857144 650,203.92857142857144" class="link"></path><path style="stroke-width: 12.8571; fill: none; stroke: rgb(16, 69, 132); stroke-opacity: 0.4;" d="M0,272.8571428571429C162.5,272.8571428571429 162.5,434.28571428571433 325,434.28571428571433" class="link"></path><path style="stroke-width: 12.8571; fill: none; stroke: rgb(254, 99, 113); stroke-opacity: 0.4;" d="M0,338.57142857142856C162.5,338.57142857142856 162.5,247.85714285714272 325,247.85714285714272" class="link"></path><path style="stroke-width: 10.7143; fill: none; stroke: rgb(16, 69, 132); stroke-opacity: 0.4;" d="M0,261.07142857142856C162.5,261.07142857142856 162.5,406.07142857142856 325,406.07142857142856" class="link"></path><path style="stroke-width: 10.7143; fill: none; stroke: rgb(170, 191, 105); stroke-opacity: 0.4;" d="M325,5.357142857142743C487.5,5.357142857142743 487.5,105.35714285714286 650,105.35714285714286" class="link"></path><path style="stroke-width: 10.7143; fill: none; stroke: rgb(105, 191, 146); stroke-opacity: 0.4;" d="M325,244.64285714285703C487.5,244.64285714285703 487.5,301.7857142857143 650,301.7857142857143" class="link"></path><path style="stroke-width: 8.57143; fill: none; stroke: rgb(254, 99, 113); stroke-opacity: 0.4;" d="M0,308.57142857142856C162.5,308.57142857142856 162.5,27.85714285714274 325,27.85714285714274" class="link"></path><path style="stroke-width: 8.57143; fill: none; stroke: rgb(191, 158, 105); stroke-opacity: 0.4;" d="M325,438.5714285714286C487.5,438.5714285714286 487.5,372.85714285714283 650,372.85714285714283" class="link"></path><path style="stroke-width: 8.57143; fill: none; stroke: rgb(170, 191, 105); stroke-opacity: 0.4;" d="M325,19.28571428571417C487.5,19.28571428571417 487.5,190 650,190" class="link"></path><path style="stroke-width: 6.42857; fill: none; stroke: rgb(16, 69, 132); stroke-opacity: 0.4;" d="M0,282.5C162.5,282.5 162.5,458.2142857142858 325,458.2142857142858" class="link"></path><path style="stroke-width: 6.42857; fill: none; stroke: rgb(16, 69, 132); stroke-opacity: 0.4;" d="M0,207.5C162.5,207.5 162.5,156.07142857142844 325,156.07142857142844" class="link"></path><path style="stroke-width: 6.42857; fill: none; stroke: rgb(16, 69, 132); stroke-opacity: 0.4;" d="M0,151.78571428571428C162.5,151.78571428571428 162.5,45.35714285714274 325,45.35714285714274" class="link"></path><path style="stroke-width: 6.42857; fill: none; stroke: rgb(254, 99, 113); stroke-opacity: 0.4;" d="M0,367.5C162.5,367.5 162.5,414.64285714285717 325,414.64285714285717" class="link"></path><path style="stroke-width: 6.42857; fill: none; stroke: rgb(191, 176, 105); stroke-opacity: 0.4;" d="M325,66.07142857142846C487.5,66.07142857142846 487.5,161.7857142857143 650,161.7857142857143" class="link"></path><path style="stroke-width: 6.42857; fill: none; stroke: rgb(170, 191, 105); stroke-opacity: 0.4;" d="M325,26.78571428571417C487.5,26.78571428571417 487.5,250.3571428571429 650,250.3571428571429" class="link"></path><path style="stroke-width: 6.42857; fill: none; stroke: rgb(105, 191, 146); stroke-opacity: 0.4;" d="M325,236.07142857142847C487.5,236.07142857142847 487.5,223.21428571428572 650,223.21428571428572" class="link"></path><path style="stroke-width: 4.28571; fill: none; stroke: rgb(16, 69, 132); stroke-opacity: 0.4;" d="M0,292.14285714285717C162.5,292.14285714285717 162.5,497.857142857143 325,497.857142857143" class="link"></path><path style="stroke-width: 4.28571; fill: none; stroke: rgb(16, 69, 132); stroke-opacity: 0.4;" d="M0,253.57142857142856C162.5,253.57142857142856 162.5,360 325,360" class="link"></path><path style="stroke-width: 4.28571; fill: none; stroke: rgb(16, 69, 132); stroke-opacity: 0.4;" d="M0,217.14285714285714C162.5,217.14285714285714 162.5,187.85714285714275 325,187.85714285714275" class="link"></path><path style="stroke-width: 4.28571; fill: none; stroke: rgb(16, 69, 132); stroke-opacity: 0.4;" d="M0,244.99999999999997C162.5,244.99999999999997 162.5,304.99999999999994 325,304.99999999999994" class="link"></path><path style="stroke-width: 4.28571; fill: none; stroke: rgb(16, 69, 132); stroke-opacity: 0.4;" d="M0,212.85714285714286C162.5,212.85714285714286 162.5,171.4285714285713 325,171.4285714285713" class="link"></path><path style="stroke-width: 4.28571; fill: none; stroke: rgb(254, 99, 113); stroke-opacity: 0.4;" d="M0,357.8571428571429C162.5,357.8571428571429 162.5,364.2857142857143 325,364.2857142857143" class="link"></path><path style="stroke-width: 4.28571; fill: none; stroke: rgb(254, 99, 113); stroke-opacity: 0.4;" d="M0,372.8571428571429C162.5,372.8571428571429 162.5,442.8571428571429 325,442.8571428571429" class="link"></path><path style="stroke-width: 4.28571; fill: none; stroke: rgb(254, 99, 113); stroke-opacity: 0.4;" d="M0,351.42857142857144C162.5,351.42857142857144 162.5,309.2857142857142 325,309.2857142857142" class="link"></path><path style="stroke-width: 4.28571; fill: none; stroke: rgb(191, 158, 105); stroke-opacity: 0.4;" d="M325,432.1428571428572C487.5,432.1428571428572 487.5,320.00000000000006 650,320.00000000000006" class="link"></path><path style="stroke-width: 4.28571; fill: none; stroke: rgb(191, 176, 105); stroke-opacity: 0.4;" d="M325,60.7142857142856C487.5,60.7142857142856 487.5,112.85714285714285 650,112.85714285714285" class="link"></path><path style="stroke-width: 4.28571; fill: none; stroke: rgb(152, 191, 105); stroke-opacity: 0.4;" d="M325,459.2857142857144C487.5,459.2857142857144 487.5,379.28571428571433 650,379.28571428571433" class="link"></path><path style="stroke-width: 4.28571; fill: none; stroke: rgb(135, 191, 105); stroke-opacity: 0.4;" d="M325,409.28571428571433C487.5,409.28571428571433 487.5,315.7142857142858 650,315.7142857142858" class="link"></path><path style="stroke-width: 4.28571; fill: none; stroke: rgb(135, 191, 105); stroke-opacity: 0.4;" d="M325,413.5714285714286C487.5,413.5714285714286 487.5,366.42857142857144 650,366.42857142857144" class="link"></path><path style="stroke-width: 4.28571; fill: none; stroke: rgb(135, 191, 105); stroke-opacity: 0.4;" d="M325,402.8571428571429C487.5,402.8571428571429 487.5,171.42857142857144 650,171.42857142857144" class="link"></path><path style="stroke-width: 4.28571; fill: none; stroke: rgb(105, 191, 146); stroke-opacity: 0.4;" d="M325,252.14285714285703C487.5,252.14285714285703 487.5,351.42857142857144 650,351.42857142857144" class="link"></path><path style="stroke-width: 4.28571; fill: none; stroke: rgb(105, 191, 146); stroke-opacity: 0.4;" d="M325,226.4285714285713C487.5,226.4285714285713 487.5,119.28571428571428 650,119.28571428571428" class="link"></path><path style="stroke-width: 4.28571; fill: none; stroke: rgb(105, 129, 191); stroke-opacity: 0.4;" d="M325,304.99999999999994C487.5,304.99999999999994 487.5,125.71428571428571 650,125.71428571428571" class="link"></path><path style="stroke-width: 4.28571; fill: none; stroke: rgb(152, 105, 191); stroke-opacity: 0.4;" d="M325,171.4285714285713C487.5,171.4285714285713 487.5,215.71428571428572 650,215.71428571428572" class="link"></path><path style="stroke-width: 2.14286; fill: none; stroke: rgb(16, 69, 132); stroke-opacity: 0.4;" d="M0,286.7857142857142C162.5,286.7857142857142 162.5,472.50000000000006 325,472.50000000000006" class="link"></path><path style="stroke-width: 2.14286; fill: none; stroke: rgb(16, 69, 132); stroke-opacity: 0.4;" d="M0,239.64285714285714C162.5,239.64285714285714 162.5,277.4999999999999 325,277.4999999999999" class="link"></path><path style="stroke-width: 2.14286; fill: none; stroke: rgb(16, 69, 132); stroke-opacity: 0.4;" d="M0,250.35714285714286C162.5,250.35714285714286 162.5,346.7857142857142 325,346.7857142857142" class="link"></path><path style="stroke-width: 2.14286; fill: none; stroke: rgb(16, 69, 132); stroke-opacity: 0.4;" d="M0,220.35714285714286C162.5,220.35714285714286 162.5,213.2142857142856 325,213.2142857142856" class="link"></path><path style="stroke-width: 2.14286; fill: none; stroke: rgb(16, 69, 132); stroke-opacity: 0.4;" d="M0,248.21428571428572C162.5,248.21428571428572 162.5,322.4999999999999 325,322.4999999999999" class="link"></path><path style="stroke-width: 2.14286; fill: none; stroke: rgb(16, 69, 132); stroke-opacity: 0.4;" d="M0,201.07142857142858C162.5,201.07142857142858 162.5,129.64285714285703 325,129.64285714285703" class="link"></path><path style="stroke-width: 2.14286; fill: none; stroke: rgb(16, 69, 132); stroke-opacity: 0.4;" d="M0,203.21428571428572C162.5,203.21428571428572 162.5,141.78571428571416 325,141.78571428571416" class="link"></path><path style="stroke-width: 2.14286; fill: none; stroke: rgb(16, 69, 132); stroke-opacity: 0.4;" d="M0,288.9285714285714C162.5,288.9285714285714 162.5,484.6428571428572 325,484.6428571428572" class="link"></path><path style="stroke-width: 2.14286; fill: none; stroke: rgb(16, 69, 132); stroke-opacity: 0.4;" d="M0,241.7857142857143C162.5,241.7857142857143 162.5,291.78571428571416 325,291.78571428571416" class="link"></path><path style="stroke-width: 2.14286; fill: none; stroke: rgb(254, 99, 113); stroke-opacity: 0.4;" d="M0,361.07142857142856C162.5,361.07142857142856 162.5,377.49999999999994 325,377.49999999999994" class="link"></path><path style="stroke-width: 2.14286; fill: none; stroke: rgb(254, 99, 113); stroke-opacity: 0.4;" d="M0,346.07142857142856C162.5,346.07142857142856 162.5,265.3571428571427 325,265.3571428571427" class="link"></path><path style="stroke-width: 2.14286; fill: none; stroke: rgb(254, 99, 113); stroke-opacity: 0.4;" d="M0,348.21428571428567C162.5,348.21428571428567 162.5,279.64285714285705 325,279.64285714285705" class="link"></path><path style="stroke-width: 2.14286; fill: none; stroke: rgb(254, 99, 113); stroke-opacity: 0.4;" d="M0,331.07142857142856C162.5,331.07142857142856 162.5,201.07142857142847 325,201.07142857142847" class="link"></path><path style="stroke-width: 2.14286; fill: none; stroke: rgb(254, 99, 113); stroke-opacity: 0.4;" d="M0,328.9285714285714C162.5,328.9285714285714 162.5,174.64285714285703 325,174.64285714285703" class="link"></path><path style="stroke-width: 2.14286; fill: none; stroke: rgb(254, 99, 113); stroke-opacity: 0.4;" d="M0,363.21428571428567C162.5,363.21428571428567 162.5,389.6428571428571 325,389.6428571428571" class="link"></path><path style="stroke-width: 2.14286; fill: none; stroke: rgb(254, 99, 113); stroke-opacity: 0.4;" d="M0,354.6428571428571C162.5,354.6428571428571 162.5,334.64285714285705 325,334.64285714285705" class="link"></path><path style="stroke-width: 2.14286; fill: none; stroke: rgb(191, 141, 105); stroke-opacity: 0.4;" d="M325,472.50000000000006C487.5,472.50000000000006 487.5,325.3571428571429 650,325.3571428571429" class="link"></path><path style="stroke-width: 2.14286; fill: none; stroke: rgb(191, 158, 105); stroke-opacity: 0.4;" d="M325,428.92857142857144C487.5,428.92857142857144 487.5,236.0714285714286 650,236.0714285714286" class="link"></path><path style="stroke-width: 2.14286; fill: none; stroke: rgb(191, 158, 105); stroke-opacity: 0.4;" d="M325,443.92857142857144C487.5,443.92857142857144 487.5,398.92857142857144 650,398.92857142857144" class="link"></path><path style="stroke-width: 2.14286; fill: none; stroke: rgb(191, 176, 105); stroke-opacity: 0.4;" d="M325,117.49999999999987C487.5,117.49999999999987 487.5,341.7857142857143 650,341.7857142857143" class="link"></path><path style="stroke-width: 2.14286; fill: none; stroke: rgb(188, 191, 105); stroke-opacity: 0.4;" d="M325,498.92857142857156C487.5,498.92857142857156 487.5,384.6428571428571 650,384.6428571428571" class="link"></path><path style="stroke-width: 2.14286; fill: none; stroke: rgb(188, 191, 105); stroke-opacity: 0.4;" d="M325,496.7857142857144C487.5,496.7857142857144 487.5,174.64285714285717 650,174.64285714285717" class="link"></path><path style="stroke-width: 2.14286; fill: none; stroke: rgb(170, 191, 105); stroke-opacity: 0.4;" d="M325,13.928571428571313C487.5,13.928571428571313 487.5,157.50000000000003 650,157.50000000000003" class="link"></path><path style="stroke-width: 2.14286; fill: none; stroke: rgb(170, 191, 105); stroke-opacity: 0.4;" d="M325,31.07142857142846C487.5,31.07142857142846 487.5,337.5 650,337.5" class="link"></path><path style="stroke-width: 2.14286; fill: none; stroke: rgb(170, 191, 105); stroke-opacity: 0.4;" d="M325,11.785714285714171C487.5,11.785714285714171 487.5,138.92857142857144 650,138.92857142857144" class="link"></path><path style="stroke-width: 2.14286; fill: none; stroke: rgb(152, 191, 105); stroke-opacity: 0.4;" d="M325,456.0714285714286C487.5,456.0714285714286 487.5,323.2142857142857 650,323.2142857142857" class="link"></path><path style="stroke-width: 2.14286; fill: none; stroke: rgb(135, 191, 105); stroke-opacity: 0.4;" d="M325,416.7857142857143C487.5,416.7857142857143 487.5,396.7857142857143 650,396.7857142857143" class="link"></path><path style="stroke-width: 2.14286; fill: none; stroke: rgb(135, 191, 105); stroke-opacity: 0.4;" d="M325,406.07142857142856C487.5,406.07142857142856 487.5,233.92857142857147 650,233.92857142857147" class="link"></path><path style="stroke-width: 2.14286; fill: none; stroke: rgb(117, 191, 105); stroke-opacity: 0.4;" d="M325,279.64285714285705C487.5,279.64285714285705 487.5,356.7857142857143 650,356.7857142857143" class="link"></path><path style="stroke-width: 2.14286; fill: none; stroke: rgb(117, 191, 105); stroke-opacity: 0.4;" d="M325,277.4999999999999C487.5,277.4999999999999 487.5,122.5 650,122.5" class="link"></path><path style="stroke-width: 2.14286; fill: none; stroke: rgb(105, 191, 111); stroke-opacity: 0.4;" d="M325,346.7857142857142C487.5,346.7857142857142 487.5,143.21428571428572 650,143.21428571428572" class="link"></path><path style="stroke-width: 2.14286; fill: none; stroke: rgb(105, 191, 129); stroke-opacity: 0.4;" d="M325,158.21428571428558C487.5,158.21428571428558 487.5,343.92857142857144 650,343.92857142857144" class="link"></path><path style="stroke-width: 2.14286; fill: none; stroke: rgb(105, 191, 129); stroke-opacity: 0.4;" d="M325,156.07142857142844C487.5,156.07142857142844 487.5,293.2142857142857 650,293.2142857142857" class="link"></path><path style="stroke-width: 2.14286; fill: none; stroke: rgb(105, 191, 129); stroke-opacity: 0.4;" d="M325,153.9285714285713C487.5,153.9285714285713 487.5,212.50000000000003 650,212.50000000000003" class="link"></path><path style="stroke-width: 2.14286; fill: none; stroke: rgb(105, 191, 146); stroke-opacity: 0.4;" d="M325,229.64285714285703C487.5,229.64285714285703 487.5,141.07142857142858 650,141.07142857142858" class="link"></path><path style="stroke-width: 2.14286; fill: none; stroke: rgb(105, 191, 146); stroke-opacity: 0.4;" d="M325,231.78571428571416C487.5,231.78571428571416 487.5,166.0714285714286 650,166.0714285714286" class="link"></path><path style="stroke-width: 2.14286; fill: none; stroke: rgb(105, 191, 164); stroke-opacity: 0.4;" d="M325,358.9285714285714C487.5,358.9285714285714 487.5,168.21428571428575 650,168.21428571428575" class="link"></path><path style="stroke-width: 2.14286; fill: none; stroke: rgb(105, 191, 164); stroke-opacity: 0.4;" d="M325,363.21428571428567C487.5,363.21428571428567 487.5,312.5 650,312.5" class="link"></path><path style="stroke-width: 2.14286; fill: none; stroke: rgb(105, 191, 164); stroke-opacity: 0.4;" d="M325,361.07142857142856C487.5,361.07142857142856 487.5,229.64285714285717 650,229.64285714285717" class="link"></path><path style="stroke-width: 2.14286; fill: none; stroke: rgb(105, 191, 164); stroke-opacity: 0.4;" d="M325,365.35714285714283C487.5,365.35714285714283 487.5,363.2142857142857 650,363.2142857142857" class="link"></path><path style="stroke-width: 2.14286; fill: none; stroke: rgb(105, 191, 182); stroke-opacity: 0.4;" d="M325,213.2142857142856C487.5,213.2142857142856 487.5,348.2142857142857 650,348.2142857142857" class="link"></path><path style="stroke-width: 2.14286; fill: none; stroke: rgb(105, 182, 191); stroke-opacity: 0.4;" d="M325,322.4999999999999C487.5,322.4999999999999 487.5,227.50000000000003 650,227.50000000000003" class="link"></path><path style="stroke-width: 2.14286; fill: none; stroke: rgb(105, 164, 191); stroke-opacity: 0.4;" d="M325,129.64285714285703C487.5,129.64285714285703 487.5,288.92857142857144 650,288.92857142857144" class="link"></path><path style="stroke-width: 2.14286; fill: none; stroke: rgb(105, 146, 191); stroke-opacity: 0.4;" d="M325,186.7857142857142C487.5,186.7857142857142 487.5,218.92857142857144 650,218.92857142857144" class="link"></path><path style="stroke-width: 2.14286; fill: none; stroke: rgb(105, 146, 191); stroke-opacity: 0.4;" d="M325,188.92857142857133C487.5,188.92857142857133 487.5,346.07142857142856 650,346.07142857142856" class="link"></path><path style="stroke-width: 2.14286; fill: none; stroke: rgb(105, 129, 191); stroke-opacity: 0.4;" d="M325,308.2142857142856C487.5,308.2142857142856 487.5,310.3571428571429 650,310.3571428571429" class="link"></path><path style="stroke-width: 2.14286; fill: none; stroke: rgb(105, 129, 191); stroke-opacity: 0.4;" d="M325,310.3571428571428C487.5,310.3571428571428 487.5,358.92857142857144 650,358.92857142857144" class="link"></path><path style="stroke-width: 2.14286; fill: none; stroke: rgb(105, 111, 191); stroke-opacity: 0.4;" d="M325,141.78571428571416C487.5,141.78571428571416 487.5,291.07142857142856 650,291.07142857142856" class="link"></path><path style="stroke-width: 2.14286; fill: none; stroke: rgb(117, 105, 191); stroke-opacity: 0.4;" d="M325,484.6428571428572C487.5,484.6428571428572 487.5,382.5 650,382.5" class="link"></path><path style="stroke-width: 2.14286; fill: none; stroke: rgb(135, 105, 191); stroke-opacity: 0.4;" d="M325,47.49999999999988C487.5,47.49999999999988 487.5,339.64285714285717 650,339.64285714285717" class="link"></path><path style="stroke-width: 2.14286; fill: none; stroke: rgb(135, 105, 191); stroke-opacity: 0.4;" d="M325,43.214285714285595C487.5,43.214285714285595 487.5,195.3571428571429 650,195.3571428571429" class="link"></path><path style="stroke-width: 2.14286; fill: none; stroke: rgb(135, 105, 191); stroke-opacity: 0.4;" d="M325,45.35714285714274C487.5,45.35714285714274 487.5,254.64285714285717 650,254.64285714285717" class="link"></path><path style="stroke-width: 2.14286; fill: none; stroke: rgb(152, 105, 191); stroke-opacity: 0.4;" d="M325,174.64285714285703C487.5,174.64285714285703 487.5,295.3571428571429 650,295.3571428571429" class="link"></path><path style="stroke-width: 2.14286; fill: none; stroke: rgb(170, 105, 191); stroke-opacity: 0.4;" d="M325,291.78571428571416C487.5,291.78571428571416 487.5,308.2142857142857 650,308.2142857142857" class="link"></path><path style="stroke-width: 2.14286; fill: none; stroke: rgb(188, 105, 191); stroke-opacity: 0.4;" d="M325,377.49999999999994C487.5,377.49999999999994 487.5,145.35714285714286 650,145.35714285714286" class="link"></path><path style="stroke-width: 2.14286; fill: none; stroke: rgb(191, 105, 176); stroke-opacity: 0.4;" d="M325,265.3571428571427C487.5,265.3571428571427 487.5,354.64285714285717 650,354.64285714285717" class="link"></path><path style="stroke-width: 2.14286; fill: none; stroke: rgb(191, 105, 158); stroke-opacity: 0.4;" d="M325,201.07142857142847C487.5,201.07142857142847 487.5,116.07142857142857 650,116.07142857142857" class="link"></path><path style="stroke-width: 2.14286; fill: none; stroke: rgb(191, 105, 141); stroke-opacity: 0.4;" d="M325,389.6428571428571C487.5,389.6428571428571 487.5,231.7857142857143 650,231.7857142857143" class="link"></path><path style="stroke-width: 2.14286; fill: none; stroke: rgb(191, 105, 123); stroke-opacity: 0.4;" d="M325,334.64285714285705C487.5,334.64285714285705 487.5,361.07142857142856 650,361.07142857142856" class="link"></path></g><g><g transform="translate(650,100)" class="node"><rect style="fill: rgb(102, 102, 102);" width="0" height="27.857142857142858"><title>
13</title></rect><text style="font-size: 11px; font-family: Arial,Helvetica; pointer-events: none;" text-anchor="end" dy=".35em" y="13.928571428571429" x="-6"></text></g><g transform="translate(650,137.85714285714286)" class="node"><rect style="fill: rgb(102, 102, 102);" width="0" height="8.571428571428571"><title>because organic food doesn't help
4</title></rect><text style="font-size: 11px; font-family: Arial,Helvetica; pointer-events: none;" text-anchor="end" dy=".35em" y="4.285714285714286" x="-6">because organic food doesn't help</text></g><g transform="translate(650,156.42857142857144)" class="node"><rect style="fill: rgb(102, 102, 102);" width="0" height="19.285714285714285"><title>environment protection
9</title></rect><text style="font-size: 11px; font-family: Arial,Helvetica; pointer-events: none;" text-anchor="end" dy=".35em" y="9.642857142857142" x="-6">environment protection</text></g><g transform="translate(650,185.71428571428572)" class="node"><rect style="fill: rgb(102, 102, 102);" width="0" height="51.42857142857143"><title>health
24</title></rect><text style="font-size: 11px; font-family: Arial,Helvetica; pointer-events: none;" text-anchor="end" dy=".35em" y="25.714285714285715" x="-6">health</text></g><g transform="translate(650,247.14285714285717)" class="node"><rect style="fill: rgb(102, 102, 102);" width="0" height="79.28571428571428"><title>industrial livestock farming
37</title></rect><text style="font-size: 11px; font-family: Arial,Helvetica; pointer-events: none;" text-anchor="end" dy=".35em" y="39.64285714285714" x="-6">industrial livestock farming</text></g><g transform="translate(650,336.42857142857144)" class="node"><rect style="fill: rgb(102, 102, 102);" width="0" height="49.285714285714285"><title>wonderful animals
23</title></rect><text style="font-size: 11px; font-family: Arial,Helvetica; pointer-events: none;" text-anchor="end" dy=".35em" y="24.642857142857142" x="-6">wonderful animals</text></g><g transform="translate(650,395.7142857142857)" class="node"><rect style="fill: rgb(102, 102, 102);" width="0" height="4.285714285714286"><title>world hunger
2</title></rect><text style="font-size: 11px; font-family: Arial,Helvetica; pointer-events: none;" text-anchor="end" dy=".35em" y="2.142857142857143" x="-6">world hunger</text></g><g transform="translate(0,125)" class="node"><rect style="" width="0" height="169.28571428571428"><title>female
79</title></rect><text style="font-size: 11px; font-family: Arial,Helvetica; pointer-events: none;" text-anchor="start" dy=".35em" y="84.64285714285714" x="6">female</text></g><g transform="translate(0,304.2857142857143)" class="node"><rect style="" width="0" height="70.71428571428571"><title>male
33</title></rect><text style="font-size: 11px; font-family: Arial,Helvetica; pointer-events: none;" text-anchor="start" dy=".35em" y="35.357142857142854" x="6">male</text></g><g transform="translate(325,-1.1368683772161603e-13)" class="node"><rect style="" width="0" height="32.14285714285714"><title>
15</title></rect><text style="font-size: 11px; font-family: Arial,Helvetica; pointer-events: none;" text-anchor="end" dy=".35em" y="16.07142857142857" x="-6"></text></g><g transform="translate(325,42.142857142857025)" class="node"><rect style="" width="0" height="6.428571428571429"><title>0.5
3</title></rect><text style="font-size: 11px; font-family: Arial,Helvetica; pointer-events: none;" text-anchor="end" dy=".35em" y="3.2142857142857144" x="-6">0.5</text></g><g transform="translate(325,58.571428571428456)" class="node"><rect style="" width="0" height="60"><title>1
28</title></rect><text style="font-size: 11px; font-family: Arial,Helvetica; pointer-events: none;" text-anchor="end" dy=".35em" y="30" x="-6">1</text></g><g transform="translate(325,128.57142857142844)" class="node"><rect style="" width="0" height="2.142857142857143"><title>1.8
1</title></rect><text style="font-size: 11px; font-family: Arial,Helvetica; pointer-events: none;" text-anchor="end" dy=".35em" y="1.0714285714285714" x="-6">1.8</text></g><g transform="translate(325,140.71428571428558)" class="node"><rect style="" width="0" height="2.142857142857143"><title>11
1</title></rect><text style="font-size: 11px; font-family: Arial,Helvetica; pointer-events: none;" text-anchor="end" dy=".35em" y="1.0714285714285714" x="-6">11</text></g><g transform="translate(325,152.85714285714272)" class="node"><rect style="" width="0" height="6.428571428571429"><title>13
3</title></rect><text style="font-size: 11px; font-family: Arial,Helvetica; pointer-events: none;" text-anchor="end" dy=".35em" y="3.2142857142857144" x="-6">13</text></g><g transform="translate(325,169.28571428571416)" class="node"><rect style="" width="0" height="6.428571428571429"><title>15
3</title></rect><text style="font-size: 11px; font-family: Arial,Helvetica; pointer-events: none;" text-anchor="end" dy=".35em" y="3.2142857142857144" x="-6">15</text></g><g transform="translate(325,185.7142857142856)" class="node"><rect style="" width="0" height="4.285714285714286"><title>16
2</title></rect><text style="font-size: 11px; font-family: Arial,Helvetica; pointer-events: none;" text-anchor="end" dy=".35em" y="2.142857142857143" x="-6">16</text></g><g transform="translate(325,199.9999999999999)" class="node"><rect style="" width="0" height="2.142857142857143"><title>18
1</title></rect><text style="font-size: 11px; font-family: Arial,Helvetica; pointer-events: none;" text-anchor="end" dy=".35em" y="1.0714285714285714" x="-6">18</text></g><g transform="translate(325,212.14285714285703)" class="node"><rect style="" width="0" height="2.142857142857143"><title>19
1</title></rect><text style="font-size: 11px; font-family: Arial,Helvetica; pointer-events: none;" text-anchor="end" dy=".35em" y="1.0714285714285714" x="-6">19</text></g><g transform="translate(325,224.28571428571416)" class="node"><rect style="" width="0" height="30"><title>2
14</title></rect><text style="font-size: 11px; font-family: Arial,Helvetica; pointer-events: none;" text-anchor="end" dy=".35em" y="15" x="-6">2</text></g><g transform="translate(325,264.28571428571416)" class="node"><rect style="" width="0" height="2.142857142857143"><title>21
1</title></rect><text style="font-size: 11px; font-family: Arial,Helvetica; pointer-events: none;" text-anchor="end" dy=".35em" y="1.0714285714285714" x="-6">21</text></g><g transform="translate(325,276.42857142857133)" class="node"><rect style="" width="0" height="4.285714285714286"><title>22
2</title></rect><text style="font-size: 11px; font-family: Arial,Helvetica; pointer-events: none;" text-anchor="end" dy=".35em" y="2.142857142857143" x="-6">22</text></g><g transform="translate(325,290.7142857142856)" class="node"><rect style="" width="0" height="2.142857142857143"><title>23
1</title></rect><text style="font-size: 11px; font-family: Arial,Helvetica; pointer-events: none;" text-anchor="end" dy=".35em" y="1.0714285714285714" x="-6">23</text></g><g transform="translate(325,302.8571428571428)" class="node"><rect style="" width="0" height="8.571428571428571"><title>24
4</title></rect><text style="font-size: 11px; font-family: Arial,Helvetica; pointer-events: none;" text-anchor="end" dy=".35em" y="4.285714285714286" x="-6">24</text></g><g transform="translate(325,321.42857142857133)" class="node"><rect style="" width="0" height="2.142857142857143"><title>25
1</title></rect><text style="font-size: 11px; font-family: Arial,Helvetica; pointer-events: none;" text-anchor="end" dy=".35em" y="1.0714285714285714" x="-6">25</text></g><g transform="translate(325,333.5714285714285)" class="node"><rect style="" width="0" height="2.142857142857143"><title>26
1</title></rect><text style="font-size: 11px; font-family: Arial,Helvetica; pointer-events: none;" text-anchor="end" dy=".35em" y="1.0714285714285714" x="-6">26</text></g><g transform="translate(325,345.71428571428567)" class="node"><rect style="" width="0" height="2.142857142857143"><title>29
1</title></rect><text style="font-size: 11px; font-family: Arial,Helvetica; pointer-events: none;" text-anchor="end" dy=".35em" y="1.0714285714285714" x="-6">29</text></g><g transform="translate(325,357.85714285714283)" class="node"><rect style="" width="0" height="8.571428571428571"><title>3
4</title></rect><text style="font-size: 11px; font-family: Arial,Helvetica; pointer-events: none;" text-anchor="end" dy=".35em" y="4.285714285714286" x="-6">3</text></g><g transform="translate(325,376.4285714285714)" class="node"><rect style="" width="0" height="2.142857142857143"><title>33
1</title></rect><text style="font-size: 11px; font-family: Arial,Helvetica; pointer-events: none;" text-anchor="end" dy=".35em" y="1.0714285714285714" x="-6">33</text></g><g transform="translate(325,388.57142857142856)" class="node"><rect style="" width="0" height="2.142857142857143"><title>36
1</title></rect><text style="font-size: 11px; font-family: Arial,Helvetica; pointer-events: none;" text-anchor="end" dy=".35em" y="1.0714285714285714" x="-6">36</text></g><g transform="translate(325,400.7142857142857)" class="node"><rect style="" width="0" height="17.142857142857142"><title>4
8</title></rect><text style="font-size: 11px; font-family: Arial,Helvetica; pointer-events: none;" text-anchor="end" dy=".35em" y="8.571428571428571" x="-6">4</text></g><g transform="translate(325,427.8571428571429)" class="node"><rect style="" width="0" height="17.142857142857142"><title>5
8</title></rect><text style="font-size: 11px; font-family: Arial,Helvetica; pointer-events: none;" text-anchor="end" dy=".35em" y="8.571428571428571" x="-6">5</text></g><g transform="translate(325,455.00000000000006)" class="node"><rect style="" width="0" height="6.428571428571429"><title>6
3</title></rect><text style="font-size: 11px; font-family: Arial,Helvetica; pointer-events: none;" text-anchor="end" dy=".35em" y="3.2142857142857144" x="-6">6</text></g><g transform="translate(325,471.4285714285715)" class="node"><rect style="" width="0" height="2.142857142857143"><title>7
1</title></rect><text style="font-size: 11px; font-family: Arial,Helvetica; pointer-events: none;" text-anchor="end" dy=".35em" y="1.0714285714285714" x="-6">7</text></g><g transform="translate(325,483.57142857142867)" class="node"><rect style="" width="0" height="2.142857142857143"><title>8
1</title></rect><text style="font-size: 11px; font-family: Arial,Helvetica; pointer-events: none;" text-anchor="end" dy=".35em" y="1.0714285714285714" x="-6">8</text></g><g transform="translate(325,495.71428571428584)" class="node"><rect style="" width="0" height="4.285714285714286"><title>9
2</title></rect><text style="font-size: 11px; font-family: Arial,Helvetica; pointer-events: none;" text-anchor="end" dy=".35em" y="2.142857142857143" x="-6">9</text></g></g></g></svg>