<svg version="1.1" xmlns="http://www.w3.org/2000/svg" height="520" width="650"><g transform="translate(0,10)"><g><path style="stroke-width: 110; fill: none; stroke: rgb(254, 99, 113); stroke-opacity: 0.4;" d="M0,80C325,80 325,55.00000000000003 650,55.00000000000003" class="link"></path><path style="stroke-width: 70.7143; fill: none; stroke: rgb(254, 99, 113); stroke-opacity: 0.4;" d="M0,237.14285714285714C325,237.14285714285714 325,295 650,295" class="link"></path><path style="stroke-width: 66.7857; fill: none; stroke: rgb(254, 99, 113); stroke-opacity: 0.4;" d="M0,168.39285714285714C325,168.39285714285714 325,188.75000000000003 650,188.75000000000003" class="link"></path><path style="stroke-width: 35.3571; fill: none; stroke: rgb(16, 69, 132); stroke-opacity: 0.4;" d="M0,363.0357142857143C325,363.0357142857143 325,127.67857142857146 650,127.67857142857146" class="link"></path><path style="stroke-width: 27.5; fill: none; stroke: rgb(254, 99, 113); stroke-opacity: 0.4;" d="M0,313.75C325,313.75 325,434.82142857142856 650,434.82142857142856" class="link"></path><path style="stroke-width: 27.5; fill: none; stroke: rgb(254, 99, 113); stroke-opacity: 0.4;" d="M0,286.25C325,286.25 325,373.75 650,373.75" class="link"></path><path style="stroke-width: 27.5; fill: none; stroke: rgb(16, 69, 132); stroke-opacity: 0.4;" d="M0,394.46428571428567C325,394.46428571428567 325,235.89285714285717 650,235.89285714285717" class="link"></path><path style="stroke-width: 23.5714; fill: none; stroke: rgb(16, 69, 132); stroke-opacity: 0.4;" d="M0,439.6428571428571C325,439.6428571428571 325,399.2857142857143 650,399.2857142857143" class="link"></path><path style="stroke-width: 19.6429; fill: none; stroke: rgb(16, 69, 132); stroke-opacity: 0.4;" d="M0,418.0357142857142C325,418.0357142857142 325,340.17857142857144 650,340.17857142857144" class="link"></path><path style="stroke-width: 11.7857; fill: none; stroke: rgb(16, 69, 132); stroke-opacity: 0.4;" d="M0,465.17857142857144C325,465.17857142857144 325,476.25 650,476.25" class="link"></path><path style="stroke-width: 7.85714; fill: none; stroke: rgb(16, 69, 132); stroke-opacity: 0.4;" d="M0,455.35714285714283C325,455.35714285714283 325,452.5 650,452.5" class="link"></path><path style="stroke-width: 3.92857; fill: none; stroke: rgb(254, 99, 113); stroke-opacity: 0.4;" d="M0,329.4642857142857C325,329.4642857142857 325,468.3928571428571 650,468.3928571428571" class="link"></path><path style="stroke-width: 3.92857; fill: none; stroke: rgb(254, 99, 113); stroke-opacity: 0.4;" d="M0,333.39285714285717C325,333.39285714285717 325,494.10714285714283 650,494.10714285714283" class="link"></path><path style="stroke-width: 3.92857; fill: none; stroke: rgb(16, 69, 132); stroke-opacity: 0.4;" d="M0,473.0357142857143C325,473.0357142857143 325,498.0357142857143 650,498.0357142857143" class="link"></path></g><g><g transform="translate(650,360)" class="node"><rect style="fill: rgb(102, 102, 102);" width="0" height="51.07142857142857"><title>
13</title></rect><text style="font-size: 11px; font-family: Arial,Helvetica; pointer-events: none;" text-anchor="end" dy=".35em" y="25.535714285714285" x="-6"></text></g><g transform="translate(650,466.4285714285714)" class="node"><rect style="fill: rgb(102, 102, 102);" width="0" height="15.714285714285714"><title>because organic food doesn't help
4</title></rect><text style="font-size: 11px; font-family: Arial,Helvetica; pointer-events: none;" text-anchor="end" dy=".35em" y="7.857142857142857" x="-6">because organic food doesn't help</text></g><g transform="translate(650,421.07142857142856)" class="node"><rect style="fill: rgb(102, 102, 102);" width="0" height="35.357142857142854"><title>environment protection
9</title></rect><text style="font-size: 11px; font-family: Arial,Helvetica; pointer-events: none;" text-anchor="end" dy=".35em" y="17.678571428571427" x="-6">environment protection</text></g><g transform="translate(650,155.3571428571429)" class="node"><rect style="fill: rgb(102, 102, 102);" width="0" height="94.28571428571428"><title>health
24</title></rect><text style="font-size: 11px; font-family: Arial,Helvetica; pointer-events: none;" text-anchor="end" dy=".35em" y="47.14285714285714" x="-6">health</text></g><g transform="translate(650,2.842170943040401e-14)" class="node"><rect style="fill: rgb(102, 102, 102);" width="0" height="145.35714285714286"><title>industrial livestock farming
37</title></rect><text style="font-size: 11px; font-family: Arial,Helvetica; pointer-events: none;" text-anchor="end" dy=".35em" y="72.67857142857143" x="-6">industrial livestock farming</text></g><g transform="translate(650,259.64285714285717)" class="node"><rect style="fill: rgb(102, 102, 102);" width="0" height="90.35714285714285"><title>wonderful animals
23</title></rect><text style="font-size: 11px; font-family: Arial,Helvetica; pointer-events: none;" text-anchor="end" dy=".35em" y="45.17857142857142" x="-6">wonderful animals</text></g><g transform="translate(650,492.1428571428571)" class="node"><rect style="fill: rgb(102, 102, 102);" width="0" height="7.857142857142857"><title>world hunger
2</title></rect><text style="font-size: 11px; font-family: Arial,Helvetica; pointer-events: none;" text-anchor="end" dy=".35em" y="3.9285714285714284" x="-6">world hunger</text></g><g transform="translate(0,25)" class="node"><rect style="" width="0" height="310.35714285714283"><title>female
79</title></rect><text style="font-size: 11px; font-family: Arial,Helvetica; pointer-events: none;" text-anchor="start" dy=".35em" y="155.17857142857142" x="6">female</text></g><g transform="translate(0,345.35714285714283)" class="node"><rect style="" width="0" height="129.64285714285714"><title>male
33</title></rect><text style="font-size: 11px; font-family: Arial,Helvetica; pointer-events: none;" text-anchor="start" dy=".35em" y="64.82142857142857" x="6">male</text></g></g></g></svg>