<svg version="1.1" xmlns="http://www.w3.org/2000/svg" height="520" width="650"><g transform="translate(0,10)"><g><path style="stroke-width: 14.2857; fill: none; stroke: rgb(254, 99, 113); stroke-opacity: 0.4;" d="M1,152.14285714285714C162.75,152.14285714285714 162.75,7.142857142857257 324.5,7.142857142857257" class="link"></path><path style="stroke-width: 14.2857; fill: none; stroke: rgb(254, 99, 113); stroke-opacity: 0.4;" d="M1,166.42857142857142C162.75,166.42857142857142 162.75,36.7857142857144 324.5,36.7857142857144" class="link"></path><path style="stroke-width: 12.5; fill: none; stroke: rgb(254, 99, 113); stroke-opacity: 0.4;" d="M1,179.82142857142858C162.75,179.82142857142858 162.75,63.750000000000114 324.5,63.750000000000114" class="link"></path><path style="stroke-width: 8.92857; fill: none; stroke: rgb(254, 99, 113); stroke-opacity: 0.4;" d="M1,195.89285714285717C162.75,195.89285714285717 162.75,112.32142857142868 324.5,112.32142857142868" class="link"></path><path style="stroke-width: 8.92857; fill: none; stroke: rgb(16, 69, 132); stroke-opacity: 0.4;" d="M1,313.0357142857143C162.75,313.0357142857143 162.75,93.39285714285725 324.5,93.39285714285725" class="link"></path><path style="stroke-width: 8.92857; fill: none; stroke: rgb(183, 191, 105); stroke-opacity: 0.4;" d="M325.5,4.464285714285828C487.25,4.464285714285828 487.25,129.46428571428572 649,129.46428571428572" class="link"></path><path style="stroke-width: 7.14286; fill: none; stroke: rgb(254, 99, 113); stroke-opacity: 0.4;" d="M1,223.57142857142858C162.75,223.57142857142858 162.75,194.28571428571442 324.5,194.28571428571442" class="link"></path><path style="stroke-width: 7.14286; fill: none; stroke: rgb(254, 99, 113); stroke-opacity: 0.4;" d="M1,216.42857142857144C162.75,216.42857142857144 162.75,175.357142857143 324.5,175.357142857143" class="link"></path><path style="stroke-width: 7.14286; fill: none; stroke: rgb(254, 99, 113); stroke-opacity: 0.4;" d="M1,203.92857142857144C162.75,203.92857142857144 162.75,133.92857142857156 324.5,133.92857142857156" class="link"></path><path style="stroke-width: 7.14286; fill: none; stroke: rgb(254, 99, 113); stroke-opacity: 0.4;" d="M1,230.71428571428572C162.75,230.71428571428572 162.75,211.42857142857156 324.5,211.42857142857156" class="link"></path><path style="stroke-width: 7.14286; fill: none; stroke: rgb(167, 191, 105); stroke-opacity: 0.4;" d="M325.5,62.85714285714297C487.25,62.85714285714297 487.25,218.92857142857144 649,218.92857142857144" class="link"></path><path style="stroke-width: 7.14286; fill: none; stroke: rgb(136, 191, 105); stroke-opacity: 0.4;" d="M325.5,87.14285714285725C487.25,87.14285714285725 487.25,141.07142857142858 649,141.07142857142858" class="link"></path><path style="stroke-width: 7.14286; fill: none; stroke: rgb(105, 191, 167); stroke-opacity: 0.4;" d="M325.5,115.00000000000011C487.25,115.00000000000011 487.25,229.64285714285717 649,229.64285714285717" class="link"></path><path style="stroke-width: 7.14286; fill: none; stroke: rgb(105, 191, 183); stroke-opacity: 0.4;" d="M325.5,43.928571428571544C487.25,43.928571428571544 487.25,321.07142857142856 649,321.07142857142856" class="link"></path><path style="stroke-width: 5.35714; fill: none; stroke: rgb(254, 99, 113); stroke-opacity: 0.4;" d="M1,188.74999999999997C162.75,188.74999999999997 162.75,86.25000000000011 324.5,86.25000000000011" class="link"></path><path style="stroke-width: 5.35714; fill: none; stroke: rgb(254, 99, 113); stroke-opacity: 0.4;" d="M1,210.17857142857142C162.75,210.17857142857142 162.75,153.7500000000001 324.5,153.7500000000001" class="link"></path><path style="stroke-width: 5.35714; fill: none; stroke: rgb(254, 99, 113); stroke-opacity: 0.4;" d="M1,242.32142857142856C162.75,242.32142857142856 162.75,258.3928571428573 324.5,258.3928571428573" class="link"></path><path style="stroke-width: 5.35714; fill: none; stroke: rgb(254, 99, 113); stroke-opacity: 0.4;" d="M1,258.39285714285717C162.75,258.39285714285717 162.75,319.8214285714286 324.5,319.8214285714286" class="link"></path><path style="stroke-width: 5.35714; fill: none; stroke: rgb(16, 69, 132); stroke-opacity: 0.4;" d="M1,327.32142857142856C162.75,327.32142857142856 162.75,159.10714285714297 324.5,159.10714285714297" class="link"></path><path style="stroke-width: 5.35714; fill: none; stroke: rgb(16, 69, 132); stroke-opacity: 0.4;" d="M1,298.75C162.75,298.75 162.75,16.96428571428583 324.5,16.96428571428583" class="link"></path><path style="stroke-width: 5.35714; fill: none; stroke: rgb(191, 136, 105); stroke-opacity: 0.4;" d="M325.5,243.0357142857144C487.25,243.0357142857144 487.25,165.17857142857142 649,165.17857142857142" class="link"></path><path style="stroke-width: 5.35714; fill: none; stroke: rgb(191, 152, 105); stroke-opacity: 0.4;" d="M325.5,289.10714285714295C487.25,289.10714285714295 487.25,175.89285714285714 649,175.89285714285714" class="link"></path><path style="stroke-width: 5.35714; fill: none; stroke: rgb(191, 167, 105); stroke-opacity: 0.4;" d="M325.5,193.39285714285725C487.25,193.39285714285725 487.25,243.03571428571428 649,243.03571428571428" class="link"></path><path style="stroke-width: 5.35714; fill: none; stroke: rgb(167, 191, 105); stroke-opacity: 0.4;" d="M325.5,69.10714285714297C487.25,69.10714285714297 487.25,283.39285714285717 649,283.39285714285717" class="link"></path><path style="stroke-width: 5.35714; fill: none; stroke: rgb(152, 191, 105); stroke-opacity: 0.4;" d="M325.5,174.46428571428584C487.25,174.46428571428584 487.25,158.03571428571428 649,158.03571428571428" class="link"></path><path style="stroke-width: 5.35714; fill: none; stroke: rgb(105, 191, 136); stroke-opacity: 0.4;" d="M325.5,136.60714285714297C487.25,136.60714285714297 487.25,235.89285714285714 649,235.89285714285714" class="link"></path><path style="stroke-width: 5.35714; fill: none; stroke: rgb(105, 191, 183); stroke-opacity: 0.4;" d="M325.5,37.678571428571544C487.25,37.678571428571544 487.25,278.0357142857143 649,278.0357142857143" class="link"></path><path style="stroke-width: 3.57143; fill: none; stroke: rgb(254, 99, 113); stroke-opacity: 0.4;" d="M1,237.85714285714283C162.75,237.85714285714283 162.75,242.14285714285725 324.5,242.14285714285725" class="link"></path><path style="stroke-width: 3.57143; fill: none; stroke: rgb(254, 99, 113); stroke-opacity: 0.4;" d="M1,250.35714285714283C162.75,250.35714285714283 162.75,288.2142857142858 324.5,288.2142857142858" class="link"></path><path style="stroke-width: 3.57143; fill: none; stroke: rgb(254, 99, 113); stroke-opacity: 0.4;" d="M1,246.78571428571428C162.75,246.78571428571428 162.75,272.85714285714295 324.5,272.85714285714295" class="link"></path><path style="stroke-width: 3.57143; fill: none; stroke: rgb(254, 99, 113); stroke-opacity: 0.4;" d="M1,262.85714285714283C162.75,262.85714285714283 162.75,334.2857142857143 324.5,334.2857142857143" class="link"></path><path style="stroke-width: 3.57143; fill: none; stroke: rgb(254, 99, 113); stroke-opacity: 0.4;" d="M1,273.57142857142856C162.75,273.57142857142856 162.75,390.3571428571428 324.5,390.3571428571428" class="link"></path><path style="stroke-width: 3.57143; fill: none; stroke: rgb(254, 99, 113); stroke-opacity: 0.4;" d="M1,266.4285714285714C162.75,266.4285714285714 162.75,349.6428571428571 324.5,349.6428571428571" class="link"></path><path style="stroke-width: 3.57143; fill: none; stroke: rgb(254, 99, 113); stroke-opacity: 0.4;" d="M1,253.92857142857142C162.75,253.92857142857142 162.75,303.5714285714286 324.5,303.5714285714286" class="link"></path><path style="stroke-width: 3.57143; fill: none; stroke: rgb(254, 99, 113); stroke-opacity: 0.4;" d="M1,270C162.75,270 162.75,376.7857142857142 324.5,376.7857142857142" class="link"></path><path style="stroke-width: 3.57143; fill: none; stroke: rgb(254, 99, 113); stroke-opacity: 0.4;" d="M1,277.14285714285717C162.75,277.14285714285717 162.75,403.92857142857133 324.5,403.92857142857133" class="link"></path><path style="stroke-width: 3.57143; fill: none; stroke: rgb(16, 69, 132); stroke-opacity: 0.4;" d="M1,346.07142857142856C162.75,346.07142857142856 162.75,363.21428571428567 324.5,363.21428571428567" class="link"></path><path style="stroke-width: 3.57143; fill: none; stroke: rgb(16, 69, 132); stroke-opacity: 0.4;" d="M1,303.21428571428567C162.75,303.21428571428567 162.75,45.71428571428583 324.5,45.71428571428583" class="link"></path><path style="stroke-width: 3.57143; fill: none; stroke: rgb(16, 69, 132); stroke-opacity: 0.4;" d="M1,322.85714285714283C162.75,322.85714285714283 162.75,139.2857142857144 324.5,139.2857142857144" class="link"></path><path style="stroke-width: 3.57143; fill: none; stroke: rgb(16, 69, 132); stroke-opacity: 0.4;" d="M1,333.57142857142856C162.75,333.57142857142856 162.75,228.57142857142867 324.5,228.57142857142867" class="link"></path><path style="stroke-width: 3.57143; fill: none; stroke: rgb(16, 69, 132); stroke-opacity: 0.4;" d="M1,319.2857142857143C162.75,319.2857142857143 162.75,118.5714285714287 324.5,118.5714285714287" class="link"></path><path style="stroke-width: 3.57143; fill: none; stroke: rgb(16, 69, 132); stroke-opacity: 0.4;" d="M1,306.7857142857143C162.75,306.7857142857143 162.75,71.7857142857144 324.5,71.7857142857144" class="link"></path><path style="stroke-width: 3.57143; fill: none; stroke: rgb(191, 183, 105); stroke-opacity: 0.4;" d="M325.5,272.85714285714295C487.25,272.85714285714295 487.25,171.42857142857142 649,171.42857142857142" class="link"></path><path style="stroke-width: 3.57143; fill: none; stroke: rgb(183, 191, 105); stroke-opacity: 0.4;" d="M325.5,14.2857142857144C487.25,14.2857142857144 487.25,273.57142857142856 649,273.57142857142856" class="link"></path><path style="stroke-width: 3.57143; fill: none; stroke: rgb(183, 191, 105); stroke-opacity: 0.4;" d="M325.5,17.85714285714297C487.25,17.85714285714297 487.25,315.7142857142857 649,315.7142857142857" class="link"></path><path style="stroke-width: 3.57143; fill: none; stroke: rgb(183, 191, 105); stroke-opacity: 0.4;" d="M325.5,10.714285714285829C487.25,10.714285714285829 487.25,210 649,210" class="link"></path><path style="stroke-width: 3.57143; fill: none; stroke: rgb(152, 191, 105); stroke-opacity: 0.4;" d="M325.5,178.92857142857156C487.25,178.92857142857156 487.25,326.42857142857144 649,326.42857142857144" class="link"></path><path style="stroke-width: 3.57143; fill: none; stroke: rgb(136, 191, 105); stroke-opacity: 0.4;" d="M325.5,96.07142857142868C487.25,96.07142857142868 487.25,287.85714285714283 649,287.85714285714283" class="link"></path><path style="stroke-width: 3.57143; fill: none; stroke: rgb(136, 191, 105); stroke-opacity: 0.4;" d="M325.5,92.50000000000011C487.25,92.50000000000011 487.25,224.28571428571428 649,224.28571428571428" class="link"></path><path style="stroke-width: 3.57143; fill: none; stroke: rgb(105, 191, 105); stroke-opacity: 0.4;" d="M325.5,336.07142857142856C487.25,336.07142857142856 487.25,373.2142857142857 649,373.2142857142857" class="link"></path><path style="stroke-width: 3.57143; fill: none; stroke: rgb(105, 191, 136); stroke-opacity: 0.4;" d="M325.5,132.14285714285725C487.25,132.14285714285725 487.25,150 649,150" class="link"></path><path style="stroke-width: 3.57143; fill: none; stroke: rgb(105, 191, 152); stroke-opacity: 0.4;" d="M325.5,158.21428571428584C487.25,158.21428571428584 487.25,291.4285714285714 649,291.4285714285714" class="link"></path><path style="stroke-width: 3.57143; fill: none; stroke: rgb(105, 191, 152); stroke-opacity: 0.4;" d="M325.5,152.85714285714297C487.25,152.85714285714297 487.25,153.57142857142856 649,153.57142857142856" class="link"></path><path style="stroke-width: 3.57143; fill: none; stroke: rgb(105, 191, 167); stroke-opacity: 0.4;" d="M325.5,109.64285714285727C487.25,109.64285714285727 487.25,146.42857142857142 649,146.42857142857142" class="link"></path><path style="stroke-width: 3.57143; fill: none; stroke: rgb(105, 191, 183); stroke-opacity: 0.4;" d="M325.5,33.21428571428583C487.25,33.21428571428583 487.25,213.57142857142858 649,213.57142857142858" class="link"></path><path style="stroke-width: 3.57143; fill: none; stroke: rgb(105, 183, 191); stroke-opacity: 0.4;" d="M325.5,211.42857142857153C487.25,211.42857142857153 487.25,247.5 649,247.5" class="link"></path><path style="stroke-width: 3.57143; fill: none; stroke: rgb(121, 105, 191); stroke-opacity: 0.4;" d="M325.5,305.3571428571429C487.25,305.3571428571429 487.25,359.64285714285717 649,359.64285714285717" class="link"></path><path style="stroke-width: 3.57143; fill: none; stroke: rgb(152, 105, 191); stroke-opacity: 0.4;" d="M325.5,403.92857142857133C487.25,403.92857142857133 487.25,302.1428571428571 649,302.1428571428571" class="link"></path><path style="stroke-width: 3.57143; fill: none; stroke: rgb(167, 105, 191); stroke-opacity: 0.4;" d="M325.5,318.92857142857144C487.25,318.92857142857144 487.25,180.35714285714283 649,180.35714285714283" class="link"></path><path style="stroke-width: 3.57143; fill: none; stroke: rgb(183, 105, 191); stroke-opacity: 0.4;" d="M325.5,226.7857142857144C487.25,226.7857142857144 487.25,251.07142857142856 649,251.07142857142856" class="link"></path><path style="stroke-width: 1.78571; fill: none; stroke: rgb(254, 99, 113); stroke-opacity: 0.4;" d="M1,281.6071428571429C162.75,281.6071428571429 162.75,451.9642857142856 324.5,451.9642857142856" class="link"></path><path style="stroke-width: 1.78571; fill: none; stroke: rgb(254, 99, 113); stroke-opacity: 0.4;" d="M1,279.8214285714286C162.75,279.8214285714286 162.75,440.17857142857133 324.5,440.17857142857133" class="link"></path><path style="stroke-width: 1.78571; fill: none; stroke: rgb(254, 99, 113); stroke-opacity: 0.4;" d="M1,283.39285714285717C162.75,283.39285714285717 162.75,463.7499999999999 324.5,463.7499999999999" class="link"></path><path style="stroke-width: 1.78571; fill: none; stroke: rgb(254, 99, 113); stroke-opacity: 0.4;" d="M1,285.17857142857144C162.75,285.17857142857144 162.75,499.1071428571427 324.5,499.1071428571427" class="link"></path><path style="stroke-width: 1.78571; fill: none; stroke: rgb(254, 99, 113); stroke-opacity: 0.4;" d="M1,235.17857142857142C162.75,235.17857142857142 162.75,225.89285714285725 324.5,225.89285714285725" class="link"></path><path style="stroke-width: 1.78571; fill: none; stroke: rgb(16, 69, 132); stroke-opacity: 0.4;" d="M1,338.0357142857143C162.75,338.0357142857143 162.75,275.5357142857144 324.5,275.5357142857144" class="link"></path><path style="stroke-width: 1.78571; fill: none; stroke: rgb(16, 69, 132); stroke-opacity: 0.4;" d="M1,348.75C162.75,348.75 162.75,416.6071428571428 324.5,416.6071428571428" class="link"></path><path style="stroke-width: 1.78571; fill: none; stroke: rgb(16, 69, 132); stroke-opacity: 0.4;" d="M1,330.89285714285717C162.75,330.89285714285717 162.75,179.8214285714287 324.5,179.8214285714287" class="link"></path><path style="stroke-width: 1.78571; fill: none; stroke: rgb(16, 69, 132); stroke-opacity: 0.4;" d="M1,354.10714285714283C162.75,354.10714285714283 162.75,487.32142857142844 324.5,487.32142857142844" class="link"></path><path style="stroke-width: 1.78571; fill: none; stroke: rgb(16, 69, 132); stroke-opacity: 0.4;" d="M1,336.25C162.75,336.25 162.75,244.8214285714287 324.5,244.8214285714287" class="link"></path><path style="stroke-width: 1.78571; fill: none; stroke: rgb(16, 69, 132); stroke-opacity: 0.4;" d="M1,339.82142857142856C162.75,339.82142857142856 162.75,290.8928571428572 324.5,290.8928571428572" class="link"></path><path style="stroke-width: 1.78571; fill: none; stroke: rgb(16, 69, 132); stroke-opacity: 0.4;" d="M1,352.32142857142856C162.75,352.32142857142856 162.75,475.53571428571416 324.5,475.53571428571416" class="link"></path><path style="stroke-width: 1.78571; fill: none; stroke: rgb(16, 69, 132); stroke-opacity: 0.4;" d="M1,343.39285714285717C162.75,343.39285714285717 162.75,336.9642857142857 324.5,336.9642857142857" class="link"></path><path style="stroke-width: 1.78571; fill: none; stroke: rgb(16, 69, 132); stroke-opacity: 0.4;" d="M1,341.60714285714283C162.75,341.60714285714283 162.75,306.25000000000006 324.5,306.25000000000006" class="link"></path><path style="stroke-width: 1.78571; fill: none; stroke: rgb(16, 69, 132); stroke-opacity: 0.4;" d="M1,350.5357142857143C162.75,350.5357142857143 162.75,428.39285714285705 324.5,428.39285714285705" class="link"></path><path style="stroke-width: 1.78571; fill: none; stroke: rgb(191, 167, 105); stroke-opacity: 0.4;" d="M325.5,196.96428571428584C487.25,196.96428571428584 487.25,355.1785714285715 649,355.1785714285715" class="link"></path><path style="stroke-width: 1.78571; fill: none; stroke: rgb(191, 183, 105); stroke-opacity: 0.4;" d="M325.5,275.5357142857144C487.25,275.5357142857144 487.25,356.9642857142858 649,356.9642857142858" class="link"></path><path style="stroke-width: 1.78571; fill: none; stroke: rgb(167, 191, 105); stroke-opacity: 0.4;" d="M325.5,58.39285714285726C487.25,58.39285714285726 487.25,136.60714285714286 649,136.60714285714286" class="link"></path><path style="stroke-width: 1.78571; fill: none; stroke: rgb(167, 191, 105); stroke-opacity: 0.4;" d="M325.5,72.67857142857154C487.25,72.67857142857154 487.25,348.03571428571433 649,348.03571428571433" class="link"></path><path style="stroke-width: 1.78571; fill: none; stroke: rgb(121, 191, 105); stroke-opacity: 0.4;" d="M325.5,451.9642857142856C487.25,451.9642857142856 487.25,193.75 649,193.75" class="link"></path><path style="stroke-width: 1.78571; fill: none; stroke: rgb(105, 191, 105); stroke-opacity: 0.4;" d="M325.5,333.39285714285717C487.25,333.39285714285717 487.25,332.67857142857144 649,332.67857142857144" class="link"></path><path style="stroke-width: 1.78571; fill: none; stroke: rgb(105, 191, 121); stroke-opacity: 0.4;" d="M325.5,391.24999999999994C487.25,391.24999999999994 487.25,299.4642857142857 649,299.4642857142857" class="link"></path><path style="stroke-width: 1.78571; fill: none; stroke: rgb(105, 191, 121); stroke-opacity: 0.4;" d="M325.5,389.46428571428567C487.25,389.46428571428567 487.25,188.39285714285714 649,188.39285714285714" class="link"></path><path style="stroke-width: 1.78571; fill: none; stroke: rgb(105, 191, 136); stroke-opacity: 0.4;" d="M325.5,140.17857142857153C487.25,140.17857142857153 487.25,351.6071428571429 649,351.6071428571429" class="link"></path><path style="stroke-width: 1.78571; fill: none; stroke: rgb(105, 191, 152); stroke-opacity: 0.4;" d="M325.5,155.53571428571442C487.25,155.53571428571442 487.25,239.46428571428572 649,239.46428571428572" class="link"></path><path style="stroke-width: 1.78571; fill: none; stroke: rgb(105, 191, 152); stroke-opacity: 0.4;" d="M325.5,160.89285714285725C487.25,160.89285714285725 487.25,353.39285714285717 649,353.39285714285717" class="link"></path><path style="stroke-width: 1.78571; fill: none; stroke: rgb(105, 191, 167); stroke-opacity: 0.4;" d="M325.5,119.46428571428584C487.25,119.46428571428584 487.25,349.8214285714286 649,349.8214285714286" class="link"></path><path style="stroke-width: 1.78571; fill: none; stroke: rgb(105, 191, 183); stroke-opacity: 0.4;" d="M325.5,30.5357142857144C487.25,30.5357142857144 487.25,134.82142857142856 649,134.82142857142856" class="link"></path><path style="stroke-width: 1.78571; fill: none; stroke: rgb(105, 183, 191); stroke-opacity: 0.4;" d="M325.5,214.10714285714297C487.25,214.10714285714297 487.25,329.1071428571429 649,329.1071428571429" class="link"></path><path style="stroke-width: 1.78571; fill: none; stroke: rgb(105, 183, 191); stroke-opacity: 0.4;" d="M325.5,208.7500000000001C487.25,208.7500000000001 487.25,161.60714285714286 649,161.60714285714286" class="link"></path><path style="stroke-width: 1.78571; fill: none; stroke: rgb(105, 167, 191); stroke-opacity: 0.4;" d="M325.5,350.5357142857143C487.25,350.5357142857143 487.25,259.1071428571429 649,259.1071428571429" class="link"></path><path style="stroke-width: 1.78571; fill: none; stroke: rgb(105, 167, 191); stroke-opacity: 0.4;" d="M325.5,348.75C487.25,348.75 487.25,183.03571428571428 649,183.03571428571428" class="link"></path><path style="stroke-width: 1.78571; fill: none; stroke: rgb(105, 152, 191); stroke-opacity: 0.4;" d="M325.5,440.17857142857133C487.25,440.17857142857133 487.25,334.4642857142858 649,334.4642857142858" class="link"></path><path style="stroke-width: 1.78571; fill: none; stroke: rgb(105, 136, 191); stroke-opacity: 0.4;" d="M325.5,258.3928571428573C487.25,258.3928571428573 487.25,253.75 649,253.75" class="link"></path><path style="stroke-width: 1.78571; fill: none; stroke: rgb(105, 136, 191); stroke-opacity: 0.4;" d="M325.5,256.607142857143C487.25,256.607142857143 487.25,168.75 649,168.75" class="link"></path><path style="stroke-width: 1.78571; fill: none; stroke: rgb(105, 136, 191); stroke-opacity: 0.4;" d="M325.5,260.17857142857156C487.25,260.17857142857156 487.25,330.89285714285717 649,330.89285714285717" class="link"></path><path style="stroke-width: 1.78571; fill: none; stroke: rgb(105, 121, 191); stroke-opacity: 0.4;" d="M325.5,463.7499999999999C487.25,463.7499999999999 487.25,195.5357142857143 649,195.5357142857143" class="link"></path><path style="stroke-width: 1.78571; fill: none; stroke: rgb(105, 105, 191); stroke-opacity: 0.4;" d="M325.5,499.1071428571427C487.25,499.1071428571427 487.25,336.25000000000006 649,336.25000000000006" class="link"></path><path style="stroke-width: 1.78571; fill: none; stroke: rgb(121, 105, 191); stroke-opacity: 0.4;" d="M325.5,302.6785714285715C487.25,302.6785714285715 487.25,255.53571428571428 649,255.53571428571428" class="link"></path><path style="stroke-width: 1.78571; fill: none; stroke: rgb(136, 105, 191); stroke-opacity: 0.4;" d="M325.5,377.6785714285714C487.25,377.6785714285714 487.25,297.67857142857144 649,297.67857142857144" class="link"></path><path style="stroke-width: 1.78571; fill: none; stroke: rgb(136, 105, 191); stroke-opacity: 0.4;" d="M325.5,375.8928571428571C487.25,375.8928571428571 487.25,186.60714285714286 649,186.60714285714286" class="link"></path><path style="stroke-width: 1.78571; fill: none; stroke: rgb(167, 105, 191); stroke-opacity: 0.4;" d="M325.5,321.6071428571429C487.25,321.6071428571429 487.25,257.3214285714286 649,257.3214285714286" class="link"></path><path style="stroke-width: 1.78571; fill: none; stroke: rgb(183, 105, 191); stroke-opacity: 0.4;" d="M325.5,229.46428571428584C487.25,229.46428571428584 487.25,294.1071428571429 649,294.1071428571429" class="link"></path><path style="stroke-width: 1.78571; fill: none; stroke: rgb(191, 105, 183); stroke-opacity: 0.4;" d="M325.5,364.10714285714283C487.25,364.10714285714283 487.25,295.89285714285717 649,295.89285714285717" class="link"></path><path style="stroke-width: 1.78571; fill: none; stroke: rgb(191, 105, 183); stroke-opacity: 0.4;" d="M325.5,362.32142857142856C487.25,362.32142857142856 487.25,184.82142857142856 649,184.82142857142856" class="link"></path><path style="stroke-width: 1.78571; fill: none; stroke: rgb(191, 105, 167); stroke-opacity: 0.4;" d="M325.5,416.6071428571428C487.25,416.6071428571428 487.25,190.17857142857142 649,190.17857142857142" class="link"></path><path style="stroke-width: 1.78571; fill: none; stroke: rgb(191, 105, 152); stroke-opacity: 0.4;" d="M325.5,487.32142857142844C487.25,487.32142857142844 487.25,197.32142857142858 649,197.32142857142858" class="link"></path><path style="stroke-width: 1.78571; fill: none; stroke: rgb(191, 105, 136); stroke-opacity: 0.4;" d="M325.5,475.53571428571416C487.25,475.53571428571416 487.25,260.89285714285717 649,260.89285714285717" class="link"></path><path style="stroke-width: 1.78571; fill: none; stroke: rgb(191, 105, 121); stroke-opacity: 0.4;" d="M325.5,428.39285714285705C487.25,428.39285714285705 487.25,191.9642857142857 649,191.9642857142857" class="link"></path></g><g><g transform="translate(324.5,347.85714285714283)" class="node"><rect style="" width="1" height="3.5714285714285716"><title>17
2</title></rect><text style="font-size: 11px; font-family: Arial,Helvetica; pointer-events: none;" text-anchor="start" dy=".35em" y="1.7857142857142858" x="7">17</text></g><g transform="translate(324.5,225.0000000000001)" class="node"><rect style="" width="1" height="5.357142857142858"><title>18
3</title></rect><text style="font-size: 11px; font-family: Arial,Helvetica; pointer-events: none;" text-anchor="start" dy=".35em" y="2.678571428571429" x="7">18</text></g><g transform="translate(324.5,190.71428571428584)" class="node"><rect style="" width="1" height="7.142857142857143"><title>19
4</title></rect><text style="font-size: 11px; font-family: Arial,Helvetica; pointer-events: none;" text-anchor="start" dy=".35em" y="3.5714285714285716" x="7">19</text></g><g transform="translate(324.5,107.85714285714297)" class="node"><rect style="" width="1" height="12.5"><title>20
7</title></rect><text style="font-size: 11px; font-family: Arial,Helvetica; pointer-events: none;" text-anchor="start" dy=".35em" y="6.25" x="7">20</text></g><g transform="translate(324.5,240.35714285714297)" class="node"><rect style="" width="1" height="5.357142857142858"><title>21
3</title></rect><text style="font-size: 11px; font-family: Arial,Helvetica; pointer-events: none;" text-anchor="start" dy=".35em" y="2.678571428571429" x="7">21</text></g><g transform="translate(324.5,130.35714285714297)" class="node"><rect style="" width="1" height="10.714285714285715"><title>22
6</title></rect><text style="font-size: 11px; font-family: Arial,Helvetica; pointer-events: none;" text-anchor="start" dy=".35em" y="5.357142857142858" x="7">22</text></g><g transform="translate(324.5,255.71428571428584)" class="node"><rect style="" width="1" height="5.357142857142858"><title>23
3</title></rect><text style="font-size: 11px; font-family: Arial,Helvetica; pointer-events: none;" text-anchor="start" dy=".35em" y="2.678571428571429" x="7">23</text></g><g transform="translate(324.5,57.500000000000114)" class="node"><rect style="" width="1" height="16.071428571428573"><title>24
9</title></rect><text style="font-size: 11px; font-family: Arial,Helvetica; pointer-events: none;" text-anchor="start" dy=".35em" y="8.035714285714286" x="7">24</text></g><g transform="translate(324.5,83.57142857142868)" class="node"><rect style="" width="1" height="14.285714285714286"><title>25
8</title></rect><text style="font-size: 11px; font-family: Arial,Helvetica; pointer-events: none;" text-anchor="start" dy=".35em" y="7.142857142857143" x="7">25</text></g><g transform="translate(324.5,29.642857142857256)" class="node"><rect style="" width="1" height="17.857142857142858"><title>26
10</title></rect><text style="font-size: 11px; font-family: Arial,Helvetica; pointer-events: none;" text-anchor="start" dy=".35em" y="8.928571428571429" x="7">26</text></g><g transform="translate(324.5,207.85714285714297)" class="node"><rect style="" width="1" height="7.142857142857143"><title>27
4</title></rect><text style="font-size: 11px; font-family: Arial,Helvetica; pointer-events: none;" text-anchor="start" dy=".35em" y="3.5714285714285716" x="7">27</text></g><g transform="translate(324.5,1.1368683772161603e-13)" class="node"><rect style="" width="1" height="19.642857142857142"><title>28
11</title></rect><text style="font-size: 11px; font-family: Arial,Helvetica; pointer-events: none;" text-anchor="start" dy=".35em" y="9.821428571428571" x="7">28</text></g><g transform="translate(324.5,151.0714285714287)" class="node"><rect style="" width="1" height="10.714285714285715"><title>29
6</title></rect><text style="font-size: 11px; font-family: Arial,Helvetica; pointer-events: none;" text-anchor="start" dy=".35em" y="5.357142857142858" x="7">29</text></g><g transform="translate(324.5,171.78571428571442)" class="node"><rect style="" width="1" height="8.928571428571429"><title>30
5</title></rect><text style="font-size: 11px; font-family: Arial,Helvetica; pointer-events: none;" text-anchor="start" dy=".35em" y="4.464285714285714" x="7">30</text></g><g transform="translate(324.5,271.07142857142867)" class="node"><rect style="" width="1" height="5.357142857142858"><title>31
3</title></rect><text style="font-size: 11px; font-family: Arial,Helvetica; pointer-events: none;" text-anchor="start" dy=".35em" y="2.678571428571429" x="7">31</text></g><g transform="translate(324.5,361.4285714285714)" class="node"><rect style="" width="1" height="3.5714285714285716"><title>32
2</title></rect><text style="font-size: 11px; font-family: Arial,Helvetica; pointer-events: none;" text-anchor="start" dy=".35em" y="1.7857142857142858" x="7">32</text></g><g transform="translate(324.5,415.7142857142856)" class="node"><rect style="" width="1" height="1.7857142857142858"><title>33
1</title></rect><text style="font-size: 11px; font-family: Arial,Helvetica; pointer-events: none;" text-anchor="start" dy=".35em" y="0.8928571428571429" x="7">33</text></g><g transform="translate(324.5,286.4285714285715)" class="node"><rect style="" width="1" height="5.357142857142858"><title>34
3</title></rect><text style="font-size: 11px; font-family: Arial,Helvetica; pointer-events: none;" text-anchor="start" dy=".35em" y="2.678571428571429" x="7">34</text></g><g transform="translate(324.5,374.99999999999994)" class="node"><rect style="" width="1" height="3.5714285714285716"><title>35
2</title></rect><text style="font-size: 11px; font-family: Arial,Helvetica; pointer-events: none;" text-anchor="start" dy=".35em" y="1.7857142857142858" x="7">35</text></g><g transform="translate(324.5,427.4999999999999)" class="node"><rect style="" width="1" height="1.7857142857142858"><title>36
1</title></rect><text style="font-size: 11px; font-family: Arial,Helvetica; pointer-events: none;" text-anchor="start" dy=".35em" y="0.8928571428571429" x="7">36</text></g><g transform="translate(324.5,388.5714285714285)" class="node"><rect style="" width="1" height="3.5714285714285716"><title>38
2</title></rect><text style="font-size: 11px; font-family: Arial,Helvetica; pointer-events: none;" text-anchor="start" dy=".35em" y="1.7857142857142858" x="7">38</text></g><g transform="translate(324.5,439.28571428571416)" class="node"><rect style="" width="1" height="1.7857142857142858"><title>40
1</title></rect><text style="font-size: 11px; font-family: Arial,Helvetica; pointer-events: none;" text-anchor="start" dy=".35em" y="0.8928571428571429" x="7">40</text></g><g transform="translate(324.5,301.78571428571433)" class="node"><rect style="" width="1" height="5.357142857142858"><title>41
3</title></rect><text style="font-size: 11px; font-family: Arial,Helvetica; pointer-events: none;" text-anchor="start" dy=".35em" y="2.678571428571429" x="7">41</text></g><g transform="translate(324.5,317.14285714285717)" class="node"><rect style="" width="1" height="5.357142857142858"><title>42
3</title></rect><text style="font-size: 11px; font-family: Arial,Helvetica; pointer-events: none;" text-anchor="start" dy=".35em" y="2.678571428571429" x="7">42</text></g><g transform="translate(324.5,451.07142857142844)" class="node"><rect style="" width="1" height="1.7857142857142858"><title>43
1</title></rect><text style="font-size: 11px; font-family: Arial,Helvetica; pointer-events: none;" text-anchor="start" dy=".35em" y="0.8928571428571429" x="7">43</text></g><g transform="translate(324.5,402.14285714285705)" class="node"><rect style="" width="1" height="3.5714285714285716"><title>44
2</title></rect><text style="font-size: 11px; font-family: Arial,Helvetica; pointer-events: none;" text-anchor="start" dy=".35em" y="1.7857142857142858" x="7">44</text></g><g transform="translate(324.5,462.8571428571427)" class="node"><rect style="" width="1" height="1.7857142857142858"><title>45
1</title></rect><text style="font-size: 11px; font-family: Arial,Helvetica; pointer-events: none;" text-anchor="start" dy=".35em" y="0.8928571428571429" x="7">45</text></g><g transform="translate(324.5,474.642857142857)" class="node"><rect style="" width="1" height="1.7857142857142858"><title>46
1</title></rect><text style="font-size: 11px; font-family: Arial,Helvetica; pointer-events: none;" text-anchor="start" dy=".35em" y="0.8928571428571429" x="7">46</text></g><g transform="translate(324.5,332.5)" class="node"><rect style="" width="1" height="5.357142857142858"><title>47
3</title></rect><text style="font-size: 11px; font-family: Arial,Helvetica; pointer-events: none;" text-anchor="start" dy=".35em" y="2.678571428571429" x="7">47</text></g><g transform="translate(324.5,486.4285714285713)" class="node"><rect style="" width="1" height="1.7857142857142858"><title>55
1</title></rect><text style="font-size: 11px; font-family: Arial,Helvetica; pointer-events: none;" text-anchor="start" dy=".35em" y="0.8928571428571429" x="7">55</text></g><g transform="translate(324.5,498.21428571428555)" class="node"><rect style="" width="1" height="1.7857142857142858"><title>65
1</title></rect><text style="font-size: 11px; font-family: Arial,Helvetica; pointer-events: none;" text-anchor="start" dy=".35em" y="0.8928571428571429" x="7">65</text></g><g transform="translate(649,313.92857142857144)" class="node"><rect style="fill: rgb(102, 102, 102);" width="1" height="23.214285714285715"><title>advanced technical college entrance
13</title></rect><text style="font-size: 11px; font-family: Arial,Helvetica; pointer-events: none;" text-anchor="end" dy=".35em" y="11.607142857142858" x="-6">advanced technical college entrance</text></g><g transform="translate(649,371.42857142857144)" class="node"><rect style="fill: rgb(102, 102, 102);" width="1" height="3.5714285714285716"><title>certificate of secondary education
2</title></rect><text style="font-size: 11px; font-family: Arial,Helvetica; pointer-events: none;" text-anchor="end" dy=".35em" y="1.7857142857142858" x="-6">certificate of secondary education</text></g><g transform="translate(649,347.14285714285717)" class="node"><rect style="fill: rgb(102, 102, 102);" width="1" height="14.285714285714286"><title>general  certificate of secondary education 
8</title></rect><text style="font-size: 11px; font-family: Arial,Helvetica; pointer-events: none;" text-anchor="end" dy=".35em" y="7.142857142857143" x="-6">general  certificate of secondary education </text></g><g transform="translate(649,125)" class="node"><rect style="fill: rgb(102, 102, 102);" width="1" height="73.21428571428572"><title>university
41</title></rect><text style="font-size: 11px; font-family: Arial,Helvetica; pointer-events: none;" text-anchor="end" dy=".35em" y="36.60714285714286" x="-6">university</text></g><g transform="translate(649,208.21428571428572)" class="node"><rect style="fill: rgb(102, 102, 102);" width="1" height="53.57142857142858"><title>university-entrance diploma
30</title></rect><text style="font-size: 11px; font-family: Arial,Helvetica; pointer-events: none;" text-anchor="end" dy=".35em" y="26.78571428571429" x="-6">university-entrance diploma</text></g><g transform="translate(649,271.7857142857143)" class="node"><rect style="fill: rgb(102, 102, 102);" width="1" height="32.142857142857146"><title>vocational training
18</title></rect><text style="font-size: 11px; font-family: Arial,Helvetica; pointer-events: none;" text-anchor="end" dy=".35em" y="16.071428571428573" x="-6">vocational training</text></g><g transform="translate(0,145)" class="node"><rect style="" width="1" height="141.07142857142858"><title>female
79</title></rect><text style="font-size: 11px; font-family: Arial,Helvetica; pointer-events: none;" text-anchor="start" dy=".35em" y="70.53571428571429" x="7">female</text></g><g transform="translate(0,296.07142857142856)" class="node"><rect style="" width="1" height="58.92857142857143"><title>male
33</title></rect><text style="font-size: 11px; font-family: Arial,Helvetica; pointer-events: none;" text-anchor="start" dy=".35em" y="29.464285714285715" x="7">male</text></g></g></g></svg>