<svg version="1.1" xmlns="http://www.w3.org/2000/svg" height="170" width="650"><g transform="translate(0,10)"><g><path style="stroke-width: 53.0357; fill: none; stroke: rgb(254, 99, 113); stroke-opacity: 0.4;" d="M0,66.07142857142857C81.25,66.07142857142857 81.25,106.78571428571428 162.5,106.78571428571428" class="link"></path><path style="stroke-width: 37.3214; fill: none; stroke: rgb(130, 191, 105); stroke-opacity: 0.4;" d="M162.5,131.3392857142857C243.75,131.3392857142857 243.75,131.33928571428572 325,131.33928571428572" class="link"></path><path style="stroke-width: 32.4107; fill: none; stroke: rgb(130, 191, 105); stroke-opacity: 0.4;" d="M487.5,133.79464285714286C568.75,133.79464285714286 568.75,133.79464285714286 650,133.79464285714286" class="link"></path><path style="stroke-width: 31.4286; fill: none; stroke: rgb(130, 191, 105); stroke-opacity: 0.4;" d="M325,134.28571428571428C406.25,134.28571428571428 406.25,134.28571428571428 487.5,134.28571428571428" class="link"></path><path style="stroke-width: 16.6964; fill: none; stroke: rgb(16, 69, 132); stroke-opacity: 0.4;" d="M0,126.6517857142857C81.25,126.6517857142857 81.25,141.6517857142857 162.5,141.6517857142857" class="link"></path><path style="stroke-width: 14.7321; fill: none; stroke: rgb(105, 154, 191); stroke-opacity: 0.4;" d="M487.5,28.169642857142854C568.75,28.169642857142854 568.75,28.169642857142858 650,28.169642857142858" class="link"></path><path style="stroke-width: 13.75; fill: none; stroke: rgb(130, 191, 105); stroke-opacity: 0.4;" d="M162.5,89.10714285714285C243.75,89.10714285714285 243.75,37.5 325,37.5" class="link"></path><path style="stroke-width: 11.7857; fill: none; stroke: rgb(105, 154, 191); stroke-opacity: 0.4;" d="M325,28.660714285714285C406.25,28.660714285714285 406.25,26.69642857142857 487.5,26.69642857142857" class="link"></path><path style="stroke-width: 10.8036; fill: none; stroke: rgb(254, 99, 113); stroke-opacity: 0.4;" d="M0,26.294642857142858C81.25,26.294642857142858 81.25,25.223214285714285 162.5,25.223214285714285" class="link"></path><path style="stroke-width: 9.82143; fill: none; stroke: rgb(130, 191, 105); stroke-opacity: 0.4;" d="M162.5,100.89285714285714C243.75,100.89285714285714 243.75,66.16071428571429 325,66.16071428571429" class="link"></path><path style="stroke-width: 9.82143; fill: none; stroke: rgb(130, 105, 191); stroke-opacity: 0.4;" d="M162.5,4.910714285714286C243.75,4.910714285714286 243.75,4.910714285714286 325,4.910714285714286" class="link"></path><path style="stroke-width: 9.82143; fill: none; stroke: rgb(130, 105, 191); stroke-opacity: 0.4;" d="M325,4.910714285714286C406.25,4.910714285714286 406.25,4.910714285714286 487.5,4.910714285714286" class="link"></path><path style="stroke-width: 9.82143; fill: none; stroke: rgb(130, 105, 191); stroke-opacity: 0.4;" d="M487.5,4.910714285714286C568.75,4.910714285714286 568.75,4.910714285714286 650,4.910714285714286" class="link"></path><path style="stroke-width: 8.83929; fill: none; stroke: rgb(191, 105, 179); stroke-opacity: 0.4;" d="M325,58.794642857142854C406.25,58.794642857142854 406.25,37.00892857142856 487.5,37.00892857142856" class="link"></path><path style="stroke-width: 7.85714; fill: none; stroke: rgb(105, 154, 191); stroke-opacity: 0.4;" d="M487.5,39.464285714285715C568.75,39.464285714285715 568.75,54.375 650,54.375" class="link"></path><path style="stroke-width: 6.875; fill: none; stroke: rgb(130, 191, 105); stroke-opacity: 0.4;" d="M162.5,109.24107142857142C243.75,109.24107142857142 243.75,89.41964285714286 325,89.41964285714286" class="link"></path><path style="stroke-width: 6.875; fill: none; stroke: rgb(191, 105, 179); stroke-opacity: 0.4;" d="M487.5,63.70535714285714C568.75,63.70535714285714 568.75,61.74107142857142 650,61.74107142857142" class="link"></path><path style="stroke-width: 6.875; fill: none; stroke: rgb(105, 191, 154); stroke-opacity: 0.4;" d="M487.5,99.24107142857143C568.75,99.24107142857143 568.75,114.15178571428571 650,114.15178571428571" class="link"></path><path style="stroke-width: 5.89286; fill: none; stroke: rgb(254, 99, 113); stroke-opacity: 0.4;" d="M0,36.607142857142854C81.25,36.607142857142854 81.25,62.41071428571428 162.5,62.41071428571428" class="link"></path><path style="stroke-width: 5.89286; fill: none; stroke: rgb(254, 99, 113); stroke-opacity: 0.4;" d="M0,17.94642857142857C81.25,17.94642857142857 81.25,2.946428571428571 162.5,2.946428571428571" class="link"></path><path style="stroke-width: 5.89286; fill: none; stroke: rgb(105, 154, 191); stroke-opacity: 0.4;" d="M162.5,31.607142857142854C243.75,31.607142857142854 243.75,105.80357142857143 325,105.80357142857143" class="link"></path><path style="stroke-width: 5.89286; fill: none; stroke: rgb(130, 191, 105); stroke-opacity: 0.4;" d="M325,109.73214285714286C406.25,109.73214285714286 406.25,75 487.5,75" class="link"></path><path style="stroke-width: 5.89286; fill: none; stroke: rgb(130, 191, 105); stroke-opacity: 0.4;" d="M325,115.625C406.25,115.625 406.25,99.73214285714285 487.5,99.73214285714285" class="link"></path><path style="stroke-width: 5.89286; fill: none; stroke: rgb(105, 154, 191); stroke-opacity: 0.4;" d="M325,37.5C406.25,37.5 406.25,61.24999999999999 487.5,61.24999999999999" class="link"></path><path style="stroke-width: 5.89286; fill: none; stroke: rgb(105, 191, 154); stroke-opacity: 0.4;" d="M325,87.94642857142857C406.25,87.94642857142857 406.25,93.83928571428571 487.5,93.83928571428571" class="link"></path><path style="stroke-width: 5.89286; fill: none; stroke: rgb(191, 105, 179); stroke-opacity: 0.4;" d="M325,66.16071428571429C406.25,66.16071428571429 406.25,67.14285714285714 487.5,67.14285714285714" class="link"></path><path style="stroke-width: 5.89286; fill: none; stroke: rgb(191, 105, 179); stroke-opacity: 0.4;" d="M487.5,70.08928571428571C568.75,70.08928571428571 568.75,83.03571428571428 650,83.03571428571428" class="link"></path><path style="stroke-width: 5.89286; fill: none; stroke: rgb(105, 191, 154); stroke-opacity: 0.4;" d="M487.5,92.85714285714285C568.75,92.85714285714285 568.75,88.92857142857142 650,88.92857142857142" class="link"></path><path style="stroke-width: 4.91071; fill: none; stroke: rgb(16, 69, 132); stroke-opacity: 0.4;" d="M0,115.84821428571428C81.25,115.84821428571428 81.25,67.81249999999999 162.5,67.81249999999999" class="link"></path><path style="stroke-width: 4.91071; fill: none; stroke: rgb(191, 105, 179); stroke-opacity: 0.4;" d="M487.5,75.49107142857142C568.75,75.49107142857142 568.75,108.25892857142857 650,108.25892857142857" class="link"></path><path style="stroke-width: 3.92857; fill: none; stroke: rgb(16, 69, 132); stroke-opacity: 0.4;" d="M0,108.48214285714285C81.25,108.48214285714285 81.25,32.589285714285715 162.5,32.589285714285715" class="link"></path><path style="stroke-width: 3.92857; fill: none; stroke: rgb(16, 69, 132); stroke-opacity: 0.4;" d="M0,104.55357142857142C81.25,104.55357142857142 81.25,7.857142857142857 162.5,7.857142857142857" class="link"></path><path style="stroke-width: 3.92857; fill: none; stroke: rgb(105, 154, 191); stroke-opacity: 0.4;" d="M162.5,22.767857142857142C243.75,22.767857142857142 243.75,24.732142857142858 325,24.732142857142858" class="link"></path><path style="stroke-width: 3.92857; fill: none; stroke: rgb(130, 191, 105); stroke-opacity: 0.4;" d="M325,104.82142857142857C406.25,104.82142857142857 406.25,45.357142857142854 487.5,45.357142857142854" class="link"></path><path style="stroke-width: 2.94643; fill: none; stroke: rgb(16, 69, 132); stroke-opacity: 0.4;" d="M0,111.91964285714286C81.25,111.91964285714286 81.25,47.99107142857142 162.5,47.99107142857142" class="link"></path><path style="stroke-width: 2.94643; fill: none; stroke: rgb(105, 191, 154); stroke-opacity: 0.4;" d="M162.5,65.84821428571429C243.75,65.84821428571429 243.75,84.50892857142857 325,84.50892857142857" class="link"></path><path style="stroke-width: 2.94643; fill: none; stroke: rgb(105, 191, 154); stroke-opacity: 0.4;" d="M162.5,62.90178571428571C243.75,62.90178571428571 243.75,59.776785714285715 325,59.776785714285715" class="link"></path><path style="stroke-width: 2.94643; fill: none; stroke: rgb(105, 191, 154); stroke-opacity: 0.4;" d="M162.5,68.79464285714286C243.75,68.79464285714286 243.75,111.20535714285715 325,111.20535714285715" class="link"></path><path style="stroke-width: 2.94643; fill: none; stroke: rgb(105, 154, 191); stroke-opacity: 0.4;" d="M162.5,26.20535714285714C243.75,26.20535714285714 243.75,55.848214285714285 325,55.848214285714285" class="link"></path><path style="stroke-width: 2.94643; fill: none; stroke: rgb(191, 105, 179); stroke-opacity: 0.4;" d="M487.5,58.794642857142854C568.75,58.794642857142854 568.75,37.00892857142857 650,37.00892857142857" class="link"></path><path style="stroke-width: 2.94643; fill: none; stroke: rgb(105, 154, 191); stroke-opacity: 0.4;" d="M487.5,44.86607142857142C568.75,44.86607142857142 568.75,78.61607142857143 650,78.61607142857143" class="link"></path><path style="stroke-width: 2.94643; fill: none; stroke: rgb(130, 191, 105); stroke-opacity: 0.4;" d="M487.5,116.11607142857142C568.75,116.11607142857142 568.75,93.34821428571429 650,93.34821428571429" class="link"></path><path style="stroke-width: 1.96429; fill: none; stroke: rgb(254, 99, 113); stroke-opacity: 0.4;" d="M0,32.67857142857142C81.25,32.67857142857142 81.25,45.53571428571428 162.5,45.53571428571428" class="link"></path><path style="stroke-width: 1.96429; fill: none; stroke: rgb(130, 191, 105); stroke-opacity: 0.4;" d="M162.5,81.25C243.75,81.25 243.75,11.785714285714286 325,11.785714285714286" class="link"></path><path style="stroke-width: 1.96429; fill: none; stroke: rgb(105, 191, 154); stroke-opacity: 0.4;" d="M162.5,60.44642857142856C243.75,60.44642857142856 243.75,29.642857142857142 325,29.642857142857142" class="link"></path><path style="stroke-width: 1.96429; fill: none; stroke: rgb(191, 105, 179); stroke-opacity: 0.4;" d="M162.5,45.53571428571428C243.75,45.53571428571428 243.75,27.678571428571427 325,27.678571428571427" class="link"></path><path style="stroke-width: 1.96429; fill: none; stroke: rgb(105, 154, 191); stroke-opacity: 0.4;" d="M325,41.42857142857142C406.25,41.42857142857142 406.25,88.92857142857143 487.5,88.92857142857143" class="link"></path><path style="stroke-width: 1.96429; fill: none; stroke: rgb(105, 154, 191); stroke-opacity: 0.4;" d="M325,43.39285714285714C406.25,43.39285714285714 406.25,114.64285714285714 487.5,114.64285714285714" class="link"></path><path style="stroke-width: 1.96429; fill: none; stroke: rgb(105, 191, 154); stroke-opacity: 0.4;" d="M325,84.01785714285714C406.25,84.01785714285714 406.25,71.07142857142857 487.5,71.07142857142857" class="link"></path><path style="stroke-width: 1.96429; fill: none; stroke: rgb(105, 191, 154); stroke-opacity: 0.4;" d="M325,91.875C406.25,91.875 406.25,117.58928571428571 487.5,117.58928571428571" class="link"></path><path style="stroke-width: 1.96429; fill: none; stroke: rgb(105, 191, 154); stroke-opacity: 0.4;" d="M325,82.05357142857143C406.25,82.05357142857143 406.25,42.41071428571428 487.5,42.41071428571428" class="link"></path><path style="stroke-width: 1.96429; fill: none; stroke: rgb(105, 191, 154); stroke-opacity: 0.4;" d="M487.5,88.92857142857143C568.75,88.92857142857143 568.75,66.16071428571429 650,66.16071428571429" class="link"></path><path style="stroke-width: 1.96429; fill: none; stroke: rgb(130, 191, 105); stroke-opacity: 0.4;" d="M487.5,113.66071428571428C568.75,113.66071428571428 568.75,39.464285714285715 650,39.464285714285715" class="link"></path><path style="stroke-width: 1; fill: none; stroke: rgb(105, 154, 191); stroke-opacity: 0.4;" d="M162.5,28.169642857142854C243.75,28.169642857142854 243.75,81.5625 325,81.5625" class="link"></path><path style="stroke-width: 1; fill: none; stroke: rgb(105, 154, 191); stroke-opacity: 0.4;" d="M162.5,20.312499999999996C243.75,20.312499999999996 243.75,10.3125 325,10.3125" class="link"></path><path style="stroke-width: 1; fill: none; stroke: rgb(191, 105, 179); stroke-opacity: 0.4;" d="M162.5,48.973214285714285C243.75,48.973214285714285 243.75,109.24107142857143 325,109.24107142857143" class="link"></path><path style="stroke-width: 1; fill: none; stroke: rgb(191, 105, 179); stroke-opacity: 0.4;" d="M162.5,47.00892857142857C243.75,47.00892857142857 243.75,57.8125 325,57.8125" class="link"></path><path style="stroke-width: 1; fill: none; stroke: rgb(191, 105, 179); stroke-opacity: 0.4;" d="M162.5,47.99107142857142C243.75,47.99107142857142 243.75,82.54464285714286 325,82.54464285714286" class="link"></path><path style="stroke-width: 1; fill: none; stroke: rgb(191, 105, 179); stroke-opacity: 0.4;" d="M325,69.59821428571429C406.25,69.59821428571429 406.25,90.40178571428571 487.5,90.40178571428571" class="link"></path><path style="stroke-width: 1; fill: none; stroke: rgb(191, 105, 179); stroke-opacity: 0.4;" d="M325,70.58035714285714C406.25,70.58035714285714 406.25,116.11607142857142 487.5,116.11607142857142" class="link"></path><path style="stroke-width: 1; fill: none; stroke: rgb(130, 105, 191); stroke-opacity: 0.4;" d="M325,12.276785714285715C406.25,12.276785714285715 406.25,113.16964285714285 487.5,113.16964285714285" class="link"></path><path style="stroke-width: 1; fill: none; stroke: rgb(130, 105, 191); stroke-opacity: 0.4;" d="M325,11.294642857142858C406.25,11.294642857142858 406.25,57.8125 487.5,57.8125" class="link"></path><path style="stroke-width: 1; fill: none; stroke: rgb(130, 105, 191); stroke-opacity: 0.4;" d="M325,10.3125C406.25,10.3125 406.25,20.312499999999996 487.5,20.312499999999996" class="link"></path><path style="stroke-width: 1; fill: none; stroke: rgb(105, 154, 191); stroke-opacity: 0.4;" d="M487.5,20.312499999999996C568.75,20.312499999999996 568.75,10.3125 650,10.3125" class="link"></path><path style="stroke-width: 1; fill: none; stroke: rgb(105, 154, 191); stroke-opacity: 0.4;" d="M487.5,46.83035714285714C568.75,46.83035714285714 568.75,105.3125 650,105.3125" class="link"></path></g><g><g transform="translate(487.5,0)" class="node"><rect style="" width="0" height="9.821428571428571"><title>
10</title></rect><text style="font-size: 11px; font-family: Arial,Helvetica; pointer-events: none;" text-anchor="end" dy=".35em" y="4.910714285714286" x="-6"></text></g><g transform="translate(487.5,19.82142857142857)" class="node"><rect style="" width="0" height="27.5"><title>1
28</title></rect><text style="font-size: 11px; font-family: Arial,Helvetica; pointer-events: none;" text-anchor="end" dy=".35em" y="13.75" x="-6">1</text></g><g transform="translate(487.5,57.32142857142857)" class="node"><rect style="" width="0" height="20.625"><title>2
21</title></rect><text style="font-size: 11px; font-family: Arial,Helvetica; pointer-events: none;" text-anchor="end" dy=".35em" y="10.3125" x="-6">2</text></g><g transform="translate(487.5,87.94642857142857)" class="node"><rect style="" width="0" height="14.732142857142856"><title>3
15</title></rect><text style="font-size: 11px; font-family: Arial,Helvetica; pointer-events: none;" text-anchor="end" dy=".35em" y="7.366071428571428" x="-6">3</text></g><g transform="translate(487.5,112.67857142857142)" class="node"><rect style="" width="0" height="37.32142857142857"><title>4
38</title></rect><text style="font-size: 11px; font-family: Arial,Helvetica; pointer-events: none;" text-anchor="end" dy=".35em" y="18.660714285714285" x="-6">4</text></g><g transform="translate(0,15)" class="node"><rect style="" width="0" height="77.58928571428571"><title>female
79</title></rect><text style="font-size: 11px; font-family: Arial,Helvetica; pointer-events: none;" text-anchor="start" dy=".35em" y="38.794642857142854" x="6">female</text></g><g transform="translate(0,102.58928571428571)" class="node"><rect style="" width="0" height="32.410714285714285"><title>male
33</title></rect><text style="font-size: 11px; font-family: Arial,Helvetica; pointer-events: none;" text-anchor="start" dy=".35em" y="16.205357142857142" x="6">male</text></g><g transform="translate(162.5,0)" class="node"><rect style="" width="0" height="9.821428571428571"><title>
10</title></rect><text style="font-size: 11px; font-family: Arial,Helvetica; pointer-events: none;" text-anchor="start" dy=".35em" y="4.910714285714286" x="6"></text></g><g transform="translate(162.5,19.82142857142857)" class="node"><rect style="" width="0" height="14.732142857142856"><title>1
15</title></rect><text style="font-size: 11px; font-family: Arial,Helvetica; pointer-events: none;" text-anchor="start" dy=".35em" y="7.366071428571428" x="6">1</text></g><g transform="translate(162.5,44.55357142857142)" class="node"><rect style="" width="0" height="4.910714285714286"><title>2
5</title></rect><text style="font-size: 11px; font-family: Arial,Helvetica; pointer-events: none;" text-anchor="start" dy=".35em" y="2.455357142857143" x="6">2</text></g><g transform="translate(162.5,59.46428571428571)" class="node"><rect style="" width="0" height="10.803571428571429"><title>3
11</title></rect><text style="font-size: 11px; font-family: Arial,Helvetica; pointer-events: none;" text-anchor="start" dy=".35em" y="5.401785714285714" x="6">3</text></g><g transform="translate(162.5,80.26785714285714)" class="node"><rect style="" width="0" height="69.73214285714285"><title>4
71</title></rect><text style="font-size: 11px; font-family: Arial,Helvetica; pointer-events: none;" text-anchor="start" dy=".35em" y="34.86607142857142" x="6">4</text></g><g transform="translate(650,0)" class="node"><rect style="fill: rgb(102, 102, 102);" width="0" height="10.803571428571429"><title>
11</title></rect><text style="font-size: 11px; font-family: Arial,Helvetica; pointer-events: none;" text-anchor="end" dy=".35em" y="5.401785714285714" x="-6"></text></g><g transform="translate(650,20.80357142857143)" class="node"><rect style="fill: rgb(102, 102, 102);" width="0" height="19.642857142857142"><title>1
20</title></rect><text style="font-size: 11px; font-family: Arial,Helvetica; pointer-events: none;" text-anchor="end" dy=".35em" y="9.821428571428571" x="-6">1</text></g><g transform="translate(650,50.44642857142857)" class="node"><rect style="fill: rgb(102, 102, 102);" width="0" height="16.69642857142857"><title>2
17</title></rect><text style="font-size: 11px; font-family: Arial,Helvetica; pointer-events: none;" text-anchor="end" dy=".35em" y="8.348214285714285" x="-6">2</text></g><g transform="translate(650,77.14285714285714)" class="node"><rect style="fill: rgb(102, 102, 102);" width="0" height="17.678571428571427"><title>3
18</title></rect><text style="font-size: 11px; font-family: Arial,Helvetica; pointer-events: none;" text-anchor="end" dy=".35em" y="8.839285714285714" x="-6">3</text></g><g transform="translate(650,104.82142857142857)" class="node"><rect style="fill: rgb(102, 102, 102);" width="0" height="45.17857142857142"><title>4
46</title></rect><text style="font-size: 11px; font-family: Arial,Helvetica; pointer-events: none;" text-anchor="end" dy=".35em" y="22.58928571428571" x="-6">4</text></g><g transform="translate(325,0)" class="node"><rect style="" width="0" height="12.767857142857142"><title>
13</title></rect><text style="font-size: 11px; font-family: Arial,Helvetica; pointer-events: none;" text-anchor="end" dy=".35em" y="6.383928571428571" x="-6"></text></g><g transform="translate(325,22.767857142857142)" class="node"><rect style="" width="0" height="21.607142857142858"><title>1
22</title></rect><text style="font-size: 11px; font-family: Arial,Helvetica; pointer-events: none;" text-anchor="end" dy=".35em" y="10.803571428571429" x="-6">1</text></g><g transform="translate(325,54.375)" class="node"><rect style="" width="0" height="16.69642857142857"><title>2
17</title></rect><text style="font-size: 11px; font-family: Arial,Helvetica; pointer-events: none;" text-anchor="end" dy=".35em" y="8.348214285714285" x="-6">2</text></g><g transform="translate(325,81.07142857142857)" class="node"><rect style="" width="0" height="11.785714285714285"><title>3
12</title></rect><text style="font-size: 11px; font-family: Arial,Helvetica; pointer-events: none;" text-anchor="end" dy=".35em" y="5.892857142857142" x="-6">3</text></g><g transform="translate(325,102.85714285714286)" class="node"><rect style="" width="0" height="47.14285714285714"><title>4
48</title></rect><text style="font-size: 11px; font-family: Arial,Helvetica; pointer-events: none;" text-anchor="end" dy=".35em" y="23.57142857142857" x="-6">4</text></g></g></g></svg>