<svg version="1.1" xmlns="http://www.w3.org/2000/svg" height="520" width="650"><g transform="translate(0,10)"><g><path style="stroke-width: 112.5; fill: none; stroke: rgb(254, 99, 113); stroke-opacity: 0.4;" d="M0,281.16071428571433C162.5,281.16071428571433 162.5,410.625 325,410.625" class="link"></path><path style="stroke-width: 100.446; fill: none; stroke: rgb(254, 99, 113); stroke-opacity: 0.4;" d="M0,174.6875C162.5,174.6875 162.5,262.0089285714286 325,262.0089285714286" class="link"></path><path style="stroke-width: 72.3214; fill: none; stroke: rgb(254, 99, 113); stroke-opacity: 0.4;" d="M0,80.26785714285712C162.5,80.26785714285712 162.5,107.41071428571429 325,107.41071428571429" class="link"></path><path style="stroke-width: 56.25; fill: none; stroke: rgb(105, 191, 154); stroke-opacity: 0.4;" d="M325,288.125C487.5,288.125 487.5,343.3928571428571 650,343.3928571428571" class="link"></path><path style="stroke-width: 40.1786; fill: none; stroke: rgb(105, 154, 191); stroke-opacity: 0.4;" d="M325,115.44642857142858C487.5,115.44642857142858 487.5,168.6607142857143 650,168.6607142857143" class="link"></path><path style="stroke-width: 36.1607; fill: none; stroke: rgb(130, 191, 105); stroke-opacity: 0.4;" d="M325,416.6517857142857C487.5,416.6517857142857 487.5,242.99107142857142 650,242.99107142857142" class="link"></path><path style="stroke-width: 32.1429; fill: none; stroke: rgb(16, 69, 132); stroke-opacity: 0.4;" d="M0,435.80357142857144C162.5,435.80357142857144 162.5,328.30357142857144 325,328.30357142857144" class="link"></path><path style="stroke-width: 32.1429; fill: none; stroke: rgb(16, 69, 132); stroke-opacity: 0.4;" d="M0,363.4821428571429C162.5,363.4821428571429 162.5,45.17857142857143 325,45.17857142857143" class="link"></path><path style="stroke-width: 32.1429; fill: none; stroke: rgb(130, 191, 105); stroke-opacity: 0.4;" d="M325,382.5C487.5,382.5 487.5,106.4285714285714 650,106.4285714285714" class="link"></path><path style="stroke-width: 32.1429; fill: none; stroke: rgb(130, 191, 105); stroke-opacity: 0.4;" d="M325,450.80357142857144C487.5,450.80357142857144 487.5,387.58928571428567 650,387.58928571428567" class="link"></path><path style="stroke-width: 32.1429; fill: none; stroke: rgb(105, 191, 154); stroke-opacity: 0.4;" d="M325,243.92857142857147C487.5,243.92857142857147 487.5,208.83928571428572 650,208.83928571428572" class="link"></path><path style="stroke-width: 28.125; fill: none; stroke: rgb(16, 69, 132); stroke-opacity: 0.4;" d="M0,393.6160714285715C162.5,393.6160714285715 162.5,157.63392857142858 325,157.63392857142858" class="link"></path><path style="stroke-width: 28.125; fill: none; stroke: rgb(16, 69, 132); stroke-opacity: 0.4;" d="M0,465.93750000000006C162.5,465.93750000000006 162.5,480.9375 325,480.9375" class="link"></path><path style="stroke-width: 28.125; fill: none; stroke: rgb(105, 191, 154); stroke-opacity: 0.4;" d="M325,330.3125C487.5,330.3125 487.5,447.8125 650,447.8125" class="link"></path><path style="stroke-width: 28.125; fill: none; stroke: rgb(105, 154, 191); stroke-opacity: 0.4;" d="M325,149.59821428571428C487.5,149.59821428571428 487.5,297.1875 650,297.1875" class="link"></path><path style="stroke-width: 24.1071; fill: none; stroke: rgb(254, 99, 113); stroke-opacity: 0.4;" d="M0,32.0535714285714C162.5,32.0535714285714 162.5,17.05357142857143 325,17.05357142857143" class="link"></path><path style="stroke-width: 24.1071; fill: none; stroke: rgb(130, 191, 105); stroke-opacity: 0.4;" d="M325,478.92857142857144C487.5,478.92857142857144 487.5,473.92857142857144 650,473.92857142857144" class="link"></path><path style="stroke-width: 20.0893; fill: none; stroke: rgb(105, 154, 191); stroke-opacity: 0.4;" d="M325,85.3125C487.5,85.3125 487.5,64.2410714285714 650,64.2410714285714" class="link"></path><path style="stroke-width: 20.0893; fill: none; stroke: rgb(130, 105, 191); stroke-opacity: 0.4;" d="M325,15.044642857142858C487.5,15.044642857142858 487.5,44.151785714285694 650,44.151785714285694" class="link"></path><path style="stroke-width: 16.0714; fill: none; stroke: rgb(130, 105, 191); stroke-opacity: 0.4;" d="M325,33.125C487.5,33.125 487.5,140.53571428571428 650,140.53571428571428" class="link"></path><path style="stroke-width: 12.0536; fill: none; stroke: rgb(16, 69, 132); stroke-opacity: 0.4;" d="M0,413.7053571428572C162.5,413.7053571428572 162.5,195.75892857142858 325,195.75892857142858" class="link"></path><path style="stroke-width: 12.0536; fill: none; stroke: rgb(130, 191, 105); stroke-opacity: 0.4;" d="M325,360.4017857142857C487.5,360.4017857142857 487.5,18.080357142857117 650,18.080357142857117" class="link"></path><path style="stroke-width: 12.0536; fill: none; stroke: rgb(130, 105, 191); stroke-opacity: 0.4;" d="M325,47.18750000000001C487.5,47.18750000000001 487.5,277.0982142857143 650,277.0982142857143" class="link"></path><path style="stroke-width: 8.03571; fill: none; stroke: rgb(254, 99, 113); stroke-opacity: 0.4;" d="M0,120.44642857142856C162.5,120.44642857142856 162.5,185.71428571428572 325,185.71428571428572" class="link"></path><path style="stroke-width: 8.03571; fill: none; stroke: rgb(105, 191, 154); stroke-opacity: 0.4;" d="M325,215.80357142857144C487.5,215.80357142857144 487.5,8.035714285714258 650,8.035714285714258" class="link"></path><path style="stroke-width: 8.03571; fill: none; stroke: rgb(105, 191, 154); stroke-opacity: 0.4;" d="M325,223.83928571428572C487.5,223.83928571428572 487.5,86.3392857142857 650,86.3392857142857" class="link"></path><path style="stroke-width: 8.03571; fill: none; stroke: rgb(105, 154, 191); stroke-opacity: 0.4;" d="M325,167.67857142857142C487.5,167.67857142857142 487.5,425.7142857142857 650,425.7142857142857" class="link"></path><path style="stroke-width: 8.03571; fill: none; stroke: rgb(130, 105, 191); stroke-opacity: 0.4;" d="M325,57.23214285714287C487.5,57.23214285714287 487.5,417.67857142857144 650,417.67857142857144" class="link"></path><path style="stroke-width: 8.03571; fill: none; stroke: rgb(191, 105, 179); stroke-opacity: 0.4;" d="M325,185.71428571428572C487.5,185.71428571428572 487.5,78.3035714285714 650,78.3035714285714" class="link"></path><path style="stroke-width: 4.01786; fill: none; stroke: rgb(130, 191, 105); stroke-opacity: 0.4;" d="M325,492.99107142857144C487.5,492.99107142857144 487.5,497.99107142857144 650,497.99107142857144" class="link"></path><path style="stroke-width: 4.01786; fill: none; stroke: rgb(105, 154, 191); stroke-opacity: 0.4;" d="M325,73.25892857142857C487.5,73.25892857142857 487.5,2.008928571428543 650,2.008928571428543" class="link"></path><path style="stroke-width: 4.01786; fill: none; stroke: rgb(191, 105, 179); stroke-opacity: 0.4;" d="M325,199.77678571428575C487.5,199.77678571428575 487.5,431.7410714285714 650,431.7410714285714" class="link"></path><path style="stroke-width: 4.01786; fill: none; stroke: rgb(191, 105, 179); stroke-opacity: 0.4;" d="M325,191.74107142857144C487.5,191.74107142857144 487.5,190.75892857142858 650,190.75892857142858" class="link"></path><path style="stroke-width: 4.01786; fill: none; stroke: rgb(191, 105, 179); stroke-opacity: 0.4;" d="M325,195.75892857142858C487.5,195.75892857142858 487.5,313.25892857142856 650,313.25892857142856" class="link"></path></g><g><g transform="translate(650,-2.842170943040401e-14)" class="node"><rect style="fill: rgb(102, 102, 102);" width="0" height="24.10714285714286"><title>1
6</title></rect><text style="font-size: 11px; font-family: Arial,Helvetica; pointer-events: none;" text-anchor="end" dy=".35em" y="12.05357142857143" x="-6">1</text></g><g transform="translate(650,34.10714285714283)" class="node"><rect style="fill: rgb(102, 102, 102);" width="0" height="88.39285714285715"><title>2
22</title></rect><text style="font-size: 11px; font-family: Arial,Helvetica; pointer-events: none;" text-anchor="end" dy=".35em" y="44.19642857142858" x="-6">2</text></g><g transform="translate(650,132.5)" class="node"><rect style="fill: rgb(102, 102, 102);" width="0" height="128.57142857142858"><title>3
32</title></rect><text style="font-size: 11px; font-family: Arial,Helvetica; pointer-events: none;" text-anchor="end" dy=".35em" y="64.28571428571429" x="-6">3</text></g><g transform="translate(650,271.07142857142856)" class="node"><rect style="fill: rgb(102, 102, 102);" width="0" height="132.58928571428572"><title>4
33</title></rect><text style="font-size: 11px; font-family: Arial,Helvetica; pointer-events: none;" text-anchor="end" dy=".35em" y="66.29464285714286" x="-6">4</text></g><g transform="translate(650,413.6607142857143)" class="node"><rect style="fill: rgb(102, 102, 102);" width="0" height="72.32142857142858"><title>5
18</title></rect><text style="font-size: 11px; font-family: Arial,Helvetica; pointer-events: none;" text-anchor="end" dy=".35em" y="36.16071428571429" x="-6">5</text></g><g transform="translate(650,495.9821428571429)" class="node"><rect style="fill: rgb(102, 102, 102);" width="0" height="4.017857142857143"><title>6
1</title></rect><text style="font-size: 11px; font-family: Arial,Helvetica; pointer-events: none;" text-anchor="end" dy=".35em" y="2.0089285714285716" x="-6">6</text></g><g transform="translate(0,19.99999999999997)" class="node"><rect style="" width="0" height="317.41071428571433"><title>female
79</title></rect><text style="font-size: 11px; font-family: Arial,Helvetica; pointer-events: none;" text-anchor="start" dy=".35em" y="158.70535714285717" x="6">female</text></g><g transform="translate(0,347.41071428571433)" class="node"><rect style="" width="0" height="132.58928571428572"><title>male
33</title></rect><text style="font-size: 11px; font-family: Arial,Helvetica; pointer-events: none;" text-anchor="start" dy=".35em" y="66.29464285714286" x="6">male</text></g><g transform="translate(325,5)" class="node"><rect style="" width="0" height="56.25000000000001"><title>all-eater
14</title></rect><text style="font-size: 11px; font-family: Arial,Helvetica; pointer-events: none;" text-anchor="end" dy=".35em" y="28.125000000000004" x="-6">all-eater</text></g><g transform="translate(325,71.25)" class="node"><rect style="" width="0" height="100.44642857142858"><title>all-eater, but eating less meat
25</title></rect><text style="font-size: 11px; font-family: Arial,Helvetica; pointer-events: none;" text-anchor="end" dy=".35em" y="50.22321428571429" x="-6">all-eater, but eating less meat</text></g><g transform="translate(325,181.69642857142858)" class="node"><rect style="" width="0" height="20.089285714285715"><title>pescetarian
5</title></rect><text style="font-size: 11px; font-family: Arial,Helvetica; pointer-events: none;" text-anchor="end" dy=".35em" y="10.044642857142858" x="-6">pescetarian</text></g><g transform="translate(325,211.7857142857143)" class="node"><rect style="" width="0" height="132.58928571428572"><title>vegan
33</title></rect><text style="font-size: 11px; font-family: Arial,Helvetica; pointer-events: none;" text-anchor="end" dy=".35em" y="66.29464285714286" x="-6">vegan</text></g><g transform="translate(325,354.375)" class="node"><rect style="" width="0" height="140.625"><title>vegetarian
35</title></rect><text style="font-size: 11px; font-family: Arial,Helvetica; pointer-events: none;" text-anchor="end" dy=".35em" y="70.3125" x="-6">vegetarian</text></g></g></g></svg>