<svg version="1.1" xmlns="http://www.w3.org/2000/svg" height="520" width="650"><g transform="translate(0,10)"><g><path style="stroke-width: 120.536; fill: none; stroke: rgb(105, 191, 154); stroke-opacity: 0.4;" d="M325,215.89285714285714C487.5,215.89285714285714 487.5,168.74999999999997 650,168.74999999999997" class="link"></path><path style="stroke-width: 112.5; fill: none; stroke: rgb(254, 99, 113); stroke-opacity: 0.4;" d="M0,76.24999999999997C162.5,76.24999999999997 162.5,61.25000000000001 325,61.25000000000001" class="link"></path><path style="stroke-width: 108.482; fill: none; stroke: rgb(130, 191, 105); stroke-opacity: 0.4;" d="M325,59.24107142857143C487.5,59.24107142857143 487.5,54.2410714285714 650,54.2410714285714" class="link"></path><path style="stroke-width: 100.446; fill: none; stroke: rgb(254, 99, 113); stroke-opacity: 0.4;" d="M0,182.72321428571428C162.5,182.72321428571428 162.5,205.84821428571428 325,205.84821428571428" class="link"></path><path style="stroke-width: 76.3393; fill: none; stroke: rgb(105, 154, 191); stroke-opacity: 0.4;" d="M325,336.38392857142856C487.5,336.38392857142856 487.5,267.1875 650,267.1875" class="link"></path><path style="stroke-width: 72.3214; fill: none; stroke: rgb(254, 99, 113); stroke-opacity: 0.4;" d="M0,269.1071428571429C162.5,269.1071428571429 162.5,334.375 325,334.375" class="link"></path><path style="stroke-width: 40.1786; fill: none; stroke: rgb(130, 105, 191); stroke-opacity: 0.4;" d="M325,428.75000000000006C487.5,428.75000000000006 487.5,325.4464285714286 650,325.4464285714286" class="link"></path><path style="stroke-width: 32.1429; fill: none; stroke: rgb(16, 69, 132); stroke-opacity: 0.4;" d="M0,391.6071428571429C162.5,391.6071428571429 162.5,272.1428571428571 325,272.1428571428571" class="link"></path><path style="stroke-width: 32.1429; fill: none; stroke: rgb(16, 69, 132); stroke-opacity: 0.4;" d="M0,451.87500000000006C162.5,451.87500000000006 162.5,448.8392857142858 325,448.8392857142858" class="link"></path><path style="stroke-width: 28.125; fill: none; stroke: rgb(16, 69, 132); stroke-opacity: 0.4;" d="M0,421.7410714285715C162.5,421.7410714285715 162.5,384.59821428571433 325,384.59821428571433" class="link"></path><path style="stroke-width: 28.125; fill: none; stroke: rgb(16, 69, 132); stroke-opacity: 0.4;" d="M0,361.47321428571433C162.5,361.47321428571433 162.5,131.56250000000003 325,131.56250000000003" class="link"></path><path style="stroke-width: 24.1071; fill: none; stroke: rgb(254, 99, 113); stroke-opacity: 0.4;" d="M0,317.32142857142867C162.5,317.32142857142867 162.5,420.7142857142858 325,420.7142857142858" class="link"></path><path style="stroke-width: 20.0893; fill: none; stroke: rgb(191, 105, 179); stroke-opacity: 0.4;" d="M325,484.95535714285717C487.5,484.95535714285717 487.5,355.58035714285717 650,355.58035714285717" class="link"></path><path style="stroke-width: 16.0714; fill: none; stroke: rgb(130, 191, 105); stroke-opacity: 0.4;" d="M325,125.53571428571429C487.5,125.53571428571429 487.5,413.75 650,413.75" class="link"></path><path style="stroke-width: 12.0536; fill: none; stroke: rgb(16, 69, 132); stroke-opacity: 0.4;" d="M0,473.9732142857144C162.5,473.9732142857144 162.5,488.97321428571433 325,488.97321428571433" class="link"></path><path style="stroke-width: 8.03571; fill: none; stroke: rgb(254, 99, 113); stroke-opacity: 0.4;" d="M0,333.3928571428573C162.5,333.3928571428573 162.5,478.9285714285715 325,478.9285714285715" class="link"></path><path style="stroke-width: 8.03571; fill: none; stroke: rgb(130, 191, 105); stroke-opacity: 0.4;" d="M325,137.58928571428572C487.5,137.58928571428572 487.5,439.8214285714286 650,439.8214285714286" class="link"></path><path style="stroke-width: 8.03571; fill: none; stroke: rgb(105, 154, 191); stroke-opacity: 0.4;" d="M325,394.64285714285717C487.5,394.64285714285717 487.5,495.9821428571429 650,495.9821428571429" class="link"></path><path style="stroke-width: 8.03571; fill: none; stroke: rgb(130, 105, 191); stroke-opacity: 0.4;" d="M325,452.85714285714295C487.5,452.85714285714295 487.5,391.6964285714286 650,391.6964285714286" class="link"></path><path style="stroke-width: 4.01786; fill: none; stroke: rgb(130, 191, 105); stroke-opacity: 0.4;" d="M325,115.49107142857143C487.5,115.49107142857143 487.5,377.63392857142856 650,377.63392857142856" class="link"></path><path style="stroke-width: 4.01786; fill: none; stroke: rgb(130, 191, 105); stroke-opacity: 0.4;" d="M325,143.61607142857144C487.5,143.61607142857144 487.5,463.88392857142856 650,463.88392857142856" class="link"></path><path style="stroke-width: 4.01786; fill: none; stroke: rgb(105, 191, 154); stroke-opacity: 0.4;" d="M325,286.2053571428571C487.5,286.2053571428571 487.5,489.9553571428571 650,489.9553571428571" class="link"></path><path style="stroke-width: 4.01786; fill: none; stroke: rgb(105, 191, 154); stroke-opacity: 0.4;" d="M325,278.16964285714283C487.5,278.16964285714283 487.5,381.6517857142857 650,381.6517857142857" class="link"></path><path style="stroke-width: 4.01786; fill: none; stroke: rgb(105, 191, 154); stroke-opacity: 0.4;" d="M325,282.1875C487.5,282.1875 487.5,467.9017857142857 650,467.9017857142857" class="link"></path><path style="stroke-width: 4.01786; fill: none; stroke: rgb(105, 154, 191); stroke-opacity: 0.4;" d="M325,380.5803571428571C487.5,380.5803571428571 487.5,423.79464285714283 650,423.79464285714283" class="link"></path><path style="stroke-width: 4.01786; fill: none; stroke: rgb(105, 154, 191); stroke-opacity: 0.4;" d="M325,384.5982142857143C487.5,384.5982142857143 487.5,445.8482142857143 650,445.8482142857143" class="link"></path><path style="stroke-width: 4.01786; fill: none; stroke: rgb(105, 154, 191); stroke-opacity: 0.4;" d="M325,388.61607142857144C487.5,388.61607142857144 487.5,471.91964285714283 650,471.91964285714283" class="link"></path><path style="stroke-width: 4.01786; fill: none; stroke: rgb(105, 154, 191); stroke-opacity: 0.4;" d="M325,376.5625C487.5,376.5625 487.5,385.66964285714283 650,385.66964285714283" class="link"></path><path style="stroke-width: 4.01786; fill: none; stroke: rgb(130, 105, 191); stroke-opacity: 0.4;" d="M325,462.9017857142858C487.5,462.9017857142858 487.5,475.9375 650,475.9375" class="link"></path><path style="stroke-width: 4.01786; fill: none; stroke: rgb(130, 105, 191); stroke-opacity: 0.4;" d="M325,458.8839285714286C487.5,458.8839285714286 487.5,449.86607142857144 650,449.86607142857144" class="link"></path></g><g><g transform="translate(0,19.99999999999997)" class="node"><rect style="" width="0" height="317.41071428571433"><title>female
79</title></rect><text style="font-size: 11px; font-family: Arial,Helvetica; pointer-events: none;" text-anchor="start" dy=".35em" y="158.70535714285717" x="6">female</text></g><g transform="translate(0,347.41071428571433)" class="node"><rect style="" width="0" height="132.58928571428572"><title>male
33</title></rect><text style="font-size: 11px; font-family: Arial,Helvetica; pointer-events: none;" text-anchor="start" dy=".35em" y="66.29464285714286" x="6">male</text></g><g transform="translate(650,375.625)" class="node"><rect style="fill: rgb(102, 102, 102);" width="0" height="20.089285714285715"><title>
5</title></rect><text style="font-size: 11px; font-family: Arial,Helvetica; pointer-events: none;" text-anchor="end" dy=".35em" y="10.044642857142858" x="-6"></text></g><g transform="translate(650,435.80357142857144)" class="node"><rect style="fill: rgb(102, 102, 102);" width="0" height="16.071428571428573"><title>cafeteria/ canteen
4</title></rect><text style="font-size: 11px; font-family: Arial,Helvetica; pointer-events: none;" text-anchor="end" dy=".35em" y="8.035714285714286" x="-6">cafeteria/ canteen</text></g><g transform="translate(650,405.7142857142857)" class="node"><rect style="fill: rgb(102, 102, 102);" width="0" height="20.089285714285715"><title>part-finished products
5</title></rect><text style="font-size: 11px; font-family: Arial,Helvetica; pointer-events: none;" text-anchor="end" dy=".35em" y="10.044642857142858" x="-6">part-finished products</text></g><g transform="translate(650,487.94642857142856)" class="node"><rect style="fill: rgb(102, 102, 102);" width="0" height="12.05357142857143"><title>ready meals
3</title></rect><text style="font-size: 11px; font-family: Arial,Helvetica; pointer-events: none;" text-anchor="end" dy=".35em" y="6.026785714285715" x="-6">ready meals</text></g><g transform="translate(650,461.875)" class="node"><rect style="fill: rgb(102, 102, 102);" width="0" height="16.071428571428573"><title>restaurant
4</title></rect><text style="font-size: 11px; font-family: Arial,Helvetica; pointer-events: none;" text-anchor="end" dy=".35em" y="8.035714285714286" x="-6">restaurant</text></g><g transform="translate(650,-2.842170943040401e-14)" class="node"><rect style="fill: rgb(102, 102, 102);" width="0" height="365.62500000000006"><title>self made
91</title></rect><text style="font-size: 11px; font-family: Arial,Helvetica; pointer-events: none;" text-anchor="end" dy=".35em" y="182.81250000000003" x="-6">self made</text></g><g transform="translate(325,408.66071428571433)" class="node"><rect style="" width="0" height="56.25000000000001"><title>all-eater
14</title></rect><text style="font-size: 11px; font-family: Arial,Helvetica; pointer-events: none;" text-anchor="end" dy=".35em" y="28.125000000000004" x="-6">all-eater</text></g><g transform="translate(325,298.2142857142857)" class="node"><rect style="" width="0" height="100.44642857142858"><title>all-eater, but eating less meat
25</title></rect><text style="font-size: 11px; font-family: Arial,Helvetica; pointer-events: none;" text-anchor="end" dy=".35em" y="50.22321428571429" x="-6">all-eater, but eating less meat</text></g><g transform="translate(325,474.91071428571433)" class="node"><rect style="" width="0" height="20.089285714285715"><title>pescetarian
5</title></rect><text style="font-size: 11px; font-family: Arial,Helvetica; pointer-events: none;" text-anchor="end" dy=".35em" y="10.044642857142858" x="-6">pescetarian</text></g><g transform="translate(325,155.625)" class="node"><rect style="" width="0" height="132.58928571428572"><title>vegan
33</title></rect><text style="font-size: 11px; font-family: Arial,Helvetica; pointer-events: none;" text-anchor="end" dy=".35em" y="66.29464285714286" x="-6">vegan</text></g><g transform="translate(325,5)" class="node"><rect style="" width="0" height="140.625"><title>vegetarian
35</title></rect><text style="font-size: 11px; font-family: Arial,Helvetica; pointer-events: none;" text-anchor="end" dy=".35em" y="70.3125" x="-6">vegetarian</text></g></g></g></svg>