<svg version="1.1" xmlns="http://www.w3.org/2000/svg" height="170" width="150"><g transform="translate(0,10)"><g><path style="stroke-width: 53.0357; fill: none; stroke: rgb(254, 99, 113); stroke-opacity: 0.4;" d="M0,66.07142857142857C75,66.07142857142857 75,106.78571428571428 150,106.78571428571428" class="link"></path><path style="stroke-width: 16.6964; fill: none; stroke: rgb(16, 69, 132); stroke-opacity: 0.4;" d="M0,126.6517857142857C75,126.6517857142857 75,141.6517857142857 150,141.6517857142857" class="link"></path><path style="stroke-width: 10.8036; fill: none; stroke: rgb(254, 99, 113); stroke-opacity: 0.4;" d="M0,26.294642857142858C75,26.294642857142858 75,25.223214285714285 150,25.223214285714285" class="link"></path><path style="stroke-width: 5.89286; fill: none; stroke: rgb(254, 99, 113); stroke-opacity: 0.4;" d="M0,36.607142857142854C75,36.607142857142854 75,62.41071428571428 150,62.41071428571428" class="link"></path><path style="stroke-width: 5.89286; fill: none; stroke: rgb(254, 99, 113); stroke-opacity: 0.4;" d="M0,17.94642857142857C75,17.94642857142857 75,2.946428571428571 150,2.946428571428571" class="link"></path><path style="stroke-width: 4.91071; fill: none; stroke: rgb(16, 69, 132); stroke-opacity: 0.4;" d="M0,115.84821428571428C75,115.84821428571428 75,67.81249999999999 150,67.81249999999999" class="link"></path><path style="stroke-width: 3.92857; fill: none; stroke: rgb(16, 69, 132); stroke-opacity: 0.4;" d="M0,108.48214285714285C75,108.48214285714285 75,32.589285714285715 150,32.589285714285715" class="link"></path><path style="stroke-width: 3.92857; fill: none; stroke: rgb(16, 69, 132); stroke-opacity: 0.4;" d="M0,104.55357142857142C75,104.55357142857142 75,7.857142857142857 150,7.857142857142857" class="link"></path><path style="stroke-width: 2.94643; fill: none; stroke: rgb(16, 69, 132); stroke-opacity: 0.4;" d="M0,111.91964285714286C75,111.91964285714286 75,47.99107142857142 150,47.99107142857142" class="link"></path><path style="stroke-width: 1.96429; fill: none; stroke: rgb(254, 99, 113); stroke-opacity: 0.4;" d="M0,32.67857142857142C75,32.67857142857142 75,45.53571428571428 150,45.53571428571428" class="link"></path></g><g><g transform="translate(0,15)" class="node"><rect style="" width="0" height="77.58928571428571"><title>female
79</title></rect><text style="font-size: 11px; font-family: Arial,Helvetica; pointer-events: none;" text-anchor="start" dy=".35em" y="38.794642857142854" x="6">female</text></g><g transform="translate(0,102.58928571428571)" class="node"><rect style="" width="0" height="32.410714285714285"><title>male
33</title></rect><text style="font-size: 11px; font-family: Arial,Helvetica; pointer-events: none;" text-anchor="start" dy=".35em" y="16.205357142857142" x="6">male</text></g><g transform="translate(150,0)" class="node"><rect style="fill: rgb(102, 102, 102);" width="0" height="9.821428571428571"><title>
10</title></rect><text style="font-size: 11px; font-family: Arial,Helvetica; pointer-events: none;" text-anchor="end" dy=".35em" y="4.910714285714286" x="-6"></text></g><g transform="translate(150,19.82142857142857)" class="node"><rect style="fill: rgb(102, 102, 102);" width="0" height="14.732142857142856"><title>1
15</title></rect><text style="font-size: 11px; font-family: Arial,Helvetica; pointer-events: none;" text-anchor="end" dy=".35em" y="7.366071428571428" x="-6">1</text></g><g transform="translate(150,44.55357142857142)" class="node"><rect style="fill: rgb(102, 102, 102);" width="0" height="4.910714285714286"><title>2
5</title></rect><text style="font-size: 11px; font-family: Arial,Helvetica; pointer-events: none;" text-anchor="end" dy=".35em" y="2.455357142857143" x="-6">2</text></g><g transform="translate(150,59.46428571428571)" class="node"><rect style="fill: rgb(102, 102, 102);" width="0" height="10.803571428571429"><title>3
11</title></rect><text style="font-size: 11px; font-family: Arial,Helvetica; pointer-events: none;" text-anchor="end" dy=".35em" y="5.401785714285714" x="-6">3</text></g><g transform="translate(150,80.26785714285714)" class="node"><rect style="fill: rgb(102, 102, 102);" width="0" height="69.73214285714285"><title>4
71</title></rect><text style="font-size: 11px; font-family: Arial,Helvetica; pointer-events: none;" text-anchor="end" dy=".35em" y="34.86607142857142" x="-6">4</text></g></g></g></svg>