<svg version="1.1" xmlns="http://www.w3.org/2000/svg" height="520" width="650"><g transform="translate(0,10)"><g><path style="stroke-width: 115; fill: none; stroke: rgb(254, 99, 113); stroke-opacity: 0.4;" d="M10,72.50000000000003C325,72.50000000000003 325,57.49999999999999 640,57.49999999999999" class="link"></path><path style="stroke-width: 102.679; fill: none; stroke: rgb(254, 99, 113); stroke-opacity: 0.4;" d="M10,181.33928571428572C325,181.33928571428572 325,205.08928571428572 640,205.08928571428572" class="link"></path><path style="stroke-width: 73.9286; fill: none; stroke: rgb(254, 99, 113); stroke-opacity: 0.4;" d="M10,269.6428571428571C325,269.6428571428571 325,336.25 640,336.25" class="link"></path><path style="stroke-width: 32.8571; fill: none; stroke: rgb(16, 69, 132); stroke-opacity: 0.4;" d="M10,394.6428571428571C325,394.6428571428571 325,272.8571428571429 640,272.8571428571429" class="link"></path><path style="stroke-width: 32.8571; fill: none; stroke: rgb(16, 69, 132); stroke-opacity: 0.4;" d="M10,456.24999999999994C325,456.24999999999994 325,453.0357142857142 640,453.0357142857142" class="link"></path><path style="stroke-width: 28.75; fill: none; stroke: rgb(16, 69, 132); stroke-opacity: 0.4;" d="M10,425.4464285714285C325,425.4464285714285 325,387.58928571428567 640,387.58928571428567" class="link"></path><path style="stroke-width: 28.75; fill: none; stroke: rgb(16, 69, 132); stroke-opacity: 0.4;" d="M10,363.83928571428567C325,363.83928571428567 325,129.37499999999997 640,129.37499999999997" class="link"></path><path style="stroke-width: 24.6429; fill: none; stroke: rgb(254, 99, 113); stroke-opacity: 0.4;" d="M10,318.92857142857133C325,318.92857142857133 325,424.2857142857142 640,424.2857142857142" class="link"></path><path style="stroke-width: 12.3214; fill: none; stroke: rgb(16, 69, 132); stroke-opacity: 0.4;" d="M10,478.8392857142856C325,478.8392857142856 325,493.83928571428567 640,493.83928571428567" class="link"></path><path style="stroke-width: 8.21429; fill: none; stroke: rgb(254, 99, 113); stroke-opacity: 0.4;" d="M10,335.3571428571427C325,335.3571428571427 325,483.5714285714285 640,483.5714285714285" class="link"></path></g><g><g transform="translate(0,15.000000000000028)" class="node"><rect style="" width="10" height="324.46428571428567"><title>female
79</title></rect><text style="font-size: 11px; font-family: Arial,Helvetica; pointer-events: none;" text-anchor="start" dy=".35em" y="162.23214285714283" x="16">female</text></g><g transform="translate(0,349.46428571428567)" class="node"><rect style="" width="10" height="135.53571428571428"><title>male
33</title></rect><text style="font-size: 11px; font-family: Arial,Helvetica; pointer-events: none;" text-anchor="start" dy=".35em" y="67.76785714285714" x="16">male</text></g><g transform="translate(640,411.96428571428567)" class="node"><rect style="fill: rgb(102, 102, 102);" width="10" height="57.49999999999999"><title>all-eater
14</title></rect><text style="font-size: 11px; font-family: Arial,Helvetica; pointer-events: none;" text-anchor="end" dy=".35em" y="28.749999999999996" x="-6">all-eater</text></g><g transform="translate(640,299.2857142857143)" class="node"><rect style="fill: rgb(102, 102, 102);" width="10" height="102.67857142857142"><title>all-eater, but eating less meat
25</title></rect><text style="font-size: 11px; font-family: Arial,Helvetica; pointer-events: none;" text-anchor="end" dy=".35em" y="51.33928571428571" x="-6">all-eater, but eating less meat</text></g><g transform="translate(640,479.46428571428567)" class="node"><rect style="fill: rgb(102, 102, 102);" width="10" height="20.535714285714285"><title>pescetarian
5</title></rect><text style="font-size: 11px; font-family: Arial,Helvetica; pointer-events: none;" text-anchor="end" dy=".35em" y="10.267857142857142" x="-6">pescetarian</text></g><g transform="translate(640,153.75)" class="node"><rect style="fill: rgb(102, 102, 102);" width="10" height="135.53571428571428"><title>vegan
33</title></rect><text style="font-size: 11px; font-family: Arial,Helvetica; pointer-events: none;" text-anchor="end" dy=".35em" y="67.76785714285714" x="-6">vegan</text></g><g transform="translate(640,0)" class="node"><rect style="fill: rgb(102, 102, 102);" width="10" height="143.75"><title>vegetarian
35</title></rect><text style="font-size: 11px; font-family: Arial,Helvetica; pointer-events: none;" text-anchor="end" dy=".35em" y="71.875" x="-6">vegetarian</text></g></g></g></svg>