<svg version="1.1" xmlns="http://www.w3.org/2000/svg" height="520" width="650"><g transform="translate(0,10)"><g><path style="stroke-width: 60; fill: none; stroke: rgb(254, 99, 113); stroke-opacity: 0.4;" d="M0,264.2857142857143C162.5,264.2857142857143 162.5,345 325,345" class="link"></path><path style="stroke-width: 53.5714; fill: none; stroke: rgb(254, 99, 113); stroke-opacity: 0.4;" d="M0,207.5C162.5,207.5 162.5,261.07142857142856 325,261.07142857142856" class="link"></path><path style="stroke-width: 38.5714; fill: none; stroke: rgb(254, 99, 113); stroke-opacity: 0.4;" d="M0,157.14285714285714C162.5,157.14285714285714 162.5,169.28571428571428 325,169.28571428571428" class="link"></path><path style="stroke-width: 25.7143; fill: none; stroke: rgb(191, 186, 105); stroke-opacity: 0.4;" d="M325,251.42857142857142C487.5,251.42857142857142 487.5,88.57142857142846 650,88.57142857142846" class="link"></path><path style="stroke-width: 17.1429; fill: none; stroke: rgb(16, 69, 132); stroke-opacity: 0.4;" d="M0,351.4285714285714C162.5,351.4285714285714 162.5,296.4285714285714 325,296.4285714285714" class="link"></path><path style="stroke-width: 17.1429; fill: none; stroke: rgb(16, 69, 132); stroke-opacity: 0.4;" d="M0,312.85714285714283C162.5,312.85714285714283 162.5,131.42857142857144 325,131.42857142857144" class="link"></path><path style="stroke-width: 17.1429; fill: none; stroke: rgb(191, 159, 105); stroke-opacity: 0.4;" d="M325,327.85714285714283C487.5,327.85714285714283 487.5,109.99999999999989 650,109.99999999999989" class="link"></path><path style="stroke-width: 17.1429; fill: none; stroke: rgb(191, 186, 105); stroke-opacity: 0.4;" d="M325,275C487.5,275 487.5,243.57142857142847 650,243.57142857142847" class="link"></path><path style="stroke-width: 17.1429; fill: none; stroke: rgb(168, 191, 105); stroke-opacity: 0.4;" d="M325,158.57142857142858C487.5,158.57142857142858 487.5,21.428571428571317 650,21.428571428571317" class="link"></path><path style="stroke-width: 15; fill: none; stroke: rgb(16, 69, 132); stroke-opacity: 0.4;" d="M0,328.92857142857144C162.5,328.92857142857144 162.5,196.07142857142856 325,196.07142857142856" class="link"></path><path style="stroke-width: 15; fill: none; stroke: rgb(16, 69, 132); stroke-opacity: 0.4;" d="M0,367.5C162.5,367.5 162.5,382.5 325,382.5" class="link"></path><path style="stroke-width: 12.8571; fill: none; stroke: rgb(254, 99, 113); stroke-opacity: 0.4;" d="M0,131.42857142857142C162.5,131.42857142857142 162.5,116.42857142857143 325,116.42857142857143" class="link"></path><path style="stroke-width: 12.8571; fill: none; stroke: rgb(191, 186, 105); stroke-opacity: 0.4;" d="M325,296.42857142857144C487.5,296.42857142857144 487.5,436.4285714285715 650,436.4285714285715" class="link"></path><path style="stroke-width: 12.8571; fill: none; stroke: rgb(141, 191, 105); stroke-opacity: 0.4;" d="M325,116.42857142857143C487.5,116.42857142857143 487.5,6.428571428571315 650,6.428571428571315" class="link"></path><path style="stroke-width: 8.57143; fill: none; stroke: rgb(168, 191, 105); stroke-opacity: 0.4;" d="M325,171.42857142857142C487.5,171.42857142857142 487.5,64.99999999999989 650,64.99999999999989" class="link"></path><path style="stroke-width: 6.42857; fill: none; stroke: rgb(16, 69, 132); stroke-opacity: 0.4;" d="M0,339.64285714285717C162.5,339.64285714285717 162.5,221.07142857142856 325,221.07142857142856" class="link"></path><path style="stroke-width: 6.42857; fill: none; stroke: rgb(191, 159, 105); stroke-opacity: 0.4;" d="M325,343.92857142857144C487.5,343.92857142857144 487.5,156.07142857142844 650,156.07142857142844" class="link"></path><path style="stroke-width: 6.42857; fill: none; stroke: rgb(191, 159, 105); stroke-opacity: 0.4;" d="M325,373.92857142857144C487.5,373.92857142857144 487.5,414.64285714285717 650,414.64285714285717" class="link"></path><path style="stroke-width: 6.42857; fill: none; stroke: rgb(191, 186, 105); stroke-opacity: 0.4;" d="M325,286.7857142857143C487.5,286.7857142857143 487.5,408.2142857142857 650,408.2142857142857" class="link"></path><path style="stroke-width: 6.42857; fill: none; stroke: rgb(168, 191, 105); stroke-opacity: 0.4;" d="M325,193.92857142857144C487.5,193.92857142857144 487.5,361.07142857142856 650,361.07142857142856" class="link"></path><path style="stroke-width: 6.42857; fill: none; stroke: rgb(168, 191, 105); stroke-opacity: 0.4;" d="M325,181.07142857142858C487.5,181.07142857142858 487.5,229.64285714285703 650,229.64285714285703" class="link"></path><path style="stroke-width: 6.42857; fill: none; stroke: rgb(114, 191, 105); stroke-opacity: 0.4;" d="M325,216.78571428571428C487.5,216.78571428571428 487.5,72.49999999999987 650,72.49999999999987" class="link"></path><path style="stroke-width: 4.28571; fill: none; stroke: rgb(254, 99, 113); stroke-opacity: 0.4;" d="M0,178.57142857142858C162.5,178.57142857142858 162.5,215.7142857142857 325,215.7142857142857" class="link"></path><path style="stroke-width: 4.28571; fill: none; stroke: rgb(191, 159, 105); stroke-opacity: 0.4;" d="M325,387.8571428571429C487.5,387.8571428571429 487.5,497.857142857143 650,497.857142857143" class="link"></path><path style="stroke-width: 4.28571; fill: none; stroke: rgb(191, 159, 105); stroke-opacity: 0.4;" d="M325,381.4285714285715C487.5,381.4285714285715 487.5,459.2857142857144 650,459.2857142857144" class="link"></path><path style="stroke-width: 4.28571; fill: none; stroke: rgb(191, 159, 105); stroke-opacity: 0.4;" d="M325,349.2857142857143C487.5,349.2857142857143 487.5,173.57142857142844 650,173.57142857142844" class="link"></path><path style="stroke-width: 4.28571; fill: none; stroke: rgb(191, 186, 105); stroke-opacity: 0.4;" d="M325,236.42857142857142C487.5,236.42857142857142 487.5,44.28571428571417 650,44.28571428571417" class="link"></path><path style="stroke-width: 4.28571; fill: none; stroke: rgb(168, 191, 105); stroke-opacity: 0.4;" d="M325,186.42857142857142C487.5,186.42857142857142 487.5,307.1428571428571 650,307.1428571428571" class="link"></path><path style="stroke-width: 2.14286; fill: none; stroke: rgb(191, 159, 105); stroke-opacity: 0.4;" d="M325,384.64285714285717C487.5,384.64285714285717 487.5,472.50000000000006 650,472.50000000000006" class="link"></path><path style="stroke-width: 2.14286; fill: none; stroke: rgb(191, 159, 105); stroke-opacity: 0.4;" d="M325,361.07142857142856C487.5,361.07142857142856 487.5,279.64285714285705 650,279.64285714285705" class="link"></path><path style="stroke-width: 2.14286; fill: none; stroke: rgb(191, 159, 105); stroke-opacity: 0.4;" d="M325,354.6428571428571C487.5,354.6428571428571 487.5,213.2142857142856 650,213.2142857142856" class="link"></path><path style="stroke-width: 2.14286; fill: none; stroke: rgb(191, 159, 105); stroke-opacity: 0.4;" d="M325,337.5C487.5,337.5 487.5,129.64285714285703 650,129.64285714285703" class="link"></path><path style="stroke-width: 2.14286; fill: none; stroke: rgb(191, 159, 105); stroke-opacity: 0.4;" d="M325,378.2142857142857C487.5,378.2142857142857 487.5,443.92857142857144 650,443.92857142857144" class="link"></path><path style="stroke-width: 2.14286; fill: none; stroke: rgb(191, 159, 105); stroke-opacity: 0.4;" d="M325,339.6428571428571C487.5,339.6428571428571 487.5,141.78571428571416 650,141.78571428571416" class="link"></path><path style="stroke-width: 2.14286; fill: none; stroke: rgb(191, 159, 105); stroke-opacity: 0.4;" d="M325,316.07142857142856C487.5,316.07142857142856 487.5,31.07142857142846 650,31.07142857142846" class="link"></path><path style="stroke-width: 2.14286; fill: none; stroke: rgb(191, 159, 105); stroke-opacity: 0.4;" d="M325,318.2142857142857C487.5,318.2142857142857 487.5,47.49999999999988 650,47.49999999999988" class="link"></path><path style="stroke-width: 2.14286; fill: none; stroke: rgb(191, 159, 105); stroke-opacity: 0.4;" d="M325,352.5C487.5,352.5 487.5,188.92857142857133 650,188.92857142857133" class="link"></path><path style="stroke-width: 2.14286; fill: none; stroke: rgb(191, 159, 105); stroke-opacity: 0.4;" d="M325,356.7857142857143C487.5,356.7857142857143 487.5,253.2142857142856 650,253.2142857142856" class="link"></path><path style="stroke-width: 2.14286; fill: none; stroke: rgb(191, 159, 105); stroke-opacity: 0.4;" d="M325,363.2142857142857C487.5,363.2142857142857 487.5,291.78571428571416 650,291.78571428571416" class="link"></path><path style="stroke-width: 2.14286; fill: none; stroke: rgb(191, 159, 105); stroke-opacity: 0.4;" d="M325,358.92857142857144C487.5,358.92857142857144 487.5,265.3571428571427 650,265.3571428571427" class="link"></path><path style="stroke-width: 2.14286; fill: none; stroke: rgb(191, 159, 105); stroke-opacity: 0.4;" d="M325,365.35714285714283C487.5,365.35714285714283 487.5,310.3571428571428 650,310.3571428571428" class="link"></path><path style="stroke-width: 2.14286; fill: none; stroke: rgb(191, 159, 105); stroke-opacity: 0.4;" d="M325,369.64285714285717C487.5,369.64285714285717 487.5,365.35714285714283 650,365.35714285714283" class="link"></path><path style="stroke-width: 2.14286; fill: none; stroke: rgb(191, 159, 105); stroke-opacity: 0.4;" d="M325,367.5C487.5,367.5 487.5,334.64285714285705 650,334.64285714285705" class="link"></path><path style="stroke-width: 2.14286; fill: none; stroke: rgb(191, 186, 105); stroke-opacity: 0.4;" d="M325,303.92857142857144C487.5,303.92857142857144 487.5,456.0714285714286 650,456.0714285714286" class="link"></path><path style="stroke-width: 2.14286; fill: none; stroke: rgb(191, 186, 105); stroke-opacity: 0.4;" d="M325,265.35714285714283C487.5,265.35714285714283 487.5,170.35714285714275 650,170.35714285714275" class="link"></path><path style="stroke-width: 2.14286; fill: none; stroke: rgb(168, 191, 105); stroke-opacity: 0.4;" d="M325,198.21428571428572C487.5,198.21428571428572 487.5,401.7857142857143 650,401.7857142857143" class="link"></path><path style="stroke-width: 2.14286; fill: none; stroke: rgb(168, 191, 105); stroke-opacity: 0.4;" d="M325,189.64285714285714C487.5,189.64285714285714 487.5,322.4999999999999 650,322.4999999999999" class="link"></path><path style="stroke-width: 2.14286; fill: none; stroke: rgb(168, 191, 105); stroke-opacity: 0.4;" d="M325,176.7857142857143C487.5,176.7857142857143 487.5,186.7857142857142 650,186.7857142857142" class="link"></path><path style="stroke-width: 2.14286; fill: none; stroke: rgb(168, 191, 105); stroke-opacity: 0.4;" d="M325,202.50000000000003C487.5,202.50000000000003 487.5,484.6428571428572 650,484.6428571428572" class="link"></path><path style="stroke-width: 2.14286; fill: none; stroke: rgb(168, 191, 105); stroke-opacity: 0.4;" d="M325,200.35714285714286C487.5,200.35714285714286 487.5,428.92857142857144 650,428.92857142857144" class="link"></path><path style="stroke-width: 2.14286; fill: none; stroke: rgb(141, 191, 105); stroke-opacity: 0.4;" d="M325,134.64285714285714C487.5,134.64285714285714 487.5,346.7857142857142 650,346.7857142857142" class="link"></path><path style="stroke-width: 2.14286; fill: none; stroke: rgb(141, 191, 105); stroke-opacity: 0.4;" d="M325,132.5C487.5,132.5 487.5,303.92857142857133 650,303.92857142857133" class="link"></path><path style="stroke-width: 2.14286; fill: none; stroke: rgb(141, 191, 105); stroke-opacity: 0.4;" d="M325,136.7857142857143C487.5,136.7857142857143 487.5,377.49999999999994 650,377.49999999999994" class="link"></path><path style="stroke-width: 2.14286; fill: none; stroke: rgb(141, 191, 105); stroke-opacity: 0.4;" d="M325,130.35714285714286C487.5,130.35714285714286 487.5,277.4999999999999 650,277.4999999999999" class="link"></path><path style="stroke-width: 2.14286; fill: none; stroke: rgb(141, 191, 105); stroke-opacity: 0.4;" d="M325,128.21428571428572C487.5,128.21428571428572 487.5,225.35714285714275 650,225.35714285714275" class="link"></path><path style="stroke-width: 2.14286; fill: none; stroke: rgb(141, 191, 105); stroke-opacity: 0.4;" d="M325,123.92857142857143C487.5,123.92857142857143 487.5,59.642857142857025 650,59.642857142857025" class="link"></path><path style="stroke-width: 2.14286; fill: none; stroke: rgb(141, 191, 105); stroke-opacity: 0.4;" d="M325,126.07142857142857C487.5,126.07142857142857 487.5,201.07142857142847 650,201.07142857142847" class="link"></path><path style="stroke-width: 2.14286; fill: none; stroke: rgb(141, 191, 105); stroke-opacity: 0.4;" d="M325,138.92857142857144C487.5,138.92857142857144 487.5,389.6428571428571 650,389.6428571428571" class="link"></path><path style="stroke-width: 2.14286; fill: none; stroke: rgb(114, 191, 105); stroke-opacity: 0.4;" d="M325,223.21428571428572C487.5,223.21428571428572 487.5,403.92857142857144 650,403.92857142857144" class="link"></path><path style="stroke-width: 2.14286; fill: none; stroke: rgb(114, 191, 105); stroke-opacity: 0.4;" d="M325,221.07142857142856C487.5,221.07142857142856 487.5,233.92857142857133 650,233.92857142857133" class="link"></path></g><g><g transform="translate(0,125)" class="node"><rect style="" width="0" height="169.28571428571428"><title>female
79</title></rect><text style="font-size: 11px; font-family: Arial,Helvetica; pointer-events: none;" text-anchor="start" dy=".35em" y="84.64285714285714" x="6">female</text></g><g transform="translate(0,304.2857142857143)" class="node"><rect style="" width="0" height="70.71428571428571"><title>male
33</title></rect><text style="font-size: 11px; font-family: Arial,Helvetica; pointer-events: none;" text-anchor="start" dy=".35em" y="35.357142857142854" x="6">male</text></g><g transform="translate(650,-1.1368683772161603e-13)" class="node"><rect style="fill: rgb(102, 102, 102);" width="0" height="32.14285714285714"><title>
15</title></rect><text style="font-size: 11px; font-family: Arial,Helvetica; pointer-events: none;" text-anchor="end" dy=".35em" y="16.07142857142857" x="-6"></text></g><g transform="translate(650,42.142857142857025)" class="node"><rect style="fill: rgb(102, 102, 102);" width="0" height="6.428571428571429"><title>0.5
3</title></rect><text style="font-size: 11px; font-family: Arial,Helvetica; pointer-events: none;" text-anchor="end" dy=".35em" y="3.2142857142857144" x="-6">0.5</text></g><g transform="translate(650,58.571428571428456)" class="node"><rect style="fill: rgb(102, 102, 102);" width="0" height="60"><title>1
28</title></rect><text style="font-size: 11px; font-family: Arial,Helvetica; pointer-events: none;" text-anchor="end" dy=".35em" y="30" x="-6">1</text></g><g transform="translate(650,128.57142857142844)" class="node"><rect style="fill: rgb(102, 102, 102);" width="0" height="2.142857142857143"><title>1.8
1</title></rect><text style="font-size: 11px; font-family: Arial,Helvetica; pointer-events: none;" text-anchor="end" dy=".35em" y="1.0714285714285714" x="-6">1.8</text></g><g transform="translate(650,140.71428571428558)" class="node"><rect style="fill: rgb(102, 102, 102);" width="0" height="2.142857142857143"><title>11
1</title></rect><text style="font-size: 11px; font-family: Arial,Helvetica; pointer-events: none;" text-anchor="end" dy=".35em" y="1.0714285714285714" x="-6">11</text></g><g transform="translate(650,152.85714285714272)" class="node"><rect style="fill: rgb(102, 102, 102);" width="0" height="6.428571428571429"><title>13
3</title></rect><text style="font-size: 11px; font-family: Arial,Helvetica; pointer-events: none;" text-anchor="end" dy=".35em" y="3.2142857142857144" x="-6">13</text></g><g transform="translate(650,169.28571428571416)" class="node"><rect style="fill: rgb(102, 102, 102);" width="0" height="6.428571428571429"><title>15
3</title></rect><text style="font-size: 11px; font-family: Arial,Helvetica; pointer-events: none;" text-anchor="end" dy=".35em" y="3.2142857142857144" x="-6">15</text></g><g transform="translate(650,185.7142857142856)" class="node"><rect style="fill: rgb(102, 102, 102);" width="0" height="4.285714285714286"><title>16
2</title></rect><text style="font-size: 11px; font-family: Arial,Helvetica; pointer-events: none;" text-anchor="end" dy=".35em" y="2.142857142857143" x="-6">16</text></g><g transform="translate(650,199.9999999999999)" class="node"><rect style="fill: rgb(102, 102, 102);" width="0" height="2.142857142857143"><title>18
1</title></rect><text style="font-size: 11px; font-family: Arial,Helvetica; pointer-events: none;" text-anchor="end" dy=".35em" y="1.0714285714285714" x="-6">18</text></g><g transform="translate(650,212.14285714285703)" class="node"><rect style="fill: rgb(102, 102, 102);" width="0" height="2.142857142857143"><title>19
1</title></rect><text style="font-size: 11px; font-family: Arial,Helvetica; pointer-events: none;" text-anchor="end" dy=".35em" y="1.0714285714285714" x="-6">19</text></g><g transform="translate(650,224.28571428571416)" class="node"><rect style="fill: rgb(102, 102, 102);" width="0" height="30"><title>2
14</title></rect><text style="font-size: 11px; font-family: Arial,Helvetica; pointer-events: none;" text-anchor="end" dy=".35em" y="15" x="-6">2</text></g><g transform="translate(650,264.28571428571416)" class="node"><rect style="fill: rgb(102, 102, 102);" width="0" height="2.142857142857143"><title>21
1</title></rect><text style="font-size: 11px; font-family: Arial,Helvetica; pointer-events: none;" text-anchor="end" dy=".35em" y="1.0714285714285714" x="-6">21</text></g><g transform="translate(650,276.42857142857133)" class="node"><rect style="fill: rgb(102, 102, 102);" width="0" height="4.285714285714286"><title>22
2</title></rect><text style="font-size: 11px; font-family: Arial,Helvetica; pointer-events: none;" text-anchor="end" dy=".35em" y="2.142857142857143" x="-6">22</text></g><g transform="translate(650,290.7142857142856)" class="node"><rect style="fill: rgb(102, 102, 102);" width="0" height="2.142857142857143"><title>23
1</title></rect><text style="font-size: 11px; font-family: Arial,Helvetica; pointer-events: none;" text-anchor="end" dy=".35em" y="1.0714285714285714" x="-6">23</text></g><g transform="translate(650,302.8571428571428)" class="node"><rect style="fill: rgb(102, 102, 102);" width="0" height="8.571428571428571"><title>24
4</title></rect><text style="font-size: 11px; font-family: Arial,Helvetica; pointer-events: none;" text-anchor="end" dy=".35em" y="4.285714285714286" x="-6">24</text></g><g transform="translate(650,321.42857142857133)" class="node"><rect style="fill: rgb(102, 102, 102);" width="0" height="2.142857142857143"><title>25
1</title></rect><text style="font-size: 11px; font-family: Arial,Helvetica; pointer-events: none;" text-anchor="end" dy=".35em" y="1.0714285714285714" x="-6">25</text></g><g transform="translate(650,333.5714285714285)" class="node"><rect style="fill: rgb(102, 102, 102);" width="0" height="2.142857142857143"><title>26
1</title></rect><text style="font-size: 11px; font-family: Arial,Helvetica; pointer-events: none;" text-anchor="end" dy=".35em" y="1.0714285714285714" x="-6">26</text></g><g transform="translate(650,345.71428571428567)" class="node"><rect style="fill: rgb(102, 102, 102);" width="0" height="2.142857142857143"><title>29
1</title></rect><text style="font-size: 11px; font-family: Arial,Helvetica; pointer-events: none;" text-anchor="end" dy=".35em" y="1.0714285714285714" x="-6">29</text></g><g transform="translate(650,357.85714285714283)" class="node"><rect style="fill: rgb(102, 102, 102);" width="0" height="8.571428571428571"><title>3
4</title></rect><text style="font-size: 11px; font-family: Arial,Helvetica; pointer-events: none;" text-anchor="end" dy=".35em" y="4.285714285714286" x="-6">3</text></g><g transform="translate(650,376.4285714285714)" class="node"><rect style="fill: rgb(102, 102, 102);" width="0" height="2.142857142857143"><title>33
1</title></rect><text style="font-size: 11px; font-family: Arial,Helvetica; pointer-events: none;" text-anchor="end" dy=".35em" y="1.0714285714285714" x="-6">33</text></g><g transform="translate(650,388.57142857142856)" class="node"><rect style="fill: rgb(102, 102, 102);" width="0" height="2.142857142857143"><title>36
1</title></rect><text style="font-size: 11px; font-family: Arial,Helvetica; pointer-events: none;" text-anchor="end" dy=".35em" y="1.0714285714285714" x="-6">36</text></g><g transform="translate(650,400.7142857142857)" class="node"><rect style="fill: rgb(102, 102, 102);" width="0" height="17.142857142857142"><title>4
8</title></rect><text style="font-size: 11px; font-family: Arial,Helvetica; pointer-events: none;" text-anchor="end" dy=".35em" y="8.571428571428571" x="-6">4</text></g><g transform="translate(650,427.8571428571429)" class="node"><rect style="fill: rgb(102, 102, 102);" width="0" height="17.142857142857142"><title>5
8</title></rect><text style="font-size: 11px; font-family: Arial,Helvetica; pointer-events: none;" text-anchor="end" dy=".35em" y="8.571428571428571" x="-6">5</text></g><g transform="translate(650,455.00000000000006)" class="node"><rect style="fill: rgb(102, 102, 102);" width="0" height="6.428571428571429"><title>6
3</title></rect><text style="font-size: 11px; font-family: Arial,Helvetica; pointer-events: none;" text-anchor="end" dy=".35em" y="3.2142857142857144" x="-6">6</text></g><g transform="translate(650,471.4285714285715)" class="node"><rect style="fill: rgb(102, 102, 102);" width="0" height="2.142857142857143"><title>7
1</title></rect><text style="font-size: 11px; font-family: Arial,Helvetica; pointer-events: none;" text-anchor="end" dy=".35em" y="1.0714285714285714" x="-6">7</text></g><g transform="translate(650,483.57142857142867)" class="node"><rect style="fill: rgb(102, 102, 102);" width="0" height="2.142857142857143"><title>8
1</title></rect><text style="font-size: 11px; font-family: Arial,Helvetica; pointer-events: none;" text-anchor="end" dy=".35em" y="1.0714285714285714" x="-6">8</text></g><g transform="translate(650,495.71428571428584)" class="node"><rect style="fill: rgb(102, 102, 102);" width="0" height="4.285714285714286"><title>9
2</title></rect><text style="font-size: 11px; font-family: Arial,Helvetica; pointer-events: none;" text-anchor="end" dy=".35em" y="2.142857142857143" x="-6">9</text></g><g transform="translate(325,110)" class="node"><rect style="" width="0" height="30"><title>all-eater
14</title></rect><text style="font-size: 11px; font-family: Arial,Helvetica; pointer-events: none;" text-anchor="end" dy=".35em" y="15" x="-6">all-eater</text></g><g transform="translate(325,150)" class="node"><rect style="" width="0" height="53.57142857142857"><title>all-eater, but eating less meat
25</title></rect><text style="font-size: 11px; font-family: Arial,Helvetica; pointer-events: none;" text-anchor="end" dy=".35em" y="26.785714285714285" x="-6">all-eater, but eating less meat</text></g><g transform="translate(325,213.57142857142856)" class="node"><rect style="" width="0" height="10.714285714285714"><title>pescetarian
5</title></rect><text style="font-size: 11px; font-family: Arial,Helvetica; pointer-events: none;" text-anchor="end" dy=".35em" y="5.357142857142857" x="-6">pescetarian</text></g><g transform="translate(325,234.28571428571428)" class="node"><rect style="" width="0" height="70.71428571428571"><title>vegan
33</title></rect><text style="font-size: 11px; font-family: Arial,Helvetica; pointer-events: none;" text-anchor="end" dy=".35em" y="35.357142857142854" x="-6">vegan</text></g><g transform="translate(325,315)" class="node"><rect style="" width="0" height="75"><title>vegetarian
35</title></rect><text style="font-size: 11px; font-family: Arial,Helvetica; pointer-events: none;" text-anchor="end" dy=".35em" y="37.5" x="-6">vegetarian</text></g></g></g></svg>